<?xml version="1.0" standalone="no"?>
<!DOCTYPE svg PUBLIC "-//W3C//DTD SVG 1.1//EN" "http://www.w3.org/Graphics/SVG/1.1/DTD/svg11.dtd" >
<svg xmlns="http://www.w3.org/2000/svg">
<metadata></metadata>
<defs>
<font id="pittorifamosiregular" horiz-adv-x="919" >
<font-face units-per-em="2048" ascent="1536" descent="-512" />
<missing-glyph horiz-adv-x="616" />
<glyph horiz-adv-x="0" />
<glyph unicode="&#xd;" horiz-adv-x="616" />
<glyph horiz-adv-x="0" />
<glyph horiz-adv-x="0" />
<glyph unicode=" "  horiz-adv-x="616" />
<glyph unicode="&#x09;" horiz-adv-x="616" />
<glyph unicode="&#xa0;" horiz-adv-x="616" />
<glyph unicode="!" horiz-adv-x="397" d="M-4 1502q6 16 18.5 23t26.5 5t25 -19q72 -131 100.5 -274t33.5 -292.5t-6.5 -301t-21.5 -295.5q0 -18 -13.5 -28.5t-27.5 -10.5t-25.5 10.5t-9.5 28.5q10 137 21.5 283.5t8.5 291t-30.5 284t-95.5 263.5q-10 16 -4 32zM15 99q8 20 26 26v10q-6 16 -4 30.5t16 24.5 q14 6 30.5 4.5t22.5 -18.5q10 -27 11 -47q23 -10 29 -34.5t8 -47.5q0 -16 -16.5 -30.5t-33.5 -6.5q-14 4 -28.5 13.5t-24.5 23.5q-16 8 -24 16q-20 16 -12 36z" />
<glyph unicode="&#x22;" horiz-adv-x="405" d="M6 1378q-2 16 7.5 27.5t21.5 14.5t23.5 -2t15.5 -21q14 -86 16 -170t2 -170q0 -16 -10 -25.5t-23.5 -9.5t-23.5 9t-10 26q0 80 -2.5 159.5t-16.5 161.5zM135 1397q-2 16 7.5 27.5t21.5 14.5t23.5 -3t13.5 -23q16 -98 24 -195.5t-4 -199.5q-2 -16 -14 -23.5t-24.5 -7.5 t-21.5 7.5t-7 23.5q10 98 3 190t-22 189z" />
<glyph unicode="#" horiz-adv-x="915" d="M4 953.5q0 17.5 10.5 31.5t32.5 16q41 4 80 2t80 -6q2 61 3 122t3 120q0 20 14.5 30.5t30.5 10.5t30.5 -10t14.5 -31q-2 -63 -4 -125.5t-4 -124.5q31 -4 62.5 -8t64.5 -8q0 78 2 156.5t2 156.5q0 20 13.5 31.5t30.5 11.5t30.5 -11t13.5 -32l-6 -319q41 -2 81 0t81 10 q20 2 34.5 -9.5t18.5 -27.5t-3 -31.5t-28 -17.5q-47 -8 -93 -10t-91 2q-2 -35 -1 -71t3 -71q41 10 82 21.5t78 23.5q20 8 33.5 -2t17.5 -25.5t-2 -32.5t-27 -24q-41 -16 -86 -28t-92 -23q4 -49 8 -100t13 -100q4 -20 -7.5 -35t-28 -19t-31.5 3.5t-19 27.5q-8 53 -12.5 106.5 t-8.5 106.5q-29 -4 -54.5 -4h-51.5q14 -59 35.5 -114.5t56.5 -108.5q10 -18 4 -33.5t-20.5 -24t-32 -6.5t-29.5 21q-41 66 -66.5 135t-40.5 141q-53 12 -102 35t-90 63q-16 14 -14 31t13 28t28.5 14t33.5 -11q27 -25 56.5 -40t60.5 -26q-4 41 -6 84t-2 84q-41 4 -80 5 t-80 -3q-23 -2 -33 11.5t-10 31zM295 901q2 -45 4 -89t8 -87q29 -4 57.5 -3t59.5 5q-2 41 -3 81t-1 81q-31 4 -62.5 6t-62.5 6z" />
<glyph unicode="$" horiz-adv-x="702" d="M6 735q-10 55 1 97t37 72t63.5 49.5t82.5 29.5q-10 104 -25 207.5t-40 208.5q-6 23 6 38t28.5 19t34 -3t21.5 -28q25 -106 41 -211.5t27 -214.5q49 6 97 7.5t89 3.5q23 0 34 -14.5t11 -33t-11 -33t-34 -14.5h-86t-92 -4q8 -98 10 -197.5t2 -197.5q61 -33 117.5 -66.5 t83.5 -93.5q33 -72 25.5 -124t-41 -90t-88 -61.5t-115.5 -35.5q-4 -96 -9.5 -190.5t-9.5 -192.5q0 -23 -15 -34t-32.5 -11t-32 11.5t-14.5 33.5q4 94 10 187.5t13 185.5q-78 -4 -138 6q-23 4 -30 20.5t-2.5 33t19.5 28.5t38 8q16 -2 47 -3t70 1q4 82 6 163t4 161 q-74 47 -130 120.5t-73 161.5zM97 757q7 -34 24.5 -68t36.5 -60q10 -16 22.5 -29.5t28.5 -24.5q0 78 -2 158t-8 160q-32 -11 -52 -21q-37 -23 -47 -52t-3 -63zM293 139q41 8 78 21.5t58.5 33t22.5 48t-28 67.5q-23 33 -55.5 53.5t-67.5 38.5q-2 -66 -3 -131t-5 -131z" />
<glyph unicode="%" horiz-adv-x="1013" d="M9 1249q-11 49 11 99q18 45 57.5 70.5t80.5 41.5q23 10 37 -3t14 -32q16 16 39.5 14.5t27.5 -30.5q18 -104 -30 -177.5t-154 -96.5q-14 -2 -27.5 1t-21.5 19q-23 45 -34 94zM63 47q63 184 134 366.5t140 366t130 367.5t108 375q6 20 20.5 26t30 1t26 -18t5.5 -32 q-47 -190 -109.5 -375.5t-131 -368t-139.5 -364.5t-134 -366q-6 -18 -22.5 -25.5t-31.5 -3.5t-23.5 17.5t-2.5 33.5zM90 1269.5q4 -22.5 14 -44.5q53 18 79 59t14 105v4q-6 -8 -15 -13q-25 -10 -50.5 -25t-35.5 -40q-10 -23 -6 -45.5zM455 467q-2 37 10 70.5t31.5 64.5 t44 58.5t47.5 52.5q12 14 28.5 12t27.5 -13.5t13 -27.5t-10 -31l-12 -12q-23 -27 -48.5 -57.5t-35.5 -61.5q-8 -14 -10 -28q-2 -10 -2 -8.5t0 -4.5v-18q0 -6 4 -10l2 -2q0 -4 4 -9l6 -6l4 -2l4 -4q2 -2 4 -2t6 -2q2 0 7.5 -2t9.5 -4q4 0 7 -1t7 -1q2 0 7 -1t7 -1h19 q4 0 13 1t1 -1q12 4 19 4l18 6q2 2 8 2h2q4 4 8.5 5t8.5 5q2 2 3 2t3 2l2 2q4 2 5 4.5t5 6.5q0 2 6 8v2q0 2 1 3t1 3v10v2q0 2 -1 3t-1 3q-4 10 -2 7.5t-2 5.5q-16 27 -36.5 46t-45.5 38q-16 12 -14 28.5t13.5 26.5t27.5 13t33 -9q35 -27 67.5 -61.5t40.5 -81.5 q8 -51 -15.5 -87t-63.5 -55.5t-88 -24.5t-89 5q-45 12 -76.5 45t-33.5 82z" />
<glyph unicode="&#x26;" horiz-adv-x="753" d="M0 126q-6 48 10.5 99t47 98.5t57.5 82.5q-31 47 -57.5 96t-43.5 102q-10 35 -12 85t6 102.5t26.5 101.5t48.5 83t72 46t97 -8q72 -25 101.5 -90.5t29.5 -143.5t-23.5 -154.5t-58.5 -121.5q-10 -16 -32.5 -41t-49.5 -53q82 -109 178 -203q16 12 29.5 22.5t24.5 14.5 q16 10 31.5 5t23.5 -18.5t6 -30t-20 -26.5q-8 -6 -16.5 -12t-18.5 -12q23 -23 44 -43.5t44 -43.5q14 -14 12 -30.5t-12 -27.5t-26.5 -13t-31.5 12q-25 23 -50 48.5t-50 47.5q-39 -27 -81 -50t-84 -35.5t-84 -7.5t-83 36q-49 35 -55 83zM76 719q2 -45 20 -92q29 -76 78 -154 q47 53 88 111.5t39 126.5q-2 43 -7 89t-28 83q-147 45 -182 -72q-10 -47 -8 -92zM89 223.5q-26 -57.5 5 -100.5q18 -29 46 -35t59.5 2t65.5 26.5t65 41.5q-45 43 -87 89t-81 93q-47 -59 -73 -116.5z" />
<glyph unicode="'" horiz-adv-x="346" d="M3 1057.5q-7 15.5 1 34.5q35 68 56.5 138t7.5 144q-2 20 9 34.5t26.5 19t28.5 -2t18 -26.5q16 -96 -7.5 -181t-64.5 -167q-8 -18 -24.5 -21.5t-30 4.5t-20.5 23.5z" />
<glyph unicode="(" horiz-adv-x="630" d="M1 804q-5 157 38 299t135 256t242 175q20 8 33.5 -1t17.5 -24.5t-2 -33t-25 -25.5q-131 -53 -210.5 -155.5t-114.5 -230.5t-28 -271.5t49 -276.5t116 -246.5t174 -183.5q18 -12 19 -30.5t-7 -32t-23.5 -18.5t-31.5 7q-117 82 -201 210t-130 276.5t-51 305.5z" />
<glyph unicode=")" horiz-adv-x="610" d="M-3 39.5q-1 14.5 13 26.5q184 152 262 328.5t69 362t-96 368t-235 345.5q-12 14 -10 30t12.5 27t25.5 12t28 -13q158 -174 251 -373t102 -398.5t-74 -391t-279 -353.5q-14 -12 -31 -10t-27 13.5t-11 26z" />
<glyph unicode="*" horiz-adv-x="690" d="M-3 1242q3 11 13 18.5t25 5.5q31 -4 61.5 -6.5t59.5 -4.5q-29 35 -58.5 72t-58.5 70q-10 12 -9 25.5t9 22.5t20.5 10t22.5 -11q35 -39 65.5 -78t63.5 -80q-4 53 -5 105.5t-7 105.5q-2 14 6 24.5t19.5 13.5t21.5 -1t14 -18q10 -96 12 -189q29 35 58.5 66.5t60.5 66.5 q8 12 20.5 11t20.5 -9t10 -21.5t-8 -25.5q-33 -39 -66.5 -75.5t-66.5 -75.5q43 4 88 10t90 10q16 2 24.5 -7t8.5 -20.5t-8 -22.5t-25 -13q-47 -6 -93 -11.5t-93 -11.5q35 -33 72.5 -63.5t80.5 -55.5q12 -6 14.5 -18t-3.5 -23.5t-18.5 -16.5t-26.5 3q-68 43 -127 96 q6 -41 15 -81t26 -81q4 -14 -2.5 -23t-17.5 -12t-23.5 1t-18.5 18q-23 55 -33 113.5t-14 115.5q-35 -35 -67.5 -71.5t-67.5 -71.5q-10 -10 -22.5 -8t-20.5 10t-9 20.5t9 22.5q29 31 56.5 60.5t56.5 58.5q-35 2 -68 4t-68 10q-14 2 -18 13.5t-1 22.5z" />
<glyph unicode="+" horiz-adv-x="950" d="M2 803.5q0 15.5 10.5 29t30.5 13.5q70 0 138.5 -2t137.5 2q-6 68 -12 135.5t-16 134.5q-2 20 10 29.5t27.5 9.5t30 -10.5t16.5 -28.5q10 -66 16 -132l12 -132q74 6 146 24.5t139 53.5q18 8 34.5 2t25 -19.5t6.5 -30t-21 -26.5q-78 -41 -158.5 -59.5t-164.5 -26.5 q4 -59 6 -116.5t2 -116.5q0 -20 -13.5 -30.5t-29 -10.5t-28.5 10t-13 31q0 57 -2 114.5t-6 112.5q-72 -4 -141.5 -3t-141.5 1q-20 0 -30.5 13t-10.5 28.5z" />
<glyph unicode="," horiz-adv-x="366" d="M-63.5 -282.5q-4.5 16.5 2 34t26.5 23.5q39 12 67.5 42.5t41 68.5t2.5 76t-49 65q-18 12 -19.5 30.5t7 32.5t23.5 20.5t34 -6.5q63 -43 83.5 -105t5 -123.5t-60.5 -114t-110 -74.5q-20 -6 -34.5 4t-19 26.5z" />
<glyph unicode="-" d="M6 815q0 14 10.5 26.5t28.5 12.5q154 -4 307.5 -18.5t309.5 -1.5q18 0 27 -11.5t9 -26t-9 -27.5t-27 -13q-156 -12 -309.5 2t-307.5 18q-18 0 -28.5 12.5t-10.5 26.5z" />
<glyph unicode="." horiz-adv-x="354" d="M-2 55q0 23 10 47q6 12 4 23q-6 12 3.5 25.5t19.5 17.5q33 6 43 -25q4 -6 4 -16q16 6 33.5 0t19.5 -29v2q4 -12 8 -18l4.5 -13.5t2.5 -15.5q-2 -23 -17.5 -39t-38.5 -20q-16 -4 -37.5 -6t-33.5 10q-10 10 -16.5 26.5t-8.5 30.5zM70 59h8q-2 0 -4 11q0 2 -2 4 q-2 -4 -2 -15z" />
<glyph unicode="/" horiz-adv-x="575" d="M8 49q98 358 169 717.5t112 728.5q2 20 17.5 31.5t31.5 11.5t28.5 -11t10.5 -32q-41 -373 -114 -738.5t-171 -727.5q-6 -23 -21.5 -29t-31.5 -2t-26.5 17.5t-4.5 33.5z" />
<glyph unicode="0" horiz-adv-x="856" d="M7 752.5q9 119.5 35 227t64.5 195t88.5 138.5q14 14 32.5 12t29.5 -13.5t13 -29.5t-12 -33q-61 -61 -97 -149t-53.5 -184.5t-17.5 -193.5t10 -179q6 -47 15.5 -100.5t26 -103.5t41 -96t63.5 -79q39 -35 84 -52.5t86 -13.5t72.5 33t43.5 88q29 121 23 279.5t-44 317.5 t-106.5 300t-162.5 230q-16 14 -14.5 31.5t14 29.5t30 14t33.5 -12q76 -72 131.5 -170t93 -206.5t61 -221.5t36.5 -211q4 -37 10 -92t7 -117.5t-6 -125t-26.5 -116t-54.5 -91.5t-92 -48q-111 -20 -193 13.5t-137 105.5t-86 173t-41 216t-1 234.5z" />
<glyph unicode="1" horiz-adv-x="673" d="M-49 1099.5q2 14.5 16 24.5q168 84 217 269q10 29 39 25.5t33 -34.5q16 -293 29.5 -581.5t3.5 -581.5q-2 -76 -25 -123q45 4 89 10.5t87 12.5q18 2 29.5 -7.5t15.5 -22.5t-1 -25.5t-23 -14.5q-70 -10 -136.5 -19t-136.5 -20q-55 -25 -163 -20q-14 0 -23.5 10t-11.5 22.5 t3 23.5t21 15q18 2 37 4.5t39 6.5q49 14 79 53t44 91t17 114.5t0 124t-8 119t-7 98.5q-10 283 -25 565q-35 -53 -79 -96t-107 -82q-14 -10 -27.5 -4t-20.5 17t-5 25.5z" />
<glyph unicode="2" horiz-adv-x="927" d="M-0.5 40.5q-7.5 20.5 2.5 39.5q45 82 99.5 159.5t107.5 155.5t104.5 158t94.5 164q25 51 49 107.5t39.5 115.5t16.5 119.5t-21 118.5q-29 74 -77 116.5t-98.5 48t-97.5 -31.5t-74 -125q-6 -20 -22.5 -26.5t-31.5 -1.5t-24.5 18.5t-3.5 31.5q33 106 106 164t151.5 59 t149.5 -56.5t101 -176.5q27 -102 17 -201.5t-44 -194.5t-88.5 -187.5t-114.5 -181.5t-121.5 -175t-113.5 -168q72 -8 145 -8t144.5 3t144 7t146.5 6q20 0 29.5 -12t9.5 -27.5t-9 -29t-30 -13.5q-166 -4 -329.5 -14.5t-329.5 14.5q-20 4 -27.5 24.5z" />
<glyph unicode="3" horiz-adv-x="765" d="M-20.5 1319q2.5 16 18.5 27q51 35 120.5 61.5t135 25.5t117 -37t67.5 -124q14 -78 2 -148.5t-43.5 -132t-81 -114t-108.5 -93.5q80 -29 152.5 -74.5t127 -108t81 -139.5t14.5 -167q-16 -106 -70.5 -169t-132.5 -93.5t-170 -31.5t-180 15q-18 2 -24.5 16.5t-2.5 29 t16.5 24.5t30.5 8q78 -14 168 -8t163 41t109.5 102.5t6.5 173.5q-23 72 -62 127.5t-91 95.5t-115.5 65.5t-133.5 39.5q-12 2 -20 12.5t-9.5 21.5t3 22.5t16.5 17.5q51 27 103.5 65.5t93.5 87t65.5 105.5t20.5 123q-4 80 -38 116.5t-81 42t-103.5 -15t-105.5 -53.5 q-16 -12 -30.5 -6t-23 19.5t-6 29.5z" />
<glyph unicode="4" horiz-adv-x="757" d="M4.5 894.5q-6.5 18.5 1.5 35.5q31 66 71 125t82 117.5t84 116t76 120.5q10 14 23.5 17.5t25 -2t17.5 -18.5t4 -28q-16 -121 -31.5 -239.5t-25.5 -239.5q59 4 114 13.5t82 15.5q18 2 31.5 -8.5t18 -23.5t-2 -27.5t-24.5 -16.5q-59 -10 -114.5 -16.5t-110.5 -4.5 q-16 -199 -18.5 -397t24.5 -399q2 -18 -9.5 -27.5t-25.5 -9.5t-28.5 9t-16.5 28q-27 203 -25 402.5t19 398.5q-109 8 -215 36q-20 4 -26.5 22.5zM127 967.5q0 -25.5 15.5 -41t45 -21.5t64.5 -8q8 84 18.5 166t20.5 164q-35 -47 -71.5 -95.5t-69.5 -101.5q-23 -37 -23 -62.5z " />
<glyph unicode="5" horiz-adv-x="749" d="M-12 1389q-2 16 12 29.5t31 13.5q147 0 286.5 -9.5t284.5 -38.5q20 -4 26.5 -19t1.5 -31.5t-18.5 -27t-33.5 -6.5q-113 23 -225.5 33t-229.5 10q-33 0 -42 -31.5t-7 -72.5t9 -79t9 -52q12 -121 21.5 -239.5t7.5 -241.5q100 49 175 38.5t122 -59.5t68.5 -124.5 t15.5 -156.5t-39 -155t-91.5 -120t-144.5 -52t-196 51q-18 8 -20.5 25.5t6 31t24.5 20.5t35 -3q84 -41 147.5 -35t107.5 44t68.5 96.5t27.5 119t-15.5 115.5t-59.5 85t-104.5 25.5t-149.5 -59.5q-20 -14 -43.5 -1t-21.5 38q6 104 0 208.5t-15.5 209t-18.5 210t-11 210.5z " />
<glyph unicode="6" horiz-adv-x="788" d="M1 279.5q-13 93.5 4.5 202t55 221t91 223t112 207t116.5 172t105 116.5q14 14 30.5 11.5t28 -13t13.5 -27t-12 -30.5q-76 -66 -140.5 -156t-118 -191.5t-93 -209t-64.5 -209.5l4 4q104 51 183 46t132.5 -47t83 -110.5t33.5 -144.5t-16.5 -149.5t-64.5 -125t-111.5 -71 t-159.5 13.5q-96 35 -147.5 104.5t-64.5 163zM90 333q0 -40 7 -79t26 -70q25 -41 72 -67.5t98 -32.5t97 13.5t71 70.5t30 106.5t-5.5 105.5t-37 90t-66.5 63.5t-92 23.5t-114 -31q-18 -10 -33.5 -3t-25.5 22q-2 -14 -4.5 -29t-6.5 -31q-6 -33 -11 -72.5t-5 -79.5z" />
<glyph unicode="7" horiz-adv-x="655" d="M2 1293.5q-4 13.5 1 27.5t24 18q96 29 190 50.5t191 50.5q16 4 31.5 -7.5t15.5 -29.5q2 -174 -21.5 -344t-57.5 -339t-69 -338t-53 -341q-2 -18 -15.5 -26.5t-26.5 -8.5t-24.5 8.5t-9.5 26.5q23 213 69 417t85 412q0 6 6 45t12 93.5t13.5 115t9.5 111.5t-2 83t-17 28 q-78 -20 -154.5 -37.5t-152.5 -40.5q-18 -6 -29.5 3t-15.5 22.5z" />
<glyph unicode="8" horiz-adv-x="788" d="M2 408.5q6 80.5 39 159.5t90 153q23 29 47.5 59.5t46.5 61.5q-55 45 -97 113.5t-59.5 145.5t0 150.5t83.5 128.5q49 41 107 49.5t108.5 -12t87.5 -65.5t47 -111q8 -49 -2.5 -97t-32 -96.5t-53 -94.5t-66.5 -91q59 -72 117.5 -147.5t96.5 -157.5t48.5 -171t-26.5 -183 q-27 -68 -86.5 -120t-129 -74.5t-140.5 -7.5t-122 83q-59 80 -84.5 162t-19.5 162.5zM84 465.5q-16 -72.5 6 -158.5q8 -39 22.5 -72.5t32.5 -68.5q272 -190 381 115q12 76 -4 144.5t-50 133t-80 124t-93 114.5q-43 -51 -83 -98.5t-69 -90.5q-47 -70 -63 -142.5zM160 1235 q-37 -166 59 -281q12 10 26.5 13.5t28.5 -13.5q4 -8 9.5 -13t9.5 -11q29 41 53.5 82t42.5 84q39 76 31 161q-205 175 -260 -22z" />
<glyph unicode="9" horiz-adv-x="761" d="M4 1130q-14 78 9.5 137.5t68.5 98.5t107.5 55.5t124 8t117.5 -43t91 -98.5q6 -12 4 -22.5t-6 -18.5q6 -10 6 -22q16 -301 1 -598t-64 -596q-4 -18 -17.5 -24.5t-28 -2.5t-24.5 16.5t-8 30.5q45 260 59.5 517t8.5 519q-53 -68 -121 -112.5t-133.5 -48.5t-118.5 41.5 t-76 162.5zM111 1266q-111 -240 163 -244q61 41 104.5 92t70.5 123q2 2 3 4t3 4v4q-27 47 -73 78t-96 38t-98.5 -15.5t-76.5 -83.5z" />
<glyph unicode=":" horiz-adv-x="395" d="M-8 723q2 33 19.5 59.5t39.5 48.5q12 12 33 9q12 2 25.5 -5.5t13.5 -25.5q2 -20 10 -40.5t0 -43.5q-12 -33 -47 -36t-63 1q-10 4 -21.5 11.5t-9.5 21.5zM10 84q0 18 7.5 36.5t7.5 37.5q4 20 20 26q-4 14 3 24.5t18.5 13.5t23.5 -2t16 -19q6 -25 22.5 -44.5t23.5 -43.5 q6 -31 -5.5 -53.5t-31.5 -45.5q-16 -16 -39 -4q-23 10 -44.5 27.5t-21.5 46.5zM66 752h4v4zM76 94q-2 -8 6 -16q10 14 -2 33q0 -4 -4 -17z" />
<glyph unicode=";" horiz-adv-x="374" d="M6 -243.5q-4 12.5 6 24.5q66 86 69 184t-36 197q-6 14 1 24.5t20.5 13.5t26.5 -2t20 -20q43 -106 37 -222t-78 -210q-10 -12 -24.5 -13t-26 5t-15.5 18.5zM8 709q4 16 8 27.5t7 27.5q0 23 18 30t33 -1q16 8 34.5 0.5t20.5 -29.5q0 -20 5 -36.5t1 -37.5q-4 -23 -21 -40 t-40 -27q-12 -8 -25.5 -4t-21.5 16q-10 16 -17.5 34.5t-1.5 39.5z" />
<glyph unicode="&#x3c;" horiz-adv-x="729" d="M8 589.5q-2 26.5 17 45.5q76 82 128.5 176t118.5 184q14 20 37 23.5t40.5 -7t24.5 -29.5t-9 -40q-57 -82 -107.5 -166t-112.5 -162q80 -41 161 -78.5t169 -60.5q27 -6 35 -24.5t3 -38t-22.5 -32.5t-41.5 -7q-113 27 -212.5 77t-201.5 99q-25 14 -27 40.5z" />
<glyph unicode="=" horiz-adv-x="907" d="M0 951.5q0 19.5 13.5 36t37.5 16.5q139 0 277.5 3t275.5 23q25 4 42.5 -10t22.5 -32.5t-3.5 -37t-32.5 -20.5q-147 -23 -290.5 -27t-291.5 -4q-25 0 -38 16.5t-13 36zM30 633.5q-5 19.5 3 37t33 21.5q139 23 276 27t276 4q25 0 38.5 -16.5t13.5 -37t-13.5 -37 t-38.5 -16.5q-131 0 -263 -3t-261 -23q-25 -4 -42 10t-22 33.5z" />
<glyph unicode="&#x3e;" horiz-adv-x="749" d="M11 451.5q3 21.5 28 33.5q86 45 168 96.5t162 104.5q-72 59 -143.5 117.5t-155.5 105.5q-25 12 -28 34t8 40t32.5 27.5t46.5 -4.5q102 -53 188 -128t179 -147q27 -20 27.5 -50t-27.5 -48q-98 -66 -197 -129.5t-203 -116.5q-25 -12 -46 -3t-31.5 27.5t-7.5 40z" />
<glyph unicode="?" horiz-adv-x="753" d="M15.5 1274q-7.5 14 2.5 31q43 88 120 119.5t157 15t147.5 -72.5t94.5 -142q33 -111 9 -205t-84.5 -170t-149.5 -132t-183 -89q39 -76 61.5 -153t26.5 -165q2 -18 -10 -28.5t-26.5 -10.5t-28 10.5t-13.5 28.5q-6 92 -30.5 167t-71.5 153q-10 16 -2 34.5t26 24.5 q59 16 126 46t126.5 72t102.5 97.5t55 122.5q10 53 -4 111.5t-46 106.5t-76 83t-90 43t-91 -15t-80 -91q-8 -16 -22.5 -18.5t-26.5 5t-19.5 21.5zM133 68q0 20 7 36.5t7 34.5q4 20 19 25q-4 14 3 23.5t18.5 12.5t22.5 -1t15 -19q6 -25 20.5 -43t20.5 -41q6 -29 -4 -51 t-29 -43q-13 -14 -36 -4t-43.5 26.5t-20.5 43.5zM197 80q0 -11 6 -17q10 10 -2 31q-4 -12 -4 -14z" />
<glyph unicode="@" horiz-adv-x="1103" d="M11.5 641q15.5 98 72.5 184t160 142q76 39 159.5 52t163.5 0t150.5 -51t119 -97.5t68 -140.5t-3.5 -179q-10 -43 -29.5 -87t-49 -78t-69.5 -53.5t-91 -15.5q-33 4 -56.5 18.5t-40.5 33.5q-31 -31 -80 -40.5t-116 21.5q-70 33 -92.5 77t-9 87t55.5 80t101 59q20 8 34.5 -3 t18.5 -27.5t-3.5 -35t-27.5 -24.5q-31 -10 -54 -27.5t-30.5 -36t6 -37t56.5 -30.5q41 -14 63.5 -2t32.5 39q-10 35 -10 72t4 67q2 18 14.5 30.5t27.5 15.5t29.5 -5t20.5 -28q10 -37 10 -75t-6 -73q10 -29 27 -43q20 -16 41.5 -17t41 9t35 27.5t25.5 35.5q25 51 32 110.5 t-5 116t-44 104.5t-87 77q-76 41 -166 43t-173 -30t-146.5 -94t-84.5 -153q-14 -63 -10 -128.5t25.5 -126t59.5 -113.5t87 -92q129 -104 270.5 -98.5t272.5 98.5q18 12 34.5 6t26 -21.5t7.5 -35t-21 -31.5q-94 -66 -199.5 -91.5t-208 -10t-194.5 73.5t-158 159 q-57 90 -79.5 192.5t-7 200.5z" />
<glyph unicode="A" horiz-adv-x="1021" d="M12 827q-1 32 -1 64q1 91 9 175q12 114 47 199t95 133q52 41 129 41q13 0 26 -1q92 -6 156 -63.5t103.5 -146.5t61 -204t30.5 -238q23 10 45 21.5t45 23.5q20 12 37.5 6t26.5 -21q7 -11 7 -24q0 -4 -1 -10q-3 -18 -21 -28q-35 -20 -66.5 -36t-66.5 -30q1 -51 1 -101 q0 -49 -1 -99q-2 -98 -6 -186.5t-8.5 -160t-4.5 -118.5q0 -23 -15 -35.5t-31.5 -12.5t-31 12.5t-14.5 35.5q2 154 3 308v62q0 125 -3 260q-101 -27 -203 -34q-65 -4 -131 -4q-38 0 -77 1q8 -92 22 -178t30.5 -159.5t35 -128t36.5 -80.5q12 -18 7.5 -35t-20 -26t-35 -7 t-31.5 21q-29 41 -60 124.5t-57.5 193.5t-45 235.5t-22.5 250.5zM140 977q-2 -50 -2 -100q0 -81 5 -166q47 -3 92 -2q61 0 121 4q104 8 205 37q-4 78 -11 167t-26.5 171.5t-54.5 147t-92 93.5q-39 19 -71 19q-33 0 -58 -20q-49 -40 -76 -131t-32 -220z" />
<glyph unicode="B" horiz-adv-x="1040" d="M-90 1274q2 14 20 24q20 10 40 17.5t40 17.5q-10 33 -15 62.5t-15 60.5q-6 20 4 34.5t26 18.5q6 2 12 2q9 0 19 -4q16 -6 22 -26q8 -31 14.5 -61.5t14.5 -59.5q94 27 196 34q21 1 41 2q79 0 149 -22q87 -28 151.5 -95t83.5 -187q6 -40 6 -78q1 -58 -13 -108 q-22 -84 -75 -146q47 -4 88 -18.5t69 -41.5q28 -28 44 -70q14 -37 14 -89v-13q-4 -96 -36 -167.5t-83 -124t-118.5 -90t-143.5 -63.5t-158 -44.5t-162 -34.5q-5 -1 -10 -1q-20 -1 -31 13q-14 16 -10 41q27 199 27 399q-1 100 -7 200q-20 300 -85 593q-14 -6 -22.5 -12 t-31.5 -12q-18 -4 -35 3q-16 8 -24 20q-6 10 -6 20v6zM111 1280q33 -150 54 -301.5t32 -306.5l8 8q51 23 129 45.5t160 32.5q86 53 127 141q20 42 20 92q0 53 -23 115q-31 86 -86 133q-56 47 -124 65q-47 12 -98 12q-24 0 -48 -3q-78 -8 -151 -33zM184 100q61 10 130 23.5 t133.5 34t122 51.5t98.5 76q48 51 72 121q18 52 18 101q0 15 -2 31q-8 64 -54 106q-42 38 -123 38h-16h-20q-127 -82 -302 -82h-16q-12 0 -26 10q4 -86 4 -171q0 -43 -1 -85q-3 -127 -18 -254z" />
<glyph unicode="C" horiz-adv-x="1202" d="M25 586q-14 84 -14 162q0 119 32 226q53 177 203 316q57 55 128 90q72 36 146 44q19 2 38 1q54 0 106 -17q70 -24 131 -87q16 -18 13 -38.5t-16.5 -34t-33 -16.5t-35.5 13q-61 66 -137 73q-14 1 -28 1q-62 -1 -122 -25q-74 -30 -138.5 -88.5t-102.5 -124.5 q-77 -123 -89 -268q-3 -29 -2 -59q0 -115 39 -226q53 -147 147 -246q92 -98 202 -130q48 -14 97 -15q63 0 128 24q115 42 213 175q14 18 33.5 16t33 -16t16.5 -34q1 -3 1 -7q0 -17 -13 -35q-57 -74 -122.5 -129t-139 -84t-154.5 -29t-167 37q-74 29 -137.5 85.5t-114.5 128 t-88 153.5t-53 164z" />
<glyph unicode="D" horiz-adv-x="1091" d="M-140 1306q3 18 21 29q55 33 117.5 51.5t130.5 22.5q2 0 5 2q1 1 2 1q2 0 5 -3q23 2 46 2q100 -1 199 -29q122 -34 224.5 -105t174 -172t94.5 -226q10 -60 10 -115q1 -112 -39 -204q-58 -138 -170.5 -242.5t-259 -180.5t-291.5 -131q-8 -3 -16 -3q-15 0 -25 13 q-16 20 -12 43q25 137 25 273q-1 20 -1 42q-4 158 -14 316t-16 314q-1 32 -2 65q0 124 20 248q-41 -8 -82 -23.5t-82 -38.5q-18 -10 -34.5 -2.5t-24.5 21.5q-6 10 -6 22q0 5 1 10zM154 1027q4 -150 15 -303q11 -152 17 -304q2 -39 2 -78q0 -113 -14 -225q100 41 213 97 t207 132t154 171q55 86 56 194q0 11 -1 22q-6 123 -59.5 231.5t-139.5 190.5t-196.5 128t-227.5 46q-26 -136 -26 -270v-32z" />
<glyph unicode="E" horiz-adv-x="907" d="M16 66q4 131 29 259t43 257q2 10 5 26.5t7 32.5q-12 4 -20 10q-16 8 -18.5 23.5t5 29t20.5 19.5t30 0q12 61 22.5 133t11.5 138v13q-1 59 -9 108q-10 54 -38 85q-12 0 -23 7t-17.5 16.5t-4.5 20.5t15 22q130 104 286 134q99 19 201 19q57 0 115 -6q20 -2 29.5 -16.5 t9.5 -29.5t-9.5 -27.5t-29.5 -10.5q-57 5 -115 5l-143 -8q-129 -15 -240 -85q38 -47 48 -117q7 -46 6 -93q0 -25 -2 -51q-6 -75 -17.5 -144.5t-17.5 -116.5q-4 -6 -5 -10q18 -2 37 -2t38 2q38 4 63 4q68 4 136 9t134 28q18 6 31.5 -4.5t18.5 -25.5t-1 -29.5t-26 -20.5 q-76 -23 -158 -30t-160 -9q-27 0 -59 -3q-14 -1 -27 -1q-19 0 -39 2q-14 -92 -28.5 -183.5t-26.5 -183.5q-6 -41 -15.5 -74.5t-7.5 -55.5q2 -24 22 -34q14 -8 46 -7q12 0 27 1q92 6 173 26.5t167 55.5q18 6 30.5 -2t16.5 -23.5t-2.5 -32t-24.5 -22.5q-129 -54 -251 -74 q-51 -8 -103 -8q-75 0 -154 17q-14 2 -22.5 14t-8.5 23z" />
<glyph unicode="F" horiz-adv-x="868" d="M15 574q3 96 12 192q-10 12 -9.5 30.5t15.5 28.5q10 123 24.5 244t22.5 238q-18 10 -18.5 35.5t22.5 35.5v48.5t-4 46.5q0 20 13 29t28.5 9t29 -9t13.5 -29v-89q117 4 231.5 16.5t229.5 24.5q18 2 28.5 -9t10.5 -26.5t-10.5 -29.5t-28.5 -17q-117 -14 -231.5 -24 t-233.5 -14q-6 -115 -20.5 -234t-28.5 -242q65 -9 130 -9h13q70 1 141 16q18 4 31.5 -6.5t18 -26t-2 -29.5t-26.5 -18q-78 -14 -157 -16h-19q-69 0 -138 10q-6 -90 -8 -180q0 -20 -1 -40q0 -70 6 -137q7 -86 26.5 -166t54.5 -153q8 -18 1 -32q-7 -16 -21 -24q-10 -6 -20 -6 q-4 0 -8 1q-15 3 -23 22q-39 80 -61 168q-20 88 -28 181q-5 66 -6 135q0 27 1 55z" />
<glyph unicode="G" horiz-adv-x="983" d="M23 578q6 78 26.5 189.5t57 225t90 217t127 162t166.5 59.5h2q91 0 204 -88q18 -12 16.5 -29.5t-13 -29.5t-30 -15t-34.5 11q-78 61 -143 61q-5 0 -10 -1q-70 -5 -125.5 -56t-97.5 -135t-70.5 -176t-46 -179t-21.5 -143q-6 -59 -9 -123q-1 -18 -1 -36q0 -46 6 -92 q8 -62 31.5 -119.5t70.5 -104.5q55 -55 109 -68q23 -5 44 -5q29 0 56 9q47 17 87 58t73 93t56.5 110.5t35.5 111.5q-53 4 -108 7h-23q-43 0 -86 -7q-20 -4 -34.5 8.5t-20 29t2 30.5t29.5 18q57 8 113 8q17 0 33 -1q73 -3 151 -7q23 0 35 -15q9 -11 9 -27q0 -5 -1 -11 q-12 -74 -50 -172t-97.5 -181t-140.5 -129q-49 -28 -104 -28q-37 0 -77 12q-90 27 -149.5 86.5t-92 137.5t-43.5 165q-6 52 -6 103q0 33 3 66z" />
<glyph unicode="H" horiz-adv-x="907" d="M14 53q12 172 29.5 344t29 345t11.5 345.5t-25 344.5q-1 20 11 30q11 9 24 10h4q16 -2 30.5 -12t18.5 -28q21 -173 21 -346v-30q-2 -188 -16 -376q39 -2 78 -3q71 0 140 8q107 11 216 15q1 51 1 101q-1 120 -7 238q-10 167 -43 337q-4 18 7 31.5t26.5 19t29.5 -2 t18 -27.5q36 -174 46 -346q9 -144 8 -290v-56q18 0 27.5 -13.5t9.5 -29t-10.5 -27.5t-30.5 -12q-4 -127 -11 -252t-16 -250q0 -20 -14.5 -30.5t-29.5 -10.5t-27.5 10t-12.5 31q8 123 15.5 247t11.5 248q-110 -8 -218 -18q-60 -6 -121 -6q-49 0 -98 4q-12 -135 -25.5 -270.5 t-23.5 -272.5q0 -20 -14 -30.5t-29.5 -10.5t-28 10.5t-12.5 30.5z" />
<glyph unicode="I" horiz-adv-x="796" d="M14 80q-1 4 0 7q0 11 6 23q8 14 25 20.5t37 -1.5q50 -27 106 -31q16 -1 32 -1q41 0 83 7q-35 100 -46 202q-10 94 -10 187v17q1 102 8 206t12 206q2 51 3 102q0 50 -3 102q-5 102 -29 203q-47 0 -91.5 1t-87.5 7q-23 2 -33 17.5t-10 32t10.5 28.5t32.5 10q47 -6 95.5 -7 t95.5 -1q23 12 39 2q59 4 114.5 11.5t112.5 17.5h6q16 0 28 -10q14 -12 18.5 -27.5t-2.5 -31t-27 -17.5q-53 -10 -106.5 -16.5t-106.5 -10.5q28 -125 28 -252q0 -25 -2 -50q-6 -152 -17 -305q-8 -112 -8 -224q0 -40 1 -80q4 -152 59 -297q41 10 79 24.5t73 30.5 q20 6 33.5 -3t17.5 -25q2 -7 2 -14q0 -10 -4 -20q-6 -16 -25 -24q-41 -18 -84 -32.5t-88 -26.5q-20 -20 -47 -10q-67 -14 -136 -14q-11 1 -22 1q-80 2 -151 39q-19 11 -21 27z" />
<glyph unicode="J" horiz-adv-x="784" d="M8 207v5q0 14 10 22q11 10 26 10t27.5 -9.5t14.5 -27.5q6 -80 44 -109q33 -24 74 -24h11q47 4 93 29.5t71 54.5q47 55 66.5 129.5t23.5 142.5q1 35 1 70q0 60 -4 120q-7 95 -24 189q-29 147 -67.5 288.5t-79.5 282.5q-6 18 3 29.5t22 16.5q7 2 13 2q7 0 15 -4 q14 -5 21 -23q25 -86 55.5 -184.5t59 -204t50 -214t26.5 -214.5q1 -29 1 -56q0 -77 -10 -152q-14 -100 -59 -186q-43 -84 -120 -134t-154 -55h-14q-69 0 -124 43q-60 48 -72 163z" />
<glyph unicode="K" horiz-adv-x="907" d="M6 47q2 168 14.5 336t21.5 337t9 337t-22 336q-2 20 10 30.5t28.5 10.5t31 -10.5t18.5 -30.5q16 -141 18 -283q1 -47 1 -94q0 -94 -3 -189q35 86 84 170t104.5 164t110.5 156t105 143q11 16 29 18q4 1 8 1q13 -1 23 -7q13 -8 19.5 -22t-6.5 -31q-109 -156 -215 -317.5 t-182 -335.5q-45 -106 -46 -189v-5q-1 -80 29 -146q30 -68 87 -122t126.5 -101t147.5 -92.5t152 -94.5q16 -12 18 -30v-6q0 -13 -6 -24q-9 -14 -23 -20q-5 -2 -10 -2q-9 0 -20 7q-76 49 -160 97t-161 100t-140.5 113.5t-98.5 139.5q-6 -86 -10 -172l-8 -172 q0 -20 -13.5 -30.5t-29.5 -10.5t-28.5 10.5t-12.5 30.5z" />
<glyph unicode="L" horiz-adv-x="677" d="M12 768q2 139 9.5 263t14.5 219.5t7 140.5q0 20 13.5 29.5t28.5 9.5t26.5 -9.5t11.5 -29.5q-3 -175 -19 -349q-14 -155 -14 -310v-40q0 -47 2 -120.5t10.5 -152.5t26.5 -152.5t53 -120.5q36 -48 90 -57q8 -1 17 -2q49 0 117 42q14 10 28 5q15 -4 23 -18q6 -11 6 -23v-6 q-2 -15 -19 -26q-97 -61 -167 -61q-11 0 -21 2q-76 10 -125 76.5t-75 177.5t-36 242q-9 110 -8 226v44z" />
<glyph unicode="M" horiz-adv-x="1359" d="M4 49v37q0 4 1 5t1 5q4 166 29.5 328t61.5 322.5t76 321.5t73 323q2 14 12 21t24 9q4 1 7 1l19 -4q14 -5 20 -17q57 -102 91 -213t61.5 -222.5t55 -224t70.5 -221.5q55 98 96 203.5t75 213t66.5 215.5t69.5 214q6 14 19.5 22.5t28 9.5t25.5 -6.5t15 -25.5 q25 -182 41.5 -365.5t33 -365.5t37 -364.5t54.5 -362.5q1 -6 1 -12q0 -15 -8 -24q-10 -12 -26 -18q-7 -2 -14 -3q-8 1 -18 5q-16 8 -21 27q-59 315 -83.5 633t-59.5 635q-31 -98 -59.5 -195.5t-63.5 -192.5t-78 -186.5t-100 -177.5q-12 -20 -39 -22t-37 22 q-49 100 -78.5 207t-55.5 214.5t-53.5 213t-68.5 207.5q-33 -147 -69.5 -294.5t-68.5 -296t-52.5 -298t-20.5 -303.5q0 -23 -14 -33t-30.5 -10t-31 10.5t-14.5 32.5z" />
<glyph unicode="N" horiz-adv-x="985" d="M8 47q-2 47 -2 94q0 121 12 242q16 168 37 334t43.5 333t34.5 334q2 18 12.5 29.5t24.5 15t28.5 -2t24.5 -19.5q78 -117 140.5 -242t114.5 -255t97.5 -264t90.5 -267q-2 260 -19.5 515t-34.5 515q-2 23 12.5 34t32 11t33 -11t17.5 -34q10 -160 22 -321.5t20.5 -322.5 t11.5 -323q1 -54 1 -107q0 -108 -4 -216q-2 -18 -14.5 -29.5t-28 -12.5t-30.5 6.5t-21 25.5q-53 141 -101.5 285.5t-100.5 288.5t-111.5 284.5t-135.5 273.5q-16 -150 -37.5 -298t-39.5 -297q-18 -150 -30 -300q-8 -98 -8 -196q0 -51 2 -103q0 -23 -14 -34t-31.5 -11 t-33 11.5t-15.5 33.5z" />
<glyph unicode="O" horiz-adv-x="937" d="M6 666q6 122 22.5 235t39 207t49.5 154q-14 18 -2 38q43 92 96 122q37 21 74 20q17 0 33 -4q54 -14 108.5 -61.5t101.5 -109t84 -127t58 -116.5q50 -126 64 -270q4 -44 5 -87q0 -98 -22 -192q-31 -135 -108 -248.5t-208 -181.5q-82 -43 -143 -43q-14 0 -28 2 q-70 12 -117 69.5t-73 151.5t-33 207q-4 61 -4 124q0 54 3 110zM71 524v-12q0 -78 11 -156q12 -84 43 -153.5t94 -96.5q29 -13 60 -13q23 0 47 7q56 17 105.5 51.5t89.5 82t59 88.5q50 118 68 246q7 53 8 105q0 75 -15 148q-6 33 -29.5 96.5t-58.5 136t-78 140.5t-89 110 t-92 46h-6q-43 0 -79 -54q4 -8 5 -18t-7 -21q-41 -63 -65.5 -136.5t-40 -151.5t-21.5 -155.5t-8 -151.5q0 -54 -1 -138z" />
<glyph unicode="P" horiz-adv-x="776" d="M-56 1346q-2 7 -2 15q0 9 3 17q6 16 26 23l43 12q-2 6 -2 13.5t-2 13.5q-4 20 6.5 33.5t25.5 18.5q6 2 12 2q10 0 18 -4q14 -7 18 -28q2 -8 3 -14t3 -14q63 11 125 11q27 0 55 -2q90 -7 164 -59q66 -44 107 -114q37 -64 37 -138v-14q-4 -78 -42 -150.5t-110 -113.5 q-66 -37 -138 -39h-14q-64 0 -126 16v-76q0 -161 -6 -319q-8 -196 -11 -397q0 -20 -13 -30.5t-28.5 -10.5t-29 10t-13.5 31q5 209 13 413q6 138 5 278q0 66 -1 132q-12 4 -17 6q-16 6 -20 17.5t-1 24t13 21.5t23 13q-4 96 -13.5 192.5t-23.5 192.5q-18 -2 -37 -10 q-18 -6 -31.5 2.5t-18.5 24.5zM111 1348q16 -109 26.5 -215.5t14.5 -212.5q60 -20 126 -22q3 0 6 1q62 0 113 35q49 33 76 86q25 49 25 100v8q-4 80 -40 127.5t-92 70.5q-54 24 -122 27q-18 1 -37 1q-49 0 -96 -6z" />
<glyph unicode="Q" horiz-adv-x="942" d="M15 578q-2 44 -2 89q0 77 5 155q9 124 26 234.5t42 196.5t51 133q10 18 27.5 20.5t33 -5.5t21.5 -25.5t-4 -36.5q-39 -66 -61.5 -141.5t-32.5 -155t-13 -160.5q-1 -37 -1 -72q0 -43 2 -83q2 -57 5 -148.5t18 -183.5t49 -170t98 -110q47 -25 87 -25q26 0 50 10 q-23 47 -44.5 94.5t-43.5 94.5q-10 18 -2 35.5t22 25.5t30.5 5t27.5 -21q23 -45 42 -89t41 -89q39 49 68 119.5t46.5 144.5t24.5 139.5t7 102.5q0 47 -3 119.5t-13.5 153.5t-30 164t-52 150.5t-79.5 112.5t-115 51q-20 2 -31.5 17.5t-11.5 32t10 29.5q9 11 27 11h6 q78 -8 134 -48t98 -102.5t69 -139t43 -156.5t24.5 -155t10.5 -134q2 -43 2 -94q0 -37 -1 -79q-3 -97 -22.5 -194.5t-60.5 -184.5t-113 -140q33 -76 68 -148.5t74 -144.5q10 -18 4 -34.5t-20 -24.5q-12 -7 -26 -7h-6q-18 2 -28 21q-41 72 -76 145.5t-70 147.5 q-33 -10 -63 -17q-27 -4 -52 -4q-63 0 -111 29q-66 41 -110 120t-67 188.5t-28 230.5z" />
<glyph unicode="R" horiz-adv-x="872" d="M-161 1283q-2 7 -2 13q0 10 5 20q8 16 31 19q37 6 83 13.5t99 17.5q-4 29 -7 57.5t-7 57.5q-4 20 9 35q12 16 30 20q6 1 13 1q11 0 21 -4q16 -7 19 -30q4 -31 7 -61.5t7 -63.5q78 8 157 8t146.5 -19t116.5 -65t72 -126q14 -53 14.5 -97.5t-14.5 -81.5 q-29 -73 -91.5 -122.5t-149.5 -78t-175 -42.5q76 -72 130.5 -157t100.5 -177t88 -187.5t91 -183.5q8 -13 8 -25q0 -8 -3 -14q-6 -18 -22 -28q-11 -7 -25 -6h-9q-18 4 -31 22q-47 86 -87 180t-84 184.5t-98.5 174.5t-127.5 151q-10 -160 -22.5 -319.5t-22.5 -319.5 q-2 -23 -17.5 -35t-33 -12t-32 12.5t-14.5 34.5q10 154 23.5 306.5t24.5 304.5q10 154 12 306v46q0 129 -9 260q-43 -8 -83.5 -14.5t-83.5 -14.5q-23 -4 -37.5 9.5t-19.5 30.5zM154 1284q10 -112 11 -224v-45q0 -89 -3 -179q51 10 103 19t100 26q83 27 155 88q28 76 28 134 q0 136 -151 175q-61 14 -121.5 14t-121.5 -8z" />
<glyph unicode="S" horiz-adv-x="886" d="M14 217q12 12 28.5 13t31.5 -13q94 -99 176 -123q39 -12 73 -11q39 1 73 15q64 28 106.5 97t56.5 157q6 38 6 78q0 52 -10 106q-18 96 -76 175q-66 94 -136.5 189t-117.5 198q-45 98 -45 164q0 10 1 18q7 70 57 108q51 36 135 44q24 2 49 3q64 0 137 -14 q20 -4 26.5 -19.5t2.5 -30.5t-18.5 -27.5t-34.5 -8.5q-61 13 -122 13h-3q-59 0 -96 -20q-38 -20 -47 -64q-2 -8 -2 -17q0 -40 34 -102q35 -66 73 -126.5t81 -117.5q33 -49 70.5 -99t68.5 -102.5t52.5 -110t23.5 -120.5q1 -14 0 -28q0 -88 -22 -162q-26 -86 -74 -147.5 t-112.5 -95.5t-139 -34t-153.5 37t-155 117q-12 12 -12 27q0 20 14 34z" />
<glyph unicode="T" horiz-adv-x="835" d="M-126 1394q5 16 18.5 26t33.5 5q51 -8 101.5 -13t99.5 -5v2q-2 20 10.5 30.5t28.5 10.5t31.5 -10t17.5 -31v-2q170 6 340 43q6 1 11 1q14 0 24 -7q14 -10 18 -26q1 -6 1 -12q0 -10 -4 -20q-7 -16 -27 -20q-180 -39 -357 -47q27 -322 37 -641.5t27 -642.5 q0 -20 -13.5 -30.5t-30 -10.5t-30.5 10t-14 31q-14 324 -24.5 643t-39.5 641q-57 2 -114.5 7t-114.5 17q-20 3 -28 19q-4 9 -4 19q0 7 2 13z" />
<glyph unicode="U" horiz-adv-x="962" d="M-3 754v53q0 79 2 155q3 100 8 184.5t5 141.5q0 18 12.5 28.5t28 10.5t27.5 -10t12 -29q0 -41 -3 -115.5t-6 -168.5q-2 -57 -2 -119q0 -41 1 -83q2 -108 10 -213.5t26.5 -200.5t50.5 -165.5t80 -109.5q40 -32 93 -33q11 0 23 2q111 14 175 99t93 212q28 121 28 265 q-1 6 -1 14q-2 152 -19.5 298t-47.5 268t-58 192q-6 18 2 30.5t23 16.5q6 2 12 2q10 -1 20 -5q16 -6 22 -24q20 -51 44 -141t41.5 -204t28.5 -241q8 -93 8 -185q0 -33 -1 -67q-4 -125 -23.5 -237.5t-63.5 -197.5t-112 -134q-61 -44 -149 -44q-11 0 -22 1q-90 4 -152.5 49 t-104.5 119t-66 170t-34 202t-11 214z" />
<glyph unicode="V" horiz-adv-x="970" d="M4 1475v5q0 16 12 26q14 10 28.5 10t29 -10.5t16.5 -30.5q12 -158 37 -326t63.5 -336t94 -329.5t127.5 -309.5q57 311 135 612.5t139 608.5q4 20 19.5 27.5t31 2t26.5 -18.5q8 -10 8 -22q0 -5 -1 -10q-35 -170 -75 -337t-80 -333.5t-76.5 -334.5t-63.5 -336 q-2 -14 -12 -21q-9 -8 -23 -9h-5q-11 0 -21 4q-12 5 -17 16q-92 158 -158.5 337t-114.5 366t-77 376.5t-43 372.5z" />
<glyph unicode="W" horiz-adv-x="1175" d="M-2 1386q-4 8 -4 16q0 9 5 16q9 14 24.5 18t33 -2.5t23.5 -24.5q68 -160 105.5 -327t61 -335.5t37 -338.5t29.5 -340q45 123 89 246.5t75 252.5q6 27 36 31t42 -20q45 -88 80 -178.5t67 -182.5q18 154 34 306.5t34 305t45 304.5t70 299q7 18 23 25q10 4 20 4q6 0 11 -1 q15 -4 25 -17q7 -8 7 -20q0 -7 -2 -14q-49 -170 -78 -342t-48.5 -346t-37 -349t-41.5 -349q-2 -18 -13.5 -25.5t-25.5 -5.5t-26.5 10t-16.5 21q-37 104 -73 206.5t-81 204.5q-43 -147 -96 -287.5t-100 -283.5q-6 -17 -18 -25q-10 -6 -21 -6h-7q-14 2 -25 13.5t-13 27.5 q-25 190 -38 384t-35.5 384t-61.5 377.5t-115 367.5z" />
<glyph unicode="X" horiz-adv-x="796" d="M10 43q39 205 107.5 397.5t148.5 382.5q-29 135 -57.5 266.5t-63.5 264.5q-4 16 4.5 28.5t21.5 15.5t26.5 -2t17.5 -24q55 -219 98 -432q59 141 115.5 281.5t101.5 285.5q6 17 20 23q8 4 16 4l10 -2q14 -4 22 -16q5 -7 5 -14q0 -6 -3 -13q-53 -174 -121.5 -339 t-138.5 -333q41 -195 80 -388t84 -386q4 -16 -5.5 -27.5t-22.5 -15.5q-5 -2 -10 -2q-8 0 -16 4q-12 6 -16 23q-39 168 -73.5 335.5t-69.5 337.5q-66 -166 -121 -331.5t-90 -341.5q-4 -17 -16 -23q-8 -4 -16 -4q-5 0 -9 2q-13 4 -23 16q-8 8 -7 19q0 4 1 8z" />
<glyph unicode="Y" horiz-adv-x="954" d="M-112 1394q0 10 8 19q0 2 2 4q12 16 30.5 17.5t32.5 -6t20.5 -22.5t-6.5 -34q6 8 43 -23.5t83 -76.5t90.5 -90t64.5 -64q35 -35 70.5 -66.5t70.5 -60.5q72 131 141.5 260t141.5 260q8 16 24 19q7 2 13 2q10 0 19 -4q16 -6 24 -20q5 -7 5 -16q0 -7 -3 -15q-2 -4 -3 -5.5 t-3 -5.5v-2q-29 -72 -70 -141.5t-82 -136.5q-23 -45 -46 -88t-48 -86q-14 -29 -25.5 -59.5t-21.5 -63.5q-29 -104 -34 -209q-2 -40 -2 -81q0 -64 5 -128q8 -104 26.5 -207.5t41.5 -206.5q4 -23 -6.5 -37t-26.5 -18q-6 -2 -13 -2q-9 0 -18 4q-16 6 -20 29q-20 94 -42 194.5 t-34 202.5q-11 94 -11 188v16q1 101 27 197q4 16 9.5 31t11.5 29q-59 49 -128 103.5t-136.5 114.5t-125 125.5t-91.5 133.5q-8 13 -8 26z" />
<glyph unicode="Z" horiz-adv-x="882" d="M4 1354q-2 6 -2 11q0 9 4 17q6 14 27 17q141 23 280.5 29t282.5 6q23 0 36 -17q9 -12 9 -24q0 -6 -2 -11q-74 -229 -161 -451t-177 -448q-2 -8 -15.5 -40.5t-29.5 -76.5t-34.5 -92.5t-30 -90.5t-15.5 -68.5t8 -26.5q61 1 121 1h59q88 -1 177 -15q20 -4 26 -17.5t2 -29 t-17 -26.5q-10 -8 -22 -8q-5 0 -10 1q-92 13 -180 13h-33q-45 -1 -90 -1q-61 0 -125 2q-16 2 -30.5 17.5t-6.5 37.5q80 227 170 449.5t176 445.5q2 8 15.5 41t30 77t33 92.5t26.5 89t11 67.5t-13 27q-115 -2 -224.5 -8.5t-224.5 -22.5q-20 -4 -33.5 7.5t-17.5 25.5z" />
<glyph unicode="[" horiz-adv-x="733" d="M15.5 772q21.5 361 74.5 719q4 16 16.5 23.5t22.5 7.5q86 4 165 7t163 -7q18 -2 28.5 -15.5t10.5 -29t-9.5 -27.5t-29.5 -10q-80 8 -136.5 11t-93.5 -15.5t-57 -64.5t-31 -136q-14 -117 -24.5 -231.5t-14.5 -231.5q-8 -117 -11 -233.5t1 -233.5q4 -76 15.5 -126t40 -74.5 t78.5 -23.5t134 28q18 6 31.5 -3.5t18 -23.5t-2 -30.5t-24.5 -22.5q-78 -25 -154.5 -26t-163.5 3q-16 0 -26 13.5t-10 29.5q-33 362 -11.5 723z" />
<glyph unicode="\" horiz-adv-x="622" d="M-2 1475q-8 18 0 34.5t21.5 23.5t30 4t24.5 -21q76 -174 123 -355.5t79.5 -366t58 -371t60.5 -370.5q4 -20 -7 -33.5t-26.5 -17.5t-30 2t-18.5 27q-35 180 -59.5 364.5t-56 367.5t-77.5 361.5t-122 350.5z" />
<glyph unicode="]" horiz-adv-x="634" d="M-2 1489q0 14 10 27.5t29 15.5q117 6 190.5 -40t114.5 -128t52.5 -192.5t6 -233.5t-23 -251t-36.5 -242.5t-34.5 -211t-17.5 -157.5q-2 -27 -29 -39q-66 -27 -116 -31t-117 10q-18 2 -24.5 16.5t-2.5 29t16.5 24.5t30.5 6q80 -16 117 2.5t51 56t14.5 90t6.5 105.5 q16 113 33.5 224.5t27.5 224.5q4 55 11 126.5t6 146.5t-13 145.5t-42 126t-84 86t-138 26.5q-18 -2 -28.5 10.5t-10.5 26.5z" />
<glyph unicode="^" horiz-adv-x="741" d="M5 1044.5q-5 12.5 3 26.5q55 86 108.5 172t108.5 172q10 12 27.5 15.5t28.5 -9.5q70 -72 128 -152.5t111 -162.5q10 -12 6 -24.5t-15 -18.5t-25.5 -5t-22.5 13q-47 70 -96.5 138.5t-106.5 131.5q-49 -78 -96 -153.5t-96 -151.5q-8 -14 -21.5 -15t-25 5t-16.5 18.5z" />
<glyph unicode="_" horiz-adv-x="827" d="M0 45q0 16 10 30.5t33 14.5h741q20 0 31.5 -14.5t11.5 -30.5t-11 -30.5t-32 -14.5h-741q-23 0 -33 14.5t-10 30.5z" />
<glyph unicode="`" horiz-adv-x="446" d="M0 1414q4 11 15.5 17.5t23.5 5.5t22 -14q33 -45 72 -82.5t84 -72.5q12 -8 13 -21.5t-5 -24t-17.5 -14.5t-23.5 6q-53 39 -95 82t-83 95q-10 12 -6 23z" />
<glyph unicode="a" horiz-adv-x="784" d="M8 111q46 121 152 174q81 41 174 41q28 0 57 -4q23 -2 33 -23q-2 8 -2 15.5t-4 11.5q-16 47 -39 101t-64 89q-27 23 -56.5 18.5t-58 -20.5t-54 -40.5t-42.5 -43.5q-14 -14 -30.5 -12t-28.5 13t-14 27.5t10 30.5q45 45 96 79t103 44q16 3 32 2q35 0 69 -14q48 -22 87 -88 q31 -53 52.5 -112.5t41.5 -120.5q8 -27 15.5 -52.5t17.5 -52.5q6 -6 9 -14t11 -17v-4q20 2 29.5 -10t9.5 -27.5t-10 -30t-29 -16.5q-33 -4 -55 17.5t-39.5 55.5t-29 73t-19.5 71q0 -14 -10 -26.5t-31 -9.5q-24 3 -47 3q-61 1 -118 -19q-79 -26 -120 -107q68 -40 136 -40h4 q70 1 145 38q18 8 34.5 1.5t25 -20.5t6 -29.5t-20.5 -23.5q-106 -51 -207.5 -51t-199.5 71q-9 11 -17 23q-5 8 -5 18q0 5 1 11z" />
<glyph unicode="b" horiz-adv-x="647" d="M1 736q3 163 8 327t7 328q0 20 12.5 29.5t28 9.5t28.5 -9.5t13 -29.5q-4 -263 -14 -525q-5 -131 -5 -262t5 -262q27 25 58.5 47.5t66.5 37.5t71 21q10 1 20 1q26 0 52 -11q57 -23 90 -73t39 -111q1 -9 1 -17q0 -53 -22 -103q-24 -58 -77 -97q-59 -43 -128 -48 q-16 -1 -33 -1q-52 0 -103 12q10 -61 22 -125q2 -20 -8 -33q-11 -14 -25 -18q-6 -2 -11 -2q-9 0 -17 4q-14 6 -19 24q-8 45 -15 90.5t-15 88.5q-12 10 -13.5 26.5t7.5 30.5q-19 162 -23 324q-3 98 -2 196q0 65 1 130zM88 260q6 -86 18 -172q57 -16 119 -18h6q58 0 105 34 q35 25 50 65q12 32 12 64q0 9 -1 17q-4 35 -21.5 68.5t-47.5 43.5q-14 3 -28 3t-28 -3q-26 -6 -52.5 -21t-49.5 -33.5t-41 -37.5q-16 -16 -41 -10z" />
<glyph unicode="c" horiz-adv-x="737" d="M24 235q-7 35 -6 69q0 40 9 79q16 70 60 129t114 88q48 18 97 18q40 0 81 -12q90 -28 166 -78q17 -13 17 -33q0 -14 -6 -25q-7 -13 -22.5 -19.5t-31.5 6.5q-29 18 -62.5 37.5t-70.5 29.5q-37 12 -74 12h-2q-36 0 -70 -18q-47 -23 -76.5 -64.5t-40.5 -95.5q-6 -31 -6 -59 q0 -33 8 -62q16 -53 54 -89q39 -36 95 -52q34 -9 72 -10q24 0 50 4q18 2 31.5 -8t17.5 -25.5t-2 -30t-27 -18.5q-35 -5 -70 -5q-51 1 -100 11q-84 18 -143 88q-48 57 -62 133z" />
<glyph unicode="d" horiz-adv-x="618" d="M6 175q0 67 23 126q10 29 26.5 59.5t38 56t49 44t60.5 24.5q17 2 32 2q25 0 44 -6q2 231 7 462t15 462q0 20 14.5 30.5t29.5 10.5t27.5 -10.5t12.5 -30.5q-10 -246 -14 -487.5t-6 -485.5q25 -23 45 -52.5t36 -57.5q6 -10 6 -20q0 -6 -2 -12q-6 -16 -19 -24t-29.5 -6 t-26.5 21q-4 4 -6 9t-7 9v-219q4 -10 0 -17v-145q0 -20 -13 -30.5t-29.5 -10.5t-30 10.5t-13.5 30.5v98q-53 -16 -110 -16h-12q-64 2 -107 55q-41 53 -41 120zM92 190q0 -6 -1 -13q0 -39 20 -66q8 -10 23.5 -18.5t33.5 -10.5h13q21 0 43 5q28 7 52 17q0 72 1.5 143.5 t1.5 143.5q-22 13 -43 13q-11 0 -21 -3q-35 -10 -62.5 -46t-41.5 -74q-15 -45 -19 -91z" />
<glyph unicode="e" horiz-adv-x="772" d="M-21 286v7q0 23 25 31v15t2 17q6 47 28.5 92.5t58.5 79.5t81 54q41 18 85 18h9q106 -4 162.5 -73.5t67.5 -170.5q4 -16 -7.5 -27.5t-25.5 -15.5q-92 -29 -185.5 -41t-189.5 -24v-2q18 -76 72 -111t124 -41q18 -2 36 -1q52 1 106 13q72 18 123 48q18 10 34.5 4t24.5 -22 q6 -12 6 -26v-6q-2 -18 -20 -28q-84 -48 -180 -64q-43 -7 -84 -7q-51 1 -99 11q-86 20 -149.5 77t-77.5 153q-23 12 -27 40zM90 338q78 10 155.5 21.5t155.5 31.5q-18 71 -64 95q-30 15 -62 16q-17 0 -35 -4q-50 -12 -94 -55.5t-56 -104.5z" />
<glyph unicode="f" horiz-adv-x="610" d="M-96 832q-2 7 -2 12q0 9 4 17q6 13 26 18q29 4 57.5 7t57.5 7q6 113 28.5 214t70 176t122.5 116q64 36 157 36q14 0 28 -1q20 -2 29.5 -15.5t9.5 -29t-9.5 -27.5t-29.5 -12q-13 1 -25 1q-70 0 -120 -29q-58 -34 -95 -95.5t-56.5 -146.5t-25.5 -181q53 2 105.5 2h105.5 q20 0 29.5 -13.5t9.5 -28.5t-9.5 -27.5t-29.5 -12.5h-106.5t-108.5 -4v-45q0 -89 6 -180q8 -115 19.5 -218.5t20.5 -189.5t11 -141q0 -20 -13 -30.5t-28.5 -10.5t-29 10t-13.5 31q0 57 -9 143t-19.5 187.5t-18.5 214.5q-6 90 -6 179v44q-45 -2 -94 -12q-18 -2 -31.5 9 t-17.5 26z" />
<glyph unicode="g" horiz-adv-x="770" d="M3 -303q11 10 26.5 12t29.5 -10q43 -41 97 -59q39 -13 79 -13q13 0 27 2q53 6 101.5 37t78.5 86q41 70 46 144v22q0 63 -21 129q-20 57 -44 110.5t-50 106.5q-4 -51 -16.5 -99t-37 -85t-60.5 -58q-33 -20 -78 -20h-9q-39 0 -72.5 20.5t-57.5 52t-35 69.5q-7 25 -7 49 q0 13 2 26q18 98 86 172t162 105q-4 16 3 28.5t19 18.5q9 4 17 4q5 0 9 -1q13 -3 24 -20q41 -78 98 -175t100 -200.5t54 -208.5q1 -17 1 -33q0 -86 -45 -163q-43 -76 -106.5 -126t-135.5 -66q-31 -8 -64 -8q-40 0 -82 12q-74 20 -140 86q-12 10 -12 24q0 17 13 29zM86 231 q-4 -24 -4 -43q0 -35 14 -56q21 -34 54 -40q8 -1 16 -1q26 0 53 15q35 19 49 62q20 59 26 126q1 15 1 30q0 50 -14 96q-31 -10 -64 -27.5t-59.5 -42t-46 -54.5t-25.5 -65z" />
<glyph unicode="h" horiz-adv-x="698" d="M-77 1396q3 16 12.5 26t24.5 12h4q13 0 24 -13q82 -98 120 -224q40 -126 50 -265q5 -66 5 -134q-1 -74 -7 -150q-12 -146 -25 -283q18 35 40 65.5t47.5 52t55 30.5t62.5 1q68 -16 102 -72t46 -128q10 -56 9 -114q-1 -16 -1 -32q-4 -74 -5 -123q0 -18 -12 -27.5 t-26.5 -9.5t-26.5 9.5t-10 27.5q0 6 -2 45t-7.5 91t-16.5 108.5t-27.5 94.5t-40.5 48q-5 2 -10 2q-20 0 -46 -28q-66 -78 -100.5 -167t-63.5 -184q-4 -16 -17 -22t-25.5 -5t-22.5 11.5t-8 26.5q6 92 19 202.5t25.5 229t16.5 240.5q1 30 1 60q0 90 -9 176q-12 114 -46 214 t-100 178q-10 11 -10 23q0 4 1 7z" />
<glyph unicode="i" horiz-adv-x="567" d="M12 809q12 10 28 13q3 1 6 1q13 0 24 -10q16 -16 38.5 -23.5t41.5 -13.5q18 -10 20 -25.5t-6 -28.5t-23.5 -19.5t-31.5 2.5q-27 10 -50.5 19t-46.5 30q-13 13 -13 27q0 17 13 28zM86 559q-2 7 -2 14q0 9 5 17q9 12 25 16q7 2 13 2l17 -3q16 -5 22 -23q18 -55 23.5 -134 t18.5 -154t45 -134.5t105 -77.5q18 -4 25 -18q4 -9 4 -18q0 -6 -2 -12q-5 -14 -17 -24q-9 -7 -20 -7q-5 0 -10 1q-94 23 -136 85.5t-59.5 143t-24.5 167.5t-32 159z" />
<glyph unicode="j" horiz-adv-x="501" d="M-72 -284q4 14 15.5 24t29.5 8q26 -4 49 -4q65 0 104 30q52 40 70 110q13 50 13 109q0 26 -2 54q-8 92 -29.5 184.5t-48.5 173t-43 130.5q-6 16 2 27t22.5 15.5t28 -1t19.5 -21.5q23 -66 51.5 -161t47.5 -198.5t21 -203.5v-10q0 -95 -29 -166q-30 -76 -101 -116 q-50 -29 -128 -29q-31 0 -67 5q-18 2 -23 14q-4 8 -4 15q0 6 2 11zM16 786q11 11 26 12q1 1 3 1q13 0 25 -11q14 -12 34.5 -19t36.5 -15q14 -6 17 -20v-8q0 -10 -6 -20q-7 -12 -20 -18q-6 -3 -12 -3q-8 0 -18 5q-23 12 -45 20.5t-41 26.5q-11 11 -11 23q0 15 11 26z" />
<glyph unicode="k" horiz-adv-x="765" d="M8 -45q27 178 54.5 356t45 356.5t18.5 357.5v12q0 173 -28 347q-4 20 7.5 34t26.5 19q6 2 12 2q10 -1 18 -5q14 -8 18 -27q30 -190 30 -378q0 -33 -1 -65q-6 -220 -33 -438q66 78 111 166t61 193q4 20 18.5 26.5t30 2t26.5 -17.5t7 -34q-23 -129 -83 -236.5t-146 -201.5 q100 -86 195.5 -173t181.5 -188q12 -13 12 -27q0 -4 -1 -6q-3 -16 -14.5 -27t-28 -13t-30.5 14q-82 96 -173 180t-189 168q-16 -106 -32 -211t-32 -209q-4 -20 -18 -27q-9 -4 -19 -4q-5 0 -11 1q-14 4 -26 18q-9 10 -9 25q0 5 1 10z" />
<glyph unicode="l" horiz-adv-x="391" d="M16 1374q-1 5 -1 10q1 14 9 26q12 16 28 20q7 2 13 1q9 1 17 -3q14 -6 18 -27q58 -340 70 -686q2 -58 2 -116q0 -287 -47 -568q-3 -23 -19 -29q-9 -4 -19 -4l-13 2q-16 4 -27.5 18.5t-7.5 34.5q45 279 45 565q0 49 -1 97q-9 336 -67 659z" />
<glyph unicode="m" horiz-adv-x="878" d="M7 307q-2 40 -2 80q0 92 11 184q2 20 16.5 30.5t30 10.5t27.5 -10t10 -31q-4 -37 -5 -73.5t-3 -73.5q29 59 72 113.5t102 95.5q10 7 22 7q8 0 17 -4q21 -9 25 -28q14 -47 21 -96t11 -96q27 53 63 100t85 88q16 10 36.5 9t31.5 -19q74 -121 97 -255t25 -273 q0 -20 -13 -30.5t-29.5 -10.5t-30 10t-13.5 31q-2 115 -17 224t-67 212q-90 -90 -120.5 -211t-32.5 -248q0 -23 -13.5 -33t-29 -10t-28.5 10t-13 33q0 119 -4 237.5t-27 235.5q-47 -45 -77.5 -100.5t-49 -117.5t-27 -127t-8.5 -128q0 -23 -13 -33t-28.5 -10t-29 10t-13.5 33 q-2 133 -9 264z" />
<glyph unicode="n" horiz-adv-x="788" d="M2 49v39v594q0 23 15.5 34t33 11t32.5 -11t15 -34v-176q35 53 83 84q35 23 82 23q16 0 34 -3q92 -12 147.5 -69.5t85.5 -136.5q32 -80 42 -168q9 -74 8 -138v-24q0 -23 -15.5 -35t-34 -12t-33 12t-14.5 35q0 27 -1 71.5t-8 95t-19.5 101.5t-34.5 91q-24 39 -56 63 q-30 22 -72 22h-7q-59 -6 -95 -47t-55.5 -99.5t-27 -125t-9.5 -121.5v-76q0 -23 -14 -35t-32.5 -12t-34 12.5t-15.5 34.5z" />
<glyph unicode="o" horiz-adv-x="702" d="M7 234q-2 16 -2 32q-1 34 7 68q10 51 32 99t50 89q-14 8 -20 24.5t-3 32t14 26.5t32 11q121 -4 221 -64t143 -177q15 -41 21 -88q3 -23 2 -45q0 -24 -3 -47q-7 -45 -29.5 -86t-63.5 -68q-46 -31 -100 -38q-17 -2 -35 -2q-36 -1 -71 9q-52 14 -96 47t-69 82q-25 45 -30 95 zM105 268q0 -39 16 -75q14 -33 48 -57q34 -22 73 -32q19 -5 37 -5q19 -1 39 5q38 10 61 48q32 51 32 101v9q-3 55 -32 101.5t-76 82t-100 54.5q-25 -29 -47 -66t-36 -78q-14 -45 -15 -88z" />
<glyph unicode="p" horiz-adv-x="796" d="M-16 -366q10 106 32 212q2 80 2 159t-2 157q-4 155 -4 311q0 25 14.5 36t32 11t31.5 -11t14 -36q2 -47 2 -96v-98q29 94 72 177t111 124q37 21 73 21q18 0 36 -5q55 -16 100 -57t73.5 -98.5t30.5 -108.5v-15q0 -79 -38 -141q-42 -67 -108.5 -110t-149.5 -58 q-35 -6 -69 -6q-47 0 -92 12q-8 -41 -18 -80.5t-18 -80.5q-2 -106 -8.5 -212t-18.5 -212q-2 -4 -2 -13q-4 -23 -18 -30q-10 -5 -21 -5q-5 0 -11 1q-16 4 -30 16t-16 31q-5 49 -5 100t5 105zM168 106q27 -5 56 -5q37 0 79 9q74 15 128 54t73 100q6 17 6 36q0 46 -33 99 q-8 14 -23.5 38t-35 43.5t-42.5 26.5q-5 2 -11 2q-16 0 -31 -15q-35 -33 -59.5 -75t-42 -88t-31 -93.5t-25.5 -92.5q-2 -10 -4 -19.5t-4 -19.5z" />
<glyph unicode="q" horiz-adv-x="690" d="M1 173v6q0 45 15 88q15 46 37 77q51 68 137 98.5t172 32.5q2 23 2.5 45.5t2.5 44.5q2 16 13 27.5t26 14.5q4 1 9 1q9 0 18 -4q13 -6 18 -24q0 -10 2 -15q3 -20 3 -46q0 -39 -7 -89q2 -4 -3 -22q-4 -6 -4 -12.5t-2 -12.5q-5 -105 -5 -212v-36q1 -125 16.5 -246.5 t52.5 -237.5t102 -220q7 -12 7 -22q0 -6 -2 -11q-5 -14 -19 -22q-13 -8 -27 -8h-3q-17 1 -30 18q-104 172 -142 363.5t-40 391.5q-49 -78 -114 -115q-33 -19 -71 -19q-37 0 -79 18q-45 18 -64.5 59t-20.5 89zM102 176q4 -43 33 -66q13 -9 29 -9q21 0 49 16q8 10 14.5 16.5 t12.5 16.5q35 45 66.5 99t47.5 113q0 18 4 27q-47 -2 -93 -11t-83 -36q-45 -25 -64 -74q-17 -41 -17 -77q0 -8 1 -15z" />
<glyph unicode="r" horiz-adv-x="724" d="M3 598q5 14 17 22q10 6 23 5h7q16 -2 28 -19q25 -41 44 -82t32 -84q6 10 11 22.5t11 22.5q27 47 65 75t82 40q41 11 85 11h8q49 -1 98 -7q18 -2 24 -16q4 -9 5 -18q0 -4 -1 -9q-3 -14 -15.5 -24.5t-30.5 -8.5q-35 5 -68 5q-16 0 -32 -1q-46 -4 -83 -24.5t-62.5 -56 t-33.5 -93.5q-12 -68 -12 -138v-20q2 -80 4 -159q0 -18 -12.5 -28.5t-27.5 -10.5t-27.5 10.5t-12.5 28.5q0 23 -1 45.5t-3 44.5q-4 115 -27.5 226.5t-89.5 209.5q-7 11 -7 21q0 5 2 10z" />
<glyph unicode="s" horiz-adv-x="823" d="M7 209q11 12 27.5 14t33.5 -12q63 -61 155 -90t185 -31h10q26 0 54 8q32 10 51.5 27.5t16.5 39t-46 44.5q-51 29 -102.5 49.5t-103.5 36.5t-105.5 31.5t-106.5 38.5q-20 6 -29.5 28.5t8.5 40.5q86 78 181.5 123t205.5 47q20 0 30.5 -13t10.5 -28.5t-10 -30t-31 -14.5 q-72 0 -135 -32.5t-125 -65.5q61 -16 113 -37t111 -41q29 -10 65.5 -24.5t70 -34t59.5 -45t32 -62.5q1 -10 2 -19q-1 -31 -17 -57q-20 -34 -56 -58t-78 -35q-31 -8 -57 -8q-10 0 -19 1q-111 14 -215.5 43t-184.5 107q-14 12 -14 27q0 18 13 32z" />
<glyph unicode="t" horiz-adv-x="765" d="M-121 850.5q0 19.5 13.5 36t37.5 16.5h102.5t102.5 2q2 23 3 47.5t3 48.5q6 59 11.5 121t9.5 121q0 16 2 34.5t2 37.5v24q-12 16 -12 38t22 38q20 12 35 12q13 -1 21 -9q20 -20 27 -62q6 -38 6 -87v-15q-1 -58 -5 -111t-10 -94t-6 -48q-2 -14 -3 -37.5t-5 -56.5 q147 2 294 25q25 2 37.5 -12.5t12.5 -34t-12.5 -37t-37.5 -21.5q-76 -10 -150.5 -15t-152.5 -7q-4 -74 -6 -160q-1 -29 -1 -57q0 -57 3 -113q4 -84 15.5 -157.5t33.5 -125.5q23 -50 60 -70q16 -8 34 -9q25 0 56 16q23 12 42 4t29.5 -24.5t7.5 -36t-26 -31.5 q-68 -34 -120 -34q-23 1 -43 7q-64 22 -104 82t-59.5 145t-23.5 162q-5 75 -5 149q0 26 1 50q2 98 6 201q-49 -4 -98 -4h-99q-25 0 -38 16t-13 35.5zM176 1329q6 -10 18 -13q2 -1 5 -1q11 0 28 12q-27 -18 -51 2z" />
<glyph unicode="u" horiz-adv-x="950" d="M5 428v32q0 30 1 54q0 23 15.5 34t34 11t33.5 -11t15 -34q0 -12 -1 -50v-17q1 -31 3 -70q4 -49 10.5 -102.5t20 -94.5t35 -64.5t53.5 -11.5q51 18 81 72.5t46.5 121.5t22.5 132.5t8 108.5q2 23 16.5 34t32 11t31.5 -11.5t16 -33.5q1 -27 1 -61v-36v-56v-56 q1 -58 10.5 -110t31.5 -89t62 -52q18 -7 42 -7q29 0 66 10q23 6 38 -5q14 -11 20 -29q2 -7 3 -14q-1 -10 -5 -20q-8 -18 -27 -24q-56 -14 -99 -14q-17 0 -32 2q-53 8 -89 35.5t-57.5 71.5t-31.5 97q-29 -72 -74 -121t-113 -55h-8q-50 0 -86 24q-39 26 -63.5 71.5t-38 103 t-18.5 115t-6 108.5z" />
<glyph unicode="v" horiz-adv-x="813" d="M4 477q6 15 19.5 23t29 6t25.5 -21q47 -90 95 -175t93 -175q59 117 115.5 234.5t134.5 224.5q12 16 28 18h7q13 0 25 -6q14 -8 19 -22q2 -5 1 -10q0 -10 -6 -19q-45 -63 -82 -130t-71 -134.5t-66.5 -135t-69.5 -132.5q-11 -19 -37 -21h-5q-23 0 -32 21 q-47 111 -107.5 211.5t-113.5 209.5q-5 10 -5 20q0 7 3 13z" />
<glyph unicode="w" horiz-adv-x="878" d="M0 563q-3 8 -3 15q0 8 5 16q8 14 23.5 18t32 -2t22.5 -24q33 -92 54.5 -186.5t43.5 -190.5q29 88 57.5 175t51.5 179q10 29 40.5 29t41.5 -29q23 -86 45 -169t65 -156q16 123 43 238.5t80 228.5q8 18 24 20h6q12 0 22 -5q14 -6 21 -22q3 -7 3 -16t-4 -18 q-59 -129 -85 -262.5t-42 -270.5q-4 -25 -26.5 -38t-45.5 9q-59 66 -93 140.5t-56 156.5q-29 -92 -58.5 -183t-54.5 -185q-10 -29 -41 -29t-39 29q-33 135 -59.5 268t-73.5 264z" />
<glyph unicode="x" horiz-adv-x="655" d="M2 602q6 16 20 24q12 7 27 7h7q18 -2 30 -21q31 -55 65.5 -110.5t67.5 -110.5q41 53 85 104.5t87 102.5q14 16 30.5 15t28 -13t14.5 -30q1 -4 1 -6q0 -14 -10 -27q-49 -57 -96.5 -112.5t-90.5 -113.5q39 -66 75 -131t71 -135q8 -18 1 -33.5t-21 -23.5q-11 -6 -24 -6h-6 q-18 2 -26 22q-29 57 -60.5 113.5t-66.5 113.5q-35 -51 -66.5 -101t-58.5 -105q-10 -18 -27.5 -21.5t-32 5.5t-22.5 25q-4 7 -4 16q0 10 6 22q68 125 158 243q-41 63 -79 126t-79 128q-6 11 -6 22q0 5 2 11z" />
<glyph unicode="y" horiz-adv-x="737" d="M7 572q7 18 22.5 27t33 6t27.5 -21q18 -35 36.5 -85t39 -105.5t45.5 -109t56.5 -92t73.5 -56.5q24 -11 51 -11q21 0 44 6q5 73 5 146q0 62 -3 125q-9 135 -32 270q-4 23 7 38t29 19q6 1 12 1q10 0 20 -4q15 -7 20 -30q40 -219 40 -438q0 -94 -8 -188q-24 -314 -159 -607 q-10 -20 -27 -23q-5 -1 -9 -1q-13 0 -25 7q-15 9 -23.5 26.5t2.5 38.5q59 125 93 257t50 267q-21 -3 -41 -3q-71 0 -121 40q-65 51 -109 132t-77 173t-70 160q-6 11 -6 21q0 7 3 14z" />
<glyph unicode="z" horiz-adv-x="813" d="M2 37q2 14 14 26q53 51 111.5 104.5t114 109t103.5 117t81 130.5q-80 -10 -160 -13t-164 -3q-23 0 -35 15.5t-12 35t12.5 34.5t34.5 15q98 0 195.5 4t194.5 21q5 1 9 1q20 0 38 -14q22 -18 14 -49q-23 -76 -61.5 -141t-89 -124.5t-106.5 -114t-112 -105.5l200 20 q50 5 100 5l100 -5q23 -4 35 -22t12 -36.5t-11.5 -33t-35.5 -10.5q-54 6 -108 6h-26q-66 -2 -133 -9t-132.5 -14t-133.5 -10q-16 0 -28.5 9.5t-17.5 23.5q-4 10 -4 19q0 4 1 8z" />
<glyph unicode="{" horiz-adv-x="608" d="M5 741.5q-1 18.5 15 28.5q76 39 104 103.5t34 142.5t3 159.5t13 152.5t63.5 125.5t151.5 74.5q14 2 25.5 -5t14.5 -19.5t-2 -24t-19 -13.5q-98 -20 -139.5 -71.5t-52.5 -121t-4 -148t4 -153.5t-26.5 -137.5t-95.5 -99.5q14 6 29.5 -14.5t29 -51t23.5 -61t12 -45.5 q4 -31 2 -78t-4 -100t1 -107.5t15.5 -99.5t38 -74.5t72.5 -33.5q14 -2 22.5 -12.5t8.5 -22.5t-8 -21.5t-23 -9.5q-88 8 -127 54t-51 112t-9 144.5t0 154.5t-23.5 141.5t-82.5 104.5q-14 8 -15 26.5z" />
<glyph unicode="|" horiz-adv-x="315" d="M2 1495q-6 16 2 26.5t20.5 13.5t25 -2.5t16.5 -19.5q59 -178 68 -363t-3 -372.5t-30.5 -375t-14.5 -369.5q0 -16 -10 -25.5t-22.5 -9.5t-24 9t-11.5 26q-4 180 14.5 365.5t31 370.5t4 368.5t-65.5 357.5z" />
<glyph unicode="}" horiz-adv-x="626" d="M-2 41q0 12 8 23.5t25 11.5q51 2 85 32.5t55.5 77.5t34.5 105.5t22.5 116t17.5 107.5t22 83q8 20 18.5 43t20.5 40t23.5 26.5t31.5 3.5q-20 6 -38.5 15t-30.5 26q-35 47 -37 117.5t7 149.5t21.5 158.5t4.5 143t-45 104.5t-123 43q-16 0 -24.5 11.5t-8.5 24t8 22.5t25 10 q92 -2 141 -35t68.5 -85t18.5 -117.5t-10 -135t-19.5 -137.5t-7.5 -122t25 -91t77 -45q18 -4 23 -23.5t-7 -31.5q-49 -41 -75.5 -108.5t-43 -144.5t-32 -156t-43 -143.5t-75.5 -106.5t-130 -46q-16 0 -24.5 10.5t-8.5 22.5z" />
<glyph unicode="~" horiz-adv-x="1087" d="M1 494.5q-7 17.5 3 35.5q27 53 64.5 102.5t84 80t100.5 34t118 -35.5q47 -31 97 -78t100 -78t100.5 -28t99.5 75q12 18 30.5 19.5t33 -7t20.5 -24t-6 -33.5q-72 -104 -159 -121.5t-189 60.5q-47 35 -91.5 77.5t-97.5 69.5q-43 20 -77.5 11t-62.5 -35.5t-49.5 -63.5 t-37.5 -70q-10 -18 -27.5 -21t-32 5t-21.5 25.5z" />
<glyph unicode="&#xad;" d="M6 815q0 14 10.5 26.5t28.5 12.5q154 -4 307.5 -18.5t309.5 -1.5q18 0 27 -11.5t9 -26t-9 -27.5t-27 -13q-156 -12 -309.5 2t-307.5 18q-18 0 -28.5 12.5t-10.5 26.5z" />
<glyph unicode="&#x2000;" horiz-adv-x="775" />
<glyph unicode="&#x2001;" horiz-adv-x="1551" />
<glyph unicode="&#x2002;" horiz-adv-x="775" />
<glyph unicode="&#x2003;" horiz-adv-x="1551" />
<glyph unicode="&#x2004;" horiz-adv-x="517" />
<glyph unicode="&#x2005;" horiz-adv-x="387" />
<glyph unicode="&#x2006;" horiz-adv-x="258" />
<glyph unicode="&#x2007;" horiz-adv-x="258" />
<glyph unicode="&#x2008;" horiz-adv-x="193" />
<glyph unicode="&#x2009;" horiz-adv-x="310" />
<glyph unicode="&#x200a;" horiz-adv-x="86" />
<glyph unicode="&#x2010;" d="M6 815q0 14 10.5 26.5t28.5 12.5q154 -4 307.5 -18.5t309.5 -1.5q18 0 27 -11.5t9 -26t-9 -27.5t-27 -13q-156 -12 -309.5 2t-307.5 18q-18 0 -28.5 12.5t-10.5 26.5z" />
<glyph unicode="&#x2011;" d="M6 815q0 14 10.5 26.5t28.5 12.5q154 -4 307.5 -18.5t309.5 -1.5q18 0 27 -11.5t9 -26t-9 -27.5t-27 -13q-156 -12 -309.5 2t-307.5 18q-18 0 -28.5 12.5t-10.5 26.5z" />
<glyph unicode="&#x2012;" d="M6 815q0 14 10.5 26.5t28.5 12.5q154 -4 307.5 -18.5t309.5 -1.5q18 0 27 -11.5t9 -26t-9 -27.5t-27 -13q-156 -12 -309.5 2t-307.5 18q-18 0 -28.5 12.5t-10.5 26.5z" />
<glyph unicode="&#x2013;" horiz-adv-x="1251" d="M6 815q0 14 15.5 26.5t42.5 12.5q228 -4 455 -18.5t458 -1.5q26 0 39.5 -11.5t13.5 -26t-13.5 -27.5t-39.5 -13q-231 -12 -458 2t-455 18q-27 0 -42.5 12.5t-15.5 26.5z" />
<glyph unicode="&#x2014;" horiz-adv-x="2275" d="M6 815q0 14 31 26.5t84 12.5q456 -4 910.5 -18.5t915.5 -1.5q54 0 80.5 -11.5t26.5 -26t-26.5 -27.5t-80.5 -13q-461 -12 -915.5 2t-910.5 18q-53 0 -84 12.5t-31 26.5z" />
<glyph unicode="&#x202f;" horiz-adv-x="310" />
<glyph unicode="&#x205f;" horiz-adv-x="387" />
<glyph unicode="&#x25fc;" horiz-adv-x="634" d="M0 0v635h635v-635h-635z" />
</font>
</defs>
</svg>
