<?xml version="1.0" standalone="no"?>
<!DOCTYPE svg PUBLIC "-//W3C//DTD SVG 1.1//EN" "http://www.w3.org/Graphics/SVG/1.1/DTD/svg11.dtd" >
<svg xmlns="http://www.w3.org/2000/svg">
<metadata></metadata>
<defs>
<font id="kg_begin_againregular" horiz-adv-x="1000" >
<font-face units-per-em="2048" ascent="1638" descent="-410" />
<missing-glyph horiz-adv-x="470" />
<glyph horiz-adv-x="2048" />
<glyph horiz-adv-x="2048" />
<glyph unicode="&#xd;" />
<glyph unicode=" "  horiz-adv-x="470" />
<glyph unicode="&#x09;" horiz-adv-x="470" />
<glyph unicode="&#xa0;" horiz-adv-x="470" />
<glyph unicode="!" horiz-adv-x="274" d="M58 42q-10 26 11 49t52 33t61 2t40 -44q6 -28 -14 -50t-49 -31t-59 -1t-42 42zM76 294q2 18 3 81t1 155v205v230v231v207t1 159t1 86q6 30 28 41t46 6t43 -20t17 -35l-12 -1338q-4 -26 -23 -38t-41 -12t-42 11t-22 31z" />
<glyph unicode="&#x22;" horiz-adv-x="490" d="M63 1268q5 20 20 31t36 11t41 -14q42 -54 58 -106t15 -98t-13 -86t-26 -68q-16 -22 -38 -26t-41 4t-28 24t1 34q6 20 17 47t15 59t-6 68t-44 76q-12 24 -7 44zM267 1282q5 20 20 31t36 11t41 -14q42 -54 58 -106t15 -98t-13 -86t-26 -68q-16 -22 -38 -26t-41 4t-28 24 t1 34q6 20 17 47t15 59t-6 68t-44 76q-12 24 -7 44z" />
<glyph unicode="#" horiz-adv-x="1166" d="M72 648q2 22 14 40t30 18h212v272q-66 -2 -121 -4t-91 -6q-26 2 -36 21t-8 41t14 40t30 18h212v222q0 18 18 29t39 12t39 -8t18 -29q-4 -36 -5 -95t-3 -131h276v222q0 18 18 29t39 12t39 -8t18 -29q-4 -36 -5 -95t-3 -131l238 2q18 0 29 -18t12 -39t-8 -39t-29 -18 q-38 2 -101 3t-141 3v-137t2 -139l236 2q18 0 29 -18t12 -39t-8 -39t-29 -18q-38 2 -100 3t-138 3q2 -70 5 -129t7 -97q-2 -28 -21 -38t-42 -8t-41 14t-18 30v228h-137t-135 -2q2 -70 5 -128t7 -96q-2 -28 -21 -38t-41 -8t-40 14t-18 30l-2 224q-66 -2 -121 -4t-91 -6 q-26 2 -36 21t-8 41zM434 843q0 -69 2 -137h274v276h-138t-138 -2v-137z" />
<glyph unicode="$" horiz-adv-x="1066" d="M36 1440q6 62 31 108t64 79t90 51t109 24q18 2 35 2h35q-2 10 -2 20v18q-2 26 17 39t43 11t45 -17t21 -43v-48q170 -44 288 -177t150 -321q2 -20 -12 -34t-34 -19t-38 3t-26 30q-18 68 -47 133t-70 119t-93 95t-118 61q-2 -120 -2 -257t-2 -287l20 -12l20 -12 q82 -54 166 -102t153 -106t112 -131t43 -177q2 -108 -43 -195t-118 -150t-164 -102t-179 -47q2 -16 2 -31t2 -31q0 -12 -19 -21t-42 -11t-43 7t-20 33q-2 12 -2 26v30q-78 10 -152 43t-126 95t-70 154t18 222q8 26 30 32t44 0t38 -23t10 -35q-40 -150 12 -247t194 -125v179 v210v228v235q-76 46 -146 95t-122 106t-81 124t-21 149zM146 1428q-8 -48 11 -92t56 -84t88 -77t105 -71q0 144 -1 271t-3 219q-16 0 -32 -1t-32 -3q-76 -10 -128 -50t-64 -112zM520 896q0 -216 1 -423t5 -367q66 6 133 35t119 76t85 112t33 145q2 86 -29 146t-82 105 t-118 83t-135 82z" />
<glyph unicode="%" horiz-adv-x="1196" d="M36 1386q4 62 36 126t82 110q24 22 58 40t71 27t73 6t64 -23q96 -66 190 -78t178 2t153 43t113 45q14 14 36 11t41 -17t29 -36t-2 -44q-54 -102 -125 -236t-150 -283t-160 -302t-155 -296t-135 -266t-101 -209q-6 -12 -28 -11t-44 12t-36 28t-4 39q24 52 76 154t120 231 t146 276t153 291t142 273t115 223q-52 -18 -114 -33t-130 -18t-138 7t-138 42q0 -26 -18 -86t-55 -119t-93 -96t-132 -15q-68 20 -95 70t-23 112zM146 1358q-2 -46 28 -58q40 -18 73 17t56 87t34 105t9 73q-56 0 -101 -39t-71 -89t-28 -96zM706 170q-6 56 12 117t55 109 t91 74t120 12q54 -12 80 -52t29 -94t-15 -113t-52 -107t-82 -75t-106 -19q-62 10 -94 51t-38 97zM824 172q4 -44 32 -50q22 -6 45 10t40 43t29 60t15 63t-5 52t-30 28q-42 8 -72 -28t-44 -85t-10 -93z" />
<glyph unicode="&#x26;" horiz-adv-x="976" d="M52 1128q6 66 48 136t127 113t215 43t314 -74l-38 282q-12 34 2 52t36 22t44 -6t28 -32q2 -18 11 -66t18 -106t18 -117t15 -97q-6 -24 -25 -39t-41 -21t-43 -2t-31 16q-28 18 -80 35t-113 27t-127 9t-121 -19t-94 -57t-47 -103q-8 -58 16 -92t64 -51t91 -19t98 4t84 17 t49 23q14 8 30 -8t22 -41t-4 -51t-50 -38q-106 -32 -189 -106t-131 -164q-36 -68 -41 -149t23 -142t89 -85t155 22q98 48 169 140t125 240q12 30 33 42t42 8t37 -21t18 -43q10 -188 24 -322t18 -234q2 -20 -14 -32t-38 -15t-41 4t-21 29q-2 38 -4 92t-4 112t-5 116t-5 106 q-40 -88 -110 -170t-156 -132q-80 -46 -152 -53t-129 16t-97 72t-59 114t-14 141t41 154q34 78 88 142t118 98q-64 4 -119 25t-94 57t-59 85t-14 113z" />
<glyph unicode="'" horiz-adv-x="298" d="M63 1268q5 20 20 31t36 11t41 -14q42 -54 58 -106t15 -98t-13 -86t-26 -68q-16 -22 -38 -26t-41 4t-28 24t1 34q6 20 17 47t15 59t-6 68t-44 76q-12 24 -7 44z" />
<glyph unicode="(" horiz-adv-x="576" d="M28 610q-6 138 24 281t86 283t133 274t167 254q22 18 43 17t36 -12t19 -28t-8 -31q-72 -102 -143 -226t-126 -258t-86 -275t-25 -279q8 -156 74 -300t212 -264q12 -14 7 -30t-18 -28t-32 -19t-33 -1q-170 136 -246 299t-84 343z" />
<glyph unicode=")" horiz-adv-x="576" d="M36 1679q4 17 19 28t36 12t43 -17q90 -120 167 -254t133 -274t86 -283t24 -281q-8 -180 -84 -343t-246 -299q-16 -6 -34 1t-31 19t-18 28t7 30q146 120 212 264t74 300q6 138 -25 279t-86 275t-126 258t-143 226q-12 14 -8 31z" />
<glyph unicode="*" horiz-adv-x="788" d="M64 746q2 22 14 40t30 18l156 -4l-120 112q-12 14 -7 34t20 35t34 22t31 -7q26 -28 59 -63t63 -67l-8 178q0 18 18 28t39 11t39 -8t18 -27q-4 -40 -4 -89v-93l122 134q14 14 34 9t36 -20t22 -34t-8 -33q-28 -26 -62 -58t-64 -64l172 6q18 0 29 -18t12 -39t-8 -39t-29 -18 q-44 2 -92 4l-96 4q32 -30 66 -61t68 -57q18 -20 12 -41t-23 -35t-39 -18t-34 8l-114 120q2 -38 3 -81t5 -81q-2 -28 -21 -38t-41 -7t-40 15t-18 30l6 162q-24 -28 -54 -60t-52 -60q-20 -16 -41 -10t-34 23t-17 39t8 34l124 114q-40 -2 -86 -5t-84 -7q-26 2 -36 21t-8 41z " />
<glyph unicode="+" horiz-adv-x="800" d="M64 676q2 22 14 40t30 18h228v240q0 18 18 28t39 11t39 -8t18 -27q-4 -52 -6 -115t-2 -129l256 2q18 0 29 -18t12 -39t-8 -39t-29 -18q-114 6 -258 6q2 -64 5 -125t9 -119q-2 -28 -21 -38t-41 -7t-40 15t-18 30l-2 242q-122 -4 -228 -12q-26 2 -36 21t-8 41z" />
<glyph unicode="," horiz-adv-x="266" d="M51 158q5 20 20 31t36 11t41 -14q42 -54 58 -106t15 -98t-13 -86t-26 -68q-16 -22 -38 -26t-41 4t-28 24t1 34q6 20 17 47t15 59t-6 68t-44 76q-12 24 -7 44z" />
<glyph unicode="-" horiz-adv-x="664" d="M64 676q2 22 14 40t30 18l460 2q18 0 29 -18t12 -39t-8 -39t-29 -18q-62 4 -115 6t-107 1t-112 -5t-130 -10q-26 2 -36 21t-8 41z" />
<glyph unicode="." horiz-adv-x="286" d="M64 44q-6 26 14 49t49 32t59 1t42 -42q10 -28 -11 -50t-52 -32t-62 -2t-39 44z" />
<glyph unicode="/" d="M26 74q22 46 65 131t100 193t123 234t134 255t133 253t119 229t94 184t56 117q10 24 34 25t46 -12t34 -37t0 -48q-54 -102 -125 -236t-150 -283t-160 -302t-155 -296t-135 -266t-101 -209q-6 -12 -28 -11t-44 12t-36 28t-4 39z" />
<glyph unicode="0" horiz-adv-x="1018" d="M30 814q-2 166 32 327t101 287t169 202t238 72q122 -4 208 -88t138 -216t71 -296t5 -332q-12 -150 -49 -290t-98 -247t-145 -170t-188 -61q-120 2 -209 72t-149 184t-91 258t-33 298zM154 822q0 -130 24 -255t70 -224t115 -161t157 -64q74 -2 133 53t104 148t73 214 t38 247q12 142 -1 283t-51 255t-102 187t-156 77q-96 4 -170 -62t-126 -174t-80 -246t-28 -278z" />
<glyph unicode="1" horiz-adv-x="764" d="M17 50q1 20 12 37t29 17l266 2l10 1450l-174 -194q-16 -20 -37 -19t-37 15t-22 35t8 43l204 220q28 32 57 39t53 -5t41 -41t21 -67l-8 -1476l260 8q18 0 29 -18t12 -39t-8 -39t-29 -18q-62 4 -142 6t-167 2t-173 -4t-158 -10q-26 2 -37 19t-10 37z" />
<glyph unicode="2" horiz-adv-x="846" d="M42 122q6 32 24 54q94 112 183 252t164 286t131 289t82 260t19 198t-59 105q-62 28 -124 12t-118 -58t-100 -101t-68 -115q-6 -10 -23 -10t-35 8t-31 21t-9 29q24 88 93 165t156 125t178 58t155 -34q70 -46 93 -131t11 -192t-51 -230t-93 -249t-116 -245t-122 -219 t-109 -173t-75 -105l574 -2q20 2 31 -15t13 -38t-8 -40t-32 -23l-648 -6q-36 -2 -57 17t-28 47t-1 60z" />
<glyph unicode="3" horiz-adv-x="862" d="M25 184q5 18 19 31t33 17t33 -4q54 -68 118 -97t129 -27t127 30t111 74t81 105t38 123q10 112 -17 192t-74 131t-105 77t-112 30q-24 2 -39 17t-18 35t6 43t35 39q66 42 117 119t80 161t31 159t-28 113q-32 40 -89 37t-120 -40t-123 -104t-100 -155q-8 -18 -30 -18 t-42 12t-31 31t5 39q78 138 166 217t171 109t154 14t117 -70q90 -104 62 -278t-204 -388q94 -32 157 -90t100 -128t49 -149t4 -153q-12 -104 -60 -188t-118 -142t-155 -88t-170 -27t-164 41t-137 116q-12 16 -7 34z" />
<glyph unicode="4" horiz-adv-x="838" d="M19 721q3 27 23 51l600 890q24 30 51 39t48 4t35 -21t14 -36l12 -1614q2 -20 -17 -30t-43 -10t-44 12t-20 36l4 560l-586 2q-22 4 -41 22t-29 43t-7 52zM160 728q20 0 66 1t103 2t118 2t113 1h86h36v780z" />
<glyph unicode="5" horiz-adv-x="1004" d="M30 225q8 21 24 32t36 10t30 -17q58 -80 152 -121t196 -37q80 2 148 28t117 68t79 98t36 120q14 150 -45 251t-158 157t-221 68t-234 -14q-34 -8 -60 -11t-45 5t-28 28t-5 60q0 24 7 98t17 170t22 198t22 182q6 50 36 76t104 22h654q20 2 31 -14t12 -35t-9 -36t-34 -17 l-686 -12l-64 -598q186 42 342 10t266 -116t163 -210t35 -274q-10 -82 -50 -157t-105 -132t-156 -90t-203 -33q-120 0 -230 46t-192 148q-12 28 -4 49z" />
<glyph unicode="6" horiz-adv-x="924" d="M14 614q2 198 65 378t168 324t247 244t304 140q20 10 35 -5t19 -39t-6 -47t-40 -31q-130 -32 -231 -99t-176 -151t-126 -176t-82 -174t-44 -145t-13 -91q48 26 104 46t115 32t117 15t112 -7q118 -22 190 -88t102 -154t21 -186t-55 -183t-126 -145t-190 -72 q-122 -14 -217 28t-161 126t-100 203t-32 257zM124 608q-6 -90 15 -186t70 -173t128 -121t193 -26q72 10 127 55t89 108t44 134t-9 136t-68 115t-135 68q-82 18 -198 -4t-256 -106z" />
<glyph unicode="7" horiz-adv-x="926" d="M18 1595q-4 19 5 38t37 27q2 0 53 3t127 7t166 9t171 9t139 7t72 3q46 0 70 -21t34 -48t9 -55t-5 -42l-194 -658q36 4 76 5t86 5q18 0 29 -18t12 -39t-8 -39t-29 -18l-198 -4l-216 -734q-8 -26 -30 -30t-43 5t-35 26t-8 33q62 212 113 383t93 313l-196 -2q-26 2 -37 19 t-10 37t12 37t29 17q60 -6 116 -7t116 3q52 174 87 298t58 208t33 133t10 77l-684 -36q-24 0 -40 15t-20 34z" />
<glyph unicode="8" horiz-adv-x="842" d="M18 354q0 96 37 199t109 203t176 184q-44 34 -90 79t-83 96t-63 107t-32 112q-6 74 12 143t63 121t117 80t174 22q92 -6 153 -40t94 -87t42 -119t-1 -136q-8 -50 -31 -102t-55 -102t-69 -94t-71 -78q132 -108 214 -231t100 -247q14 -96 -6 -182t-72 -151t-137 -101 t-201 -30q-130 6 -214 55t-125 126t-41 173zM138 410q-4 -60 9 -114t45 -96t84 -69t124 -31q92 -6 155 22t99 78t46 118t-2 144q-12 66 -39 124t-64 109t-83 94t-96 79q-116 -98 -192 -212t-86 -246zM182 1358q2 -46 23 -96t54 -97t75 -87t86 -66q32 22 64 57t59 77t47 89 t26 93q6 50 -1 97t-29 85t-59 61t-91 27q-60 2 -108 -15t-81 -50t-51 -78t-14 -97z" />
<glyph unicode="9" horiz-adv-x="1018" d="M29 1045q-7 79 32 162t112 165t162 149t182 112t173 57q136 20 219 -23t77 -133q4 -114 2 -247t-9 -273t-16 -280t-17 -270t-15 -242t-9 -194q-6 -22 -28 -34t-46 -12t-41 12t-11 38q28 304 49 617t31 593q-28 -54 -80 -114t-118 -114t-142 -96t-152 -62t-148 -10 t-130 60q-70 60 -77 139zM147 1110q-13 -66 29 -108q46 -46 115 -45t146 36t154 98t138 140t99 163t38 168q-76 30 -168 12t-183 -67t-171 -118t-132 -141t-65 -138z" />
<glyph unicode=":" horiz-adv-x="340" d="M72 842q-6 26 14 49t49 32t59 1t42 -42q10 -28 -11 -50t-52 -32t-62 -2t-39 44zM88 478q-6 26 14 49t49 32t59 1t42 -42q10 -28 -11 -50t-52 -32t-62 -2t-39 44z" />
<glyph unicode=";" horiz-adv-x="308" d="M40 424q-6 26 14 49t49 32t59 1t42 -42q10 -28 -11 -50t-52 -32t-62 -2t-39 44zM79 200q5 20 20 31t36 11t41 -14q42 -54 58 -106t15 -98t-13 -86t-26 -68q-16 -22 -38 -26t-41 4t-28 24t1 34q6 20 17 47t15 59t-6 68t-44 76q-12 24 -7 44z" />
<glyph unicode="&#x3c;" horiz-adv-x="676" d="M63 602q-9 44 33 94l408 322q18 8 34 -2t27 -26t14 -35t-7 -27l-390 -310q20 -12 80 -43t127 -66t127 -66t80 -45q18 -4 22 -23t-2 -39t-22 -34t-40 -4l-432 230q-50 30 -59 74z" />
<glyph unicode="=" horiz-adv-x="704" d="M72 496q2 22 14 40t30 18l460 2q18 0 29 -18t12 -39t-8 -39t-29 -18q-62 4 -115 6t-107 1t-112 -5t-130 -10q-26 2 -36 21t-8 41zM72 878q2 22 14 40t30 18l460 2q18 0 29 -18t12 -39t-8 -39t-29 -18q-62 4 -115 6t-107 1t-112 -5t-130 -10q-26 2 -36 21t-8 41z" />
<glyph unicode="&#x3e;" horiz-adv-x="716" d="M64 375q4 19 22 23q20 14 80 45t127 66t127 66t80 43l-390 310q-10 8 -7 27t14 35t27 26t34 2l408 -322q42 -50 33 -94t-59 -74l-432 -230q-24 -10 -40 4t-22 34t-2 39z" />
<glyph unicode="?" horiz-adv-x="938" d="M31 1464q-5 20 5 32q68 116 175 165t215 41q82 -6 167 -36t154 -90t114 -153t49 -223q2 -64 -19 -145t-77 -162t-151 -152t-243 -115l4 -190q2 -16 -15 -27t-40 -14t-45 6t-32 35l-8 186v43t5 38t19 28t40 13q70 6 147 38t141 91t106 145t42 200q0 84 -29 147t-78 108 t-112 72t-131 35q-88 10 -175 -29t-139 -133q-18 -16 -37 -11t-33 21t-19 36zM290 52q-6 26 14 49t49 32t59 1t42 -42q10 -28 -11 -50t-52 -32t-62 -2t-39 44z" />
<glyph unicode="@" horiz-adv-x="1356" d="M58 544q-14 122 3 246t58 238t106 215t147 175t180 117t208 43q114 0 205 -47t159 -125t112 -178t63 -205t13 -208t-38 -186t-91 -139t-145 -66q-54 -6 -95 11t-69 50t-43 79t-15 98q-24 -32 -62 -72t-83 -72t-97 -49t-106 -5q-76 16 -105 73t-24 132t41 159t91 155 t123 120t140 55q30 2 66 -7t66 -31t47 -58t9 -86q-6 -164 1 -252t22 -129t36 -47t41 -6q78 4 122 74t53 172t-14 219t-79 217t-142 165t-202 63q-102 -2 -186 -47t-151 -119t-115 -167t-78 -190t-40 -192t0 -169q12 -100 54 -179t102 -134t133 -82t150 -21t151 47t138 123 q18 8 37 4t33 -18t20 -35t-4 -45q-80 -102 -177 -151t-198 -54t-197 32t-175 106t-132 167t-67 216zM470 649q2 -45 34 -53q60 -14 116 27t100 108t72 144t30 133q-44 40 -94 27t-96 -56t-84 -105t-59 -121t-19 -104z" />
<glyph unicode="A" horiz-adv-x="1224" d="M24 525q2 151 31 308t82 310t127 276t168 205t204 98q23 3 44 3q57 0 101 -23q61 -32 105 -89t71 -129t43 -138q24 -110 45 -234t39 -253t34 -254t31 -238t27 -205t24 -154q1 -3 1 -5q0 -13 -17 -23q-20 -12 -46 -17q-13 -2 -25.5 -2.5t-23.5 2.5q-23 5 -25 27 q-12 96 -28 230t-34 276t-38 275t-38 223q-62 -226 -123 -391t-118 -279t-110 -185t-103 -109t-96 -49q-34 -8 -65 -8q-11 0 -23 1q-94 8 -152 85t-86 196q-26 111 -26 250v20zM156 358q12 -110 48 -180t100 -78q5 -1 10 0q51 0 105 54q59 60 116 160t109 228t96 257t77 246 t51 197v17q0 39 -7 85q-9 56 -32 107t-61 88t-94 47q-14 2 -28 2q-65 0 -125 -45q-73 -55 -134 -155t-109 -232t-79 -273t-43 -278q-6 -68 -6 -130t6 -117z" />
<glyph unicode="B" horiz-adv-x="1084" d="M36 1568q-3 9 -3 19q0 12 4 24q7 23 37 39q64 16 146 29t167 14h12q79 0 156 -12q83 -13 150 -47t112 -93t55 -149q2 -20 2 -39q0 -78 -33 -142q-41 -79 -107 -138t-141 -97t-133 -56q26 3 54 2q59 0 129 -11q103 -17 195 -67t155 -137q61 -84 61 -209v-8 q-2 -138 -67 -232t-180 -152t-272 -83t-341 -25q-42 0 -61 20t-18 45t22 46t57 21q6 38 6 114t-2 167t-4 188q-1 48 -1 92.5t1 84.5q-32 26 -40 54t-3 50t18 39t25 23v616l-110 -24q-12 -8 -27 3t-21 31zM308 1580l8 -598q68 10 146 43t143 84t107 117q40 63 40 135v7 q-4 74 -43 121t-101 71t-140 28q-20 1 -39 1q-59 0 -121 -9zM320 784l8 -656q26 -1 51 -1q112 0 203 22q112 27 190 77t119 120t41 152q0 70 -33 125t-85 93t-118 62t-134 32q-36 4 -71 4q-30 0 -60 -3q-63 -7 -111 -27z" />
<glyph unicode="C" horiz-adv-x="1034" d="M20 760q4 110 28 221t67 214t102 192t134 157t164 108t191 44h9q66 0 115 -27q52 -29 85 -79t46 -116q8 -41 8 -82q0 -26 -3 -52q-6 -26 -27 -36t-44 -8t-40 12t-13 26q4 31 4 61q0 15 -1 30q-3 45 -18 79t-45 54q-27 18 -69 18h-9q-86 -4 -161 -42t-136 -100t-110 -145 t-81 -177q-24 -70 -39 -145t-21 -150q-4 -50 -4 -98q0 -24 1 -48q3 -71 13 -131q14 -82 46 -162t83 -142t123 -97q59 -28 132 -29q17 0 34 2q100 10 184 72t136 150q14 18 35 15t38 -17t25 -33q4 -10 4 -18.5t-4 -16.5q-34 -62 -85 -114t-113 -89t-132 -55q-52 -14 -106 -14 q-18 0 -36 2q-146 12 -246 80t-161 174t-85 239q-19 106 -19 217q0 28 1 56z" />
<glyph unicode="D" horiz-adv-x="1150" d="M20 1550q-1 5 -1 10q0 25 28 40q33 18 77 30v72q0 18 19 29t41 12h5q19 0 36 -7q19 -8 21 -28v-46q113 24 217 24q85 0 163 -16q174 -36 294 -150t173 -305q33 -119 33 -267q0 -89 -12 -188q-20 -162 -103 -297t-203 -230t-266 -143q-121 -40 -242 -40l-50 2l-2 -28 q0 -16 -19 -25t-41 -11h-9q-17 0 -31 6q-18 8 -16 24v58q-46 10 -81 29q-30 16 -30 43q0 5 1 10q12 44 40 49q13 2 28 2q18 0 40 -3l-6 1294q-18 -2 -33 -2q-19 0 -33 3q-26 5 -38 49zM246 1530l10 -1342q31 -10 74 -10q18 0 39 2q69 6 147 33t157 77t147 123t115 171 t61 222q6 55 6 114q0 41 -3 83q-7 103 -38 198t-87 176t-142 130t-207 59q-22 2 -44 2q-105 0 -235 -38z" />
<glyph unicode="E" horiz-adv-x="918" d="M13 777q-1 4 -1 9q0 19 11 39q13 25 49 49q0 162 19 309t68 260t136 181t225 74q58 4 139 4h145q30 0 44 -16t14 -35t-14 -36t-40 -17q-68 -2 -137 -2t-153 -10q-112 -12 -174 -86t-93 -177t-39 -218t-10 -205h6q19 0 61 10q49 12 112 29t130 35t123 30q34 8 50 -3 t16 -30t-13 -39t-37 -28q-10 -6 -44 -17t-81 -25t-100 -30t-100 -30t-82 -24t-45 -14q4 -54 4 -122t5 -141t19 -143t44 -125t80 -89t130 -36q30 0 78 7t99 18t97 22t76 19q16 6 32 -8t23 -35q4 -13 4 -27q0 -8 -1 -16q-4 -22 -30 -32q-40 -16 -102 -26t-124 -18t-112 -11 t-62 -3q-90 0 -154 34t-107 91t-67 131t-36 153t-15 159t-3 150q-26 6 -43 22t-20 39z" />
<glyph unicode="F" horiz-adv-x="1250" d="M46 4q1 67 1 143v79v49q0 99 3 203q4 130 17 263t44 255t83 227t136 183q54 50 125 104t172 97t234 70q116 24 266 24q22 0 45 -1q4 1 8 1q19 0 30 -17q14 -20 17 -46q1 -8 1 -15q0 -17 -5 -32q-7 -21 -23 -17q-13 -1 -31.5 -1t-41.5 1q-19 1 -40 1q-32 0 -71 -2 q-64 -3 -139 -15t-154 -41t-159 -79t-152 -130q-94 -104 -155 -262t-71 -394q46 6 113 17t145 26t160 34t158 41q22 0 36 -12t19 -29t0 -35t-19 -30q-44 -16 -123 -35t-168 -38t-178 -37t-151 -30l-3 -21t-4 -76v-30q0 -49 2 -123q3 -98 17 -254q-6 -30 -30 -43t-51 -13 t-47 11q-17 9 -17 23q0 3 1 6z" />
<glyph unicode="G" horiz-adv-x="1088" d="M0 -416q4 22 22 35t39 17t39 0t20 -18v-28q0 -45 4 -101q6 -75 30 -143t69 -115t121 -47q170 0 273 89t161 293t81 533t33 809q-22 -52 -57 -125t-82 -151t-105 -154t-126 -135t-144 -93q-62 -28 -127 -28q-15 0 -31 2q-92 8 -136 87t-48 200v27q0 111 28 243 q32 149 91 299t141 285t180 227t206 128q45 15 91 15q63 0 127 -29q10 1 20 1q46 0 81 -23q43 -28 45 -80q1 -51 1 -109q0 -87 -2 -190q-3 -171 -10 -359t-17 -377t-21 -350t-21 -282t-18 -171q-58 -368 -204 -538q-135 -157 -379 -157q-20 0 -41 1q-96 2 -164 49t-109 121 t-56 164q-9 54 -9 107q0 36 4 71zM176 596q-3 -33 -3 -62q0 -57 11 -100q16 -64 64 -68q8 -1 16 -1q55 0 114 36q68 41 133 113t126 168t111 202t86 213t54 202q14 74 14 135q0 17 -1 33q-5 73 -37 111q-49 23 -96 23q-35 0 -69 -12q-81 -29 -154 -106t-137 -188t-113 -233 t-80 -245t-39 -221z" />
<glyph unicode="H" horiz-adv-x="1134" d="M9 897q3 23 17 39t34 14q10 -2 20 -2h20l20 720q6 30 27 40q16 8 33 8q5 0 10 -1q22 -3 38 -17t14 -34l-16 -720q93 -2 181 -2q66 0 131 1q150 3 292 15q-10 176 -14 351t-8 351q-4 20 13 34t39 17t43 -7t27 -40q4 -176 7 -349t13 -347l32 4l32 4q24 2 38 -18t15 -45 t-11 -47t-40 -24q-16 -2 -29 -3t-27 -1q16 -200 45 -394t87 -386q2 -5 2 -9q0 -12 -13 -21q-17 -12 -42 -15t-48 2t-29 17q-52 196 -80 395t-44 405q-156 -8 -308 -11q-65 -1 -131 -1q-87 0 -175 2l-14 -786q-2 -24 -24 -35q-20 -10 -43 -10h-4q-25 1 -44 13t-17 32l20 788 q-10 0 -20 1t-20 1q-30 6 -41 27q-9 16 -9 34q0 5 1 10z" />
<glyph unicode="I" horiz-adv-x="752" d="M21 1679q11 17 29 17q60 -6 136 -6t160 2t173 6t173 8q18 0 29 -18t12 -39t-8 -39t-29 -18l-272 -6l16 -1480l260 8q18 0 29 -18t12 -39v-4q0 -19 -8 -35q-9 -18 -29 -18q-62 4 -142 6t-167 2t-173 -4t-158 -10q-26 2 -37 19t-10 37t12 37t29 17l260 2l-12 1482l-250 -2 q-26 2 -37 19q-10 16 -10 34q0 21 12 40z" />
<glyph unicode="J" horiz-adv-x="968" d="M53 763q-1 39 -1 73q0 45 2 82q2 18 21 32t40 16t39 -13t18 -55q0 -66 6 -148t18 -167t32 -165t49 -144t68 -103t89 -41h11q58 0 111 19q58 21 105 81t82 167t54 275t20 405v23q0 229 -19 536q2 32 20 47t40 16h3q20 0 37 -11q18 -12 20 -36q2 -62 8 -168t10 -236 q3 -87 3 -180q0 -47 -1 -95q-2 -145 -18 -286t-49 -268t-90 -222t-141 -148q-73 -46 -173 -46q-15 0 -31 1q-88 6 -150 58t-106 132t-70 180t-40 199t-17 190z" />
<glyph unicode="K" horiz-adv-x="1096" d="M40 1614q0 30 18 48t41 24q11 3 21 3q12 0 22 -4q20 -7 22 -31q6 -76 12 -176t12 -209t13 -219t13 -206q32 24 86 80t119 129t135 156t135 161t120 145t87 109q14 14 38 12t42 -16t26 -37t-10 -47l-710 -818l764 -382q28 -4 31 -26q1 -5 1 -9q0 -17 -9 -36 q-11 -23 -31 -39t-38 -10l-776 376l-16 -554q-4 -16 -22 -28t-40 -16q-8 -1 -16 -1q-13 0 -25 4q-19 7 -23 29q2 210 4 408q1 99 1 197t-1 195q-2 194 -12 389t-34 399z" />
<glyph unicode="L" horiz-adv-x="652" d="M44 1654q-1 4 -1 8q0 20 18 31t40 11h7q26 -2 48 -17t22 -43q0 -162 3 -364t5 -408t2 -402t-6 -346q66 -2 130 -2t117 2t91 6t54 8q24 6 38 -11t16 -41v-9q0 -19 -7 -38q-9 -23 -33 -25q-38 -6 -90 -9t-109 -5t-117 -4t-114 -2q-11 -1 -20 -1q-46 0 -65 16q-23 19 -23 51 q0 60 2 182t4 276t4 325q1 114 1 222v107q-1 158 -5 286t-12 196z" />
<glyph unicode="M" horiz-adv-x="1424" d="M64 16l40 1524q2 24 31 43t64 26q16 3 32 3q18 0 34 -4q31 -8 35 -38q4 -26 17 -97t34 -163t49 -192t61 -183t72 -137t81 -56h4q56 0 109 53q55 55 104 142t91 194t75 211t56 191t35 135q8 28 39 36q15 4 30 4q17 0 34 -5q33 -9 58 -30t21 -51q0 -104 -1 -232t-1 -266 t5 -281t20 -278t42 -255t71 -214q4 -10 4 -20q0 -13 -7 -26q-13 -22 -35 -34t-49 -11t-45 23q-32 60 -55 166t-38 237t-22 277t-11 284t-4 259t2 203q-42 -172 -100 -325t-127 -270t-147 -185t-162 -68q-58 0 -107 41t-89 107t-72 151t-57 172t-42 169t-27 144 q-4 -88 -6 -214t-5 -267t-5 -287t-3 -273t-2 -223v-58q0 -52 1 -80q-12 -22 -35 -30q-14 -5 -28 -5q-9 0 -17 2q-22 5 -38 21q-14 14 -14 35v5z" />
<glyph unicode="N" horiz-adv-x="1400" d="M33 185q3 115 10 271t17 335t18 343t14 295t6 191q12 40 42 54q23 11 49 11q7 0 15 -1q34 -4 65 -26t43 -54q20 -42 42 -128t47 -198t55 -240t66 -255t80 -245t97 -208t117 -144t140 -54q74 0 127 51t89 136t55 197t23 235q1 38 1 76q0 86 -6 173q-9 126 -30 239t-52 205 t-69 148q-26 26 -21 53t27 43q20 14 46 14h7q31 -2 59 -34q38 -52 69 -148t53 -220t32 -266q6 -89 6 -177q0 -53 -2 -106q-6 -141 -29 -271t-69 -233t-115 -167t-165 -72q-19 -2 -37 -2q-123 0 -215 71q-106 81 -191 261t-161 463t-162 673q-18 -266 -29 -509t-18 -437 t-9 -325t-2 -171q-8 -22 -30 -34t-44 -12t-40 12t-20 36q-2 21 -2 67q0 35 1 84z" />
<glyph unicode="O" horiz-adv-x="1060" d="M28 768q-1 27 -1 55q0 89 10 176q13 115 42 220t74 195t107 155t139 101q69 32 152 32h19q138 -6 233 -96t151 -230t72 -314q7 -77 8 -154q0 -96 -12 -192q-18 -144 -60 -277t-107 -233t-153 -160q-82 -56 -184 -56h-14q-116 2 -203 69t-146 175t-91 247t-36 287z M158 734q6 -118 30 -228t67 -195t106 -137t145 -54h11q70 0 130 46q65 50 115 135t83 197t49 234q12 94 12 189q0 53 -4 106q-10 149 -51 269t-114 196t-179 80h-10q-96 0 -170 -70q-78 -74 -129 -194t-74 -272q-18 -121 -18 -240q0 -31 1 -62z" />
<glyph unicode="P" horiz-adv-x="990" d="M42 40l20 1312q2 134 62 217t152 122q88 37 191 37h11q110 -2 212 -40q138 -52 202 -150t64 -218q0 -138 -72 -262t-185 -220t-251 -155t-272 -69q-2 -12 -3 -55t-1 -101t1 -125t1 -125v-101v-55q-6 -30 -28 -42q-20 -11 -42 -11h-4q-24 1 -42 13t-16 28zM178 811 q0 -45 2 -67h17q96 0 201 42q114 46 210 126t160 183t70 215v14q0 78 -41 144q-45 72 -155 116q-72 28 -149 31h-16q-68 0 -126 -23q-65 -26 -108 -83t-45 -149q-2 -32 -4 -85t-4 -114t-5 -125t-5 -122t-2 -103z" />
<glyph unicode="Q" horiz-adv-x="1052" d="M27 863q5 161 41 315t104 272t168 188q92 64 210 64h20q132 -6 225 -90t149 -215t76 -295q12 -96 12 -194q0 -68 -6 -137q-14 -167 -61 -321t-125 -264q38 -54 69 -100t51 -72q14 -18 4 -39t-29 -36t-43 -17h-4q-21 0 -34 20l-100 144q-52 -46 -115 -72q-59 -24 -125 -24 h-10q-124 2 -216 79t-152 200t-87 278q-23 131 -23 266q0 25 1 50zM163 860q-1 -30 -1 -59q0 -105 14 -208q18 -131 61 -235t110 -169t159 -69q8 -1 16 -1q41 0 77 18q43 21 81 59l-144 216q-10 26 1 44t31 26t43 6t39 -16q16 -24 45 -69t65 -99q54 96 88 227t45 271 q5 64 5 127q0 75 -7 149q-13 136 -54 244t-110 177t-169 73h-11q-85 0 -152 -56q-71 -60 -121 -160t-78 -230t-33 -266z" />
<glyph unicode="R" horiz-adv-x="958" d="M25 505q3 23 20 46t37 41q4 38 5 95t1 123v139t4 145q2 78 11 160t34 157t70 140t123 109q84 48 177 56q16 1 31 1q77 0 148 -33q72 -34 120 -99t67 -147q12 -52 12 -108q0 -32 -4 -66q-11 -92 -57 -180q-62 -116 -147 -211t-172 -167t-167 -119t-130 -69l664 -70 q28 -6 38 -27q8 -16 8 -33q0 -5 -1 -10q-3 -22 -18 -39t-35 -15l-660 66l2 -416q-6 -10 -20 -18t-32 -10h-7q-15 0 -28 7q-17 9 -29 33v45t-1 80q0 22 -0.5 46.5t0.5 50.5t1 50t-1 47q-1 45 -1 79v46q-40 12 -53 32q-11 16 -11 34q0 5 1 9zM204 656q38 16 110 62t151 114 t152 153t113 177q30 66 35 128q1 16 1 30q0 45 -11 86q-15 54 -48 95t-81 65q-50 24 -102 24q-12 0 -24 -1q-64 -7 -116 -41q-54 -36 -84 -85t-47 -109t-23 -126t-10 -134q-4 -76 -8 -182t-8 -256z" />
<glyph unicode="S" horiz-adv-x="1066" d="M24 1448q6 62 32 108t68 77t95 49t111 24q26 2 51 2q90 0 173 -28q106 -36 190 -106t141 -170t77 -218q2 -20 -13 -34t-36 -19t-40 3t-27 30q-24 92 -66 174t-104 142t-146 91q-58 21 -127 21q-31 0 -65 -4q-76 -10 -128 -50t-64 -112q-2 -14 -2 -27q0 -51 30 -96 q38 -57 101 -108t140 -99t145 -92q82 -54 166 -102t153 -106t112 -131t43 -177v-8q0 -115 -54 -208q-56 -96 -144 -160t-193 -95q-88 -26 -168 -26q-16 0 -31 1q-80 6 -162 36t-140 92t-80 158q-8 35 -8 76q0 70 24 156q8 26 30 32t44 0t38 -23t10 -35q-17 -64 -17 -119 q0 -79 36 -138q61 -99 221 -121q24 -3 48 -3q51 0 106 14q80 21 147 69t111 120t44 166q-4 78 -36 134t-85 102t-119 86t-134 84q-88 56 -180 114t-166 126t-118 148q-36 65 -36 144q0 17 2 36z" />
<glyph unicode="T" horiz-adv-x="1234" d="M22 1508v8q0 14 5 28q7 18 25 24l1126 130h5q18 0 27 -14q10 -16 12 -36v-10q0 -14 -4 -27q-6 -17 -16 -17l-544 -64l20 -1478q4 -18 -15 -31t-42 -17q-8 -1 -16 -1q-14 0 -27 4q-20 7 -18 27l-20 1482l-476 -56q-18 2 -29 16t-13 32z" />
<glyph unicode="U" horiz-adv-x="914" d="M32 1023q0 127 7 243t20 217t29 175q4 18 26 24t46 2t42 -18t14 -38q-40 -200 -54 -421q-7 -103 -7 -203q0 -114 9 -222q10 -140 33 -261t61 -211t90 -140t122 -50q50 0 92 48t74 128t56 188t40 228q18 128 25 263q5 105 5 204v56q-2 125 -13 232t-31 181q-6 20 13 33 t45 15h9q21 0 40 -8q23 -10 27 -36q10 -66 18 -173t11 -236q1 -48 1 -99q0 -84 -3 -172q-5 -142 -23 -280t-44 -262t-70 -219t-109 -153t-159 -62q-9 -1 -18 -1q-93 0 -161 58q-75 63 -127 171t-83 251t-43 297q-10 124 -10 251z" />
<glyph unicode="V" horiz-adv-x="1044" d="M22 1630q-2 11 -2 20q0 21 12 34q18 18 43 18t50 -18t31 -54q18 -112 50 -267t69 -322t76 -330t72 -292t57 -208t32 -77q16 24 49 125t74 244t85 313t82 332t64 300t32 218q2 30 23 41q14 8 30 8q7 0 15 -2q24 -5 42 -26q12 -15 12 -35q0 -9 -2 -20q-10 -60 -28 -156 t-43 -211t-55 -245t-62 -259t-65 -251t-64 -223t-59 -174t-50 -103q-14 -18 -38 -28t-50 -10t-50 11t-38 35q-18 30 -41 103t-50 175t-57 226t-59 254t-57 260t-53 244t-45 205t-32 145z" />
<glyph unicode="W" horiz-adv-x="1348" d="M28 818q0 152 11 299t23 264t22 191t10 82q0 20 21 32t46 14h7q21 0 37 -10q19 -12 15 -40q-58 -384 -65 -672q-1 -59 -1 -114q0 -213 21 -364q27 -190 78 -282q47 -85 98 -84h9q48 8 90 67t76 140t60 170t44 157q12 42 34 63t46 22t43 -16t23 -47q6 -44 13 -101t18 -117 t26 -118t36 -104t49 -74q26 -26 61 -26h5q54 0 92 76t61 198t28 278q1 46 1 92q0 112 -8 227q-12 163 -44 319t-84 280q-14 14 -3 34t32 33t48 13t45 -24q62 -162 98 -348t46 -372q4 -72 4 -141q0 -111 -10 -216q-16 -171 -57 -301t-108 -206q-64 -72 -148 -72h-9 q-48 2 -94 29t-85 75t-67 114t-40 148q-10 -40 -42 -108t-77 -134t-99 -113q-50 -43 -101 -43h-9q-98 6 -161 79t-99 189t-51 263t-15 299z" />
<glyph unicode="X" horiz-adv-x="1176" d="M0 1632q-3 10 -3 20q0 14 7 24q12 18 32 25t43 3t37 -20q6 -10 33 -52t67 -103t89 -136t99 -148t95 -140t77 -113l340 704q14 16 37 20q8 1 16 1q14 0 27 -4q20 -7 31 -25t3 -44l-374 -772q32 -44 78 -116t99 -155t107 -170t99 -159t76 -121t37 -59q10 -13 10 -31 q0 -6 -1 -14q-5 -27 -21 -47t-39 -25q-3 -1 -7 -1q-20 0 -40 24l-470 736l-354 -716q-24 -36 -52 -42q-8 -2 -16 -2q-18 0 -33 10q-21 14 -31 43q-4 11 -4 23q0 19 10 40q40 72 90 166t103 197t105 207t98 198z" />
<glyph unicode="Y" d="M29 452q-7 90 -7 194q0 148 14 326q24 304 80 676q4 24 26 38t46 13t43 -19t17 -58q-22 -122 -43 -278t-35 -321t-17 -323q-1 -28 -1 -55q0 -125 12 -229q14 -126 49 -204t99 -82h11q56 0 111 38q60 42 112 111t97 154t79 167t56 151t30 107q4 22 7 83t5 142t3 172t1 172 t1 143t3 84q2 26 22 39q19 12 41 12h3q24 -1 43 -13t17 -36q-4 -40 -5 -108t-1 -150t1 -173t2 -179t2 -166t1 -134q0 -86 1 -220v-54q0 -111 -3 -235q-4 -155 -16 -318t-40 -305q-24 -116 -67 -217t-106 -174t-145 -115t-184 -42q-66 0 -120 29t-95 71t-67 87t-34 79 q-6 30 6 53t31 32t39 2t32 -35q8 -18 23 -51t41 -66t63 -57t89 -24q74 0 133 35t105 98t79 147t53 182q26 126 38 254t17 248q4 100 4 190v36q-1 106 -1 188q-20 -76 -71 -176t-123 -189t-159 -150q-82 -57 -169 -57h-12q-120 4 -185 124t-82 336z" />
<glyph unicode="Z" horiz-adv-x="1140" d="M26 138v7q0 32 16 79q18 52 49 115t71 129t81 127t80 111t67 78l-148 4q-28 8 -36 26t-3 38t21 35t36 19q27 -3 71 -3h23q60 1 136 1q10 18 47 65t87 110t105 136t104 140t84 123t45 88q2 10 -48 14t-131 4t-180 -3t-193 -8t-172 -10t-114 -7q-20 2 -31 21t-14 40t4 39 t25 20q36 2 97 5t134 4t154 3t155 3t136 3t100 4q22 1 43 1q124 0 152 -53q11 -21 11 -47q0 -53 -44 -129q-40 -70 -103 -158t-126 -170t-115 -146t-70 -88q32 0 72 1t60 1q26 4 37 -16t10 -45t-13 -46t-36 -19l-222 4q-34 -34 -76 -87t-86 -115t-85 -127t-72 -124t-47 -106 q-11 -31 -10 -52q0 -11 2 -19q8 -28 74 -42t163 -17q42 -1 86 -1q59 0 122 2q111 4 209 9t167 8q30 1 49 1q26 0 34 -2q18 -8 25 -26q5 -13 5 -26q0 -6 -1 -11q-3 -19 -15 -33t-32 -14q-28 1 -57 1q-73 0 -153 -4q-112 -5 -225 -8q-85 -2 -165 -2h-53q-105 1 -186 15 t-132 44t-55 86z" />
<glyph unicode="[" horiz-adv-x="648" d="M34 -88q0 38 1 125t3 206t4 262t3 293t1 299t-1 282t-3 241t-8 174q0 32 23 51t85 15q54 0 114 -2t117 -4t109 -5t90 -9q24 -4 33 -26t7 -46t-16 -41t-38 -11q-16 4 -53 8t-90 6t-116 2t-129 -2q0 -108 1 -254t2 -309t1 -333v-329t-2 -296t-6 -233q66 -2 130 -2t117 2 t91 6t54 8q24 6 38 -11t16 -41t-7 -47t-33 -25q-38 -6 -90 -9t-109 -5t-117 -4t-114 -2q-62 -4 -85 15t-23 51z" />
<glyph unicode="\" d="M28 1598q-12 24 0 48t34 37t46 12t34 -25q16 -38 56 -117t94 -184t119 -229t133 -253t134 -255t123 -234t100 -193t65 -131q10 -22 -4 -39t-36 -28t-44 -12t-28 11q-40 86 -101 209t-135 266t-155 296t-160 302t-150 282t-125 237z" />
<glyph unicode="]" horiz-adv-x="668" d="M56 -62q2 24 16 41t38 11q14 -4 53 -8t92 -6t117 -2t130 2q-4 96 -6 233t-2 296v329t1 333t2 308t1 255q-66 2 -129 2t-116 -2t-91 -6t-52 -8q-24 -6 -38 11t-16 41t7 46t33 26q38 6 90 9t109 5t117 4t114 2q62 4 85 -15t23 -51q-6 -66 -8 -174t-3 -241t-1 -282t1 -299 t3 -293t4 -262t3 -206t1 -125q0 -32 -23 -51t-85 -15q-54 0 -114 2t-117 4t-109 5t-90 9q-24 2 -33 25t-7 47z" />
<glyph unicode="^" horiz-adv-x="406" d="M32 689q-12 17 0 41l76 128q34 46 79 50t91 -42l78 -142q6 -18 -5 -34t-29 -25t-36 -10t-26 11l-68 122l-64 -110q-6 -18 -26 -20t-39 6t-31 25z" />
<glyph unicode="_" horiz-adv-x="814" d="M38 46q2 22 14 40t30 18h636q18 0 29 -18t12 -39t-8 -39t-29 -18q-62 4 -142 6t-167 2t-173 -4t-158 -10q-26 2 -36 21t-8 41z" />
<glyph unicode="`" horiz-adv-x="278" d="M58 1274q-6 18 5 36t29 29t36 10t28 -19l102 -172q6 -18 -5 -34t-29 -25t-36 -10t-26 11z" />
<glyph unicode="a" horiz-adv-x="948" d="M34 313v14q0 83 22 174q24 99 68 193q42 90 101 170t126 134t141 77q40 12 79 12l69 -9q52 -10 71 -41t29 -83q26 -168 49 -287t45 -210t44 -162t50 -141q5 -12 5 -25t-5 -27q-10 -28 -30 -46t-43 -21t-37 21q-18 32 -33 69t-31 88t-36 119t-48 162q-24 -54 -52 -113 t-62 -115q-36 -58 -77 -108t-89 -83t-103 -44q-20 -4 -40 -4q-37 0 -77 13q-70 40 -102 112t-34 161zM165 335v-8q0 -52 12 -94q13 -45 43 -67q17 -13 36 -13q10 0 20 3q30 10 61 41t63 77t64 100q46 78 84 168t56 172q12 57 12 104q0 21 -2 41q-8 63 -54 85q-19 9 -38 9 q-25 0 -51 -14q-47 -25 -93 -78t-88 -127t-72 -152q-24 -62 -38 -126t-15 -121z" />
<glyph unicode="b" horiz-adv-x="890" d="M17 878q13 20 35 35t46 25l-18 694q4 22 21 39t38 23q9 3 18 3q12 0 23 -5q20 -8 30 -36l6 -656q128 56 246 60h18q107 0 190 -44q90 -48 141 -147q46 -89 46 -215q0 -15 -1 -30q-6 -120 -58 -230t-146 -196t-227 -142t-299 -68q-6 -1 -11 -1q-26 0 -41 16q-18 19 -19 43 t14 45t49 25l-18 668q-22 -6 -35 -8t-21 0t-13 6t-11 12q-17 21 -17 41q0 21 14 43zM228 840l16 -706q104 18 194 64t156 113t103 153t39 186v9q0 108 -48 170q-50 65 -125 87q-38 11 -81 11q-40 0 -84 -10q-90 -21 -170 -77z" />
<glyph unicode="c" horiz-adv-x="736" d="M22 506q10 104 43 204t86 180t122 129t149 49q70 0 108 -24t57 -70t26 -111t17 -145q-6 -26 -27 -36t-43 -8t-38 12t-12 26q-4 10 -6 50t-8 83t-19 77t-37 30q-58 -10 -107 -51t-85 -101t-60 -134t-32 -150q-5 -42 -5 -82q0 -25 2 -50q5 -64 24 -117t53 -91t84 -50 q26 -7 50 -7q32 0 60 12q50 21 89 56t66 75t43 64q14 18 33 16t34 -14t22 -30q3 -8 3 -16q0 -9 -4 -18q-28 -50 -61 -98t-75 -85t-94 -60t-114 -23q-104 0 -174 43t-111 114t-55 163q-8 54 -8 109q0 39 4 79z" />
<glyph unicode="d" horiz-adv-x="872" d="M34 240q6 112 55 223t134 208t201 174t258 119l-8 660q0 30 19 49t42 25q9 2 17 2q14 0 26 -6q20 -10 24 -38l32 -1642q1 -7 1 -13q0 -21 -15 -33q-20 -16 -48 -17h-3q-26 0 -49 14q-24 15 -26 51l-8 806q-144 -46 -242 -121t-159 -157t-89 -162t-32 -136q-1 -9 -1 -17 q0 -44 18 -71q21 -32 56 -45q32 -12 74 -12h7q46 1 92 10t88 23l72 24q24 8 37 -4t12 -33t-14 -44t-39 -37q-100 -44 -198 -56q-34 -4 -65 -4q-60 0 -110 15q-77 23 -121 83q-39 53 -39 138q0 12 1 24z" />
<glyph unicode="e" horiz-adv-x="688" d="M-64 156q-3 12 -3 22q0 18 9 29q14 17 40 28t60 22t70 33q-6 74 -8 176v29q0 88 10 177q10 84 33 160t63 133t102 87q44 21 102 21q23 0 48 -3q70 -10 107 -47t48 -92q5 -26 5 -56q0 -32 -6 -69q-12 -70 -38 -142q-26 -70 -61 -137t-75 -126t-81 -104t-77 -69 q10 -60 42 -95t79 -51t104 -18h19q48 0 98 8q22 4 31 -12q7 -13 7 -30v-7q-2 -21 -16 -41t-38 -26q-61 -13 -114 -13q-34 0 -64 5q-78 14 -134 47t-91 77t-49 84q-26 -8 -62 -18t-69 -15t-59 2t-32 31zM233 497v-9q0 -74 15 -118q28 12 57 46t57 80t52 102t40 110 q14 46 22 89t8 77t-10 57t-32 29q-14 4 -27 4q-24 0 -44 -14q-31 -22 -55 -64t-41 -99t-27 -119q-14 -90 -15 -171z" />
<glyph unicode="f" horiz-adv-x="798" d="M18 105q8 21 30 42t52 43t58 46q0 62 -1 162v69q0 71 1 150q2 119 9 248t24 254t46 236t75 191t110 121q48 31 109 31q21 0 43 -4q68 -12 105 -82t45 -180q2 -33 2 -68q0 -83 -13 -182q-19 -140 -63 -291t-111 -303t-153 -284q30 8 65 27t68 46t62 61t47 72q12 26 32 28 t38 -9t29 -29t5 -32q-40 -84 -116 -148t-152 -98q112 -80 181 -195t102 -240q31 -118 31 -237v-14q-2 -126 -31 -227t-83 -167t-126 -74q-16 -1 -31 -1q-68 0 -119 29q-62 36 -104 106t-67 169t-38 215t-19 245t-8 259q-40 -28 -74 -39t-50 11q-12 15 -12 30q0 7 2 13z M276 324q76 128 136 270t102 280t65 264t27 222q1 19 1 37q0 71 -13 117q-16 58 -52 62h-8q-52 0 -102 -75q-54 -81 -93 -241t-58 -395q-11 -135 -11 -294q0 -117 6 -247zM282 -70q2 -124 10 -236t24 -208t43 -165t66 -105q33 -31 79 -31q8 0 16 1q50 6 82 73t43 167 q5 44 5 92q0 60 -8 127q-14 119 -57 227t-118 192t-185 114q-1 -62 -1 -124t1 -124z" />
<glyph unicode="g" horiz-adv-x="826" d="M20 195q-1 10 -1 19q0 61 22 132q25 82 73 171t110 173t130 158t133 127t122 79q39 18 69 18q14 0 26 -4q20 -6 36 -23t27 -61t17 -124t6 -208q0 -90 -1 -192v-66q0 -63 1 -118q1 -56 1 -109q0 -213 -13 -390q-16 -221 -67 -376t-142 -237t-237 -82q-82 0 -132 37t-79 93 t-40 122t-13 124q-4 20 16 33t45 16t47 -6t26 -33q4 -38 12 -83t23 -84t39 -66t62 -27q76 0 128 42t86 113t53 166t28 200t11 214q1 73 1 142v69q-1 102 -1 188t4 146q-32 -68 -76 -137t-95 -128t-106 -104t-109 -67q-44 -18 -85 -18q-10 0 -19 1q-50 5 -90 47 q-44 44 -48 113zM156 186q13 -24 37 -24q13 0 29 7q46 21 103 79t116 143t105 177t69 181q14 55 14 102q0 28 -5 53q-38 -6 -91 -53t-111 -116t-112 -152t-94 -161t-58 -142q-10 -34 -10 -58q0 -22 8 -36z" />
<glyph unicode="h" horiz-adv-x="914" d="M20 1610q-1 9 -1 17q0 27 15 40q20 17 46 18h4q24 0 44 -12q22 -13 22 -35q2 -118 4 -261t4 -280q1 -91 1 -173v-80q-1 -116 -5 -178q20 54 59 117t92 125t114 114t125 82t126 33h9q57 0 109 -35q46 -32 70 -102t32 -162q5 -57 5 -119q0 -39 -2 -79q-5 -106 -15 -211 t-22 -202t-18 -169q-6 -30 -32 -42q-24 -11 -50 -11h-4q-28 1 -49 14t-15 33q4 18 12 66t18 114t19 145t16 160t10 157q2 46 2 86q0 27 -1 52q-4 54 -16 88t-34 52q-26 22 -56 22q-10 0 -21 -2q-43 -10 -107 -56q-80 -58 -150 -160t-121 -215t-80 -221t-29 -180 q0 -18 -21 -27t-45 -8t-43 13t-15 36z" />
<glyph unicode="i" horiz-adv-x="274" d="M58 64l24 954q8 26 28 34t41 2t37 -22t20 -36q-2 -24 -3 -93t-1 -161t1 -196t1 -198v-165v-99q8 -32 -15 -55t-53 -29q-9 -2 -18 -2q-20 0 -38 10q-24 13 -24 50v6zM68 1468q-1 6 -1 12q0 19 15 37q20 23 49 32q15 5 31 4q14 0 28 -3q30 -8 42 -42q3 -9 4 -17 q0 -18 -15 -33q-21 -22 -52 -32q-17 -6 -34 -6l-28 4q-31 8 -39 44z" />
<glyph unicode="j" horiz-adv-x="274" d="M-277 -719q9 25 26 40t36 18t23 -11q18 -58 61 -95q41 -35 79 -35h4q52 0 84 63t50 157t26 205t10 207q1 59 1 119q0 119 -5 244q-8 187 -21 352t-27 292t-20 185q-4 16 12 29t39 17t45 -2t30 -26q8 -60 22 -190t27 -296t21 -356q5 -127 5 -249q0 -61 -1 -121 q-4 -142 -18 -277t-46 -241t-85 -173t-135 -75h-11q-55 0 -115 36q-66 40 -110 128q-10 19 -10 36q0 10 3 19zM16 1346q-1 6 -1 12q0 19 15 37q20 23 49 32q15 5 31 5q14 0 28 -4q30 -8 42 -42q3 -9 3 -17q0 -18 -14 -33q-21 -22 -52 -32q-17 -6 -34 -6l-28 4q-31 8 -39 44z " />
<glyph unicode="k" horiz-adv-x="720" d="M30 1662q0 14 19 27t43 15h7q20 0 37 -9q20 -11 22 -41v-990l412 284q16 14 37 9t35 -21t16 -38t-20 -42q-10 -12 -41 -37t-74 -56t-92 -65t-92 -65t-75 -55t-42 -36l444 -184q26 -10 32 -31q3 -9 3 -18q0 -12 -5 -24q-8 -21 -26 -35t-40 -8l-472 178l6 -396 q0 -26 -20 -38q-18 -11 -39 -11h-4q-23 1 -43 13t-20 36q2 12 3 84t2 188q0 58 0.5 125.5t-0.5 144.5q-1 154 -2 332t-4 372t-7 392z" />
<glyph unicode="l" horiz-adv-x="216" d="M40 1658q0 23 19 35q18 11 39 11h7q25 -2 47 -17t22 -43q0 -116 -1 -255t-2 -288t-1 -301t1 -294t4 -267t9 -219q0 -12 -20 -21t-45 -11h-9q-20 0 -37 7q-21 9 -21 33q-4 68 -4 199v293v339v335t-2 281z" />
<glyph unicode="m" horiz-adv-x="1478" d="M20 990q-2 7 -2 15.5t2 18.5q4 20 14 38t25 30t35 12q22 0 39 -34t28 -86t18 -115t12 -121t9 -103t8 -63q20 54 55 119t78 120t95 87q38 23 77 23q15 0 29 -3q44 -10 76 -52t54 -94t34 -103t18 -79q28 66 69 139t91 133t109 98q56 36 117 36h6q68 -2 119 -64t86 -156 t59 -208t39 -220t22 -190t13 -120l2 -12q0 -22 -19 -39q-23 -21 -53 -28q-13 -3 -25 -3q-16 0 -30 5q-25 9 -25 39q1 22 1 45q0 58 -4 123q-5 92 -16 186t-28 182t-39 157t-50 111t-62 42q-52 0 -96 -36t-82 -94t-70 -128t-57 -137t-45 -124t-34 -87q-14 -28 -43 -27t-47 35 q-10 8 -14 47t-8 93t-10 114t-16 113t-27 89t-45 42q-6 1 -12 1q-34 0 -66 -39q-38 -46 -72 -123t-64 -170t-55 -180t-45 -153t-34 -88q-8 -18 -29 -28q-19 -9 -38 -9h-4q-21 1 -36 15t-13 42q6 130 15 238t11 218v37q0 93 -8 194q-10 121 -42 279z" />
<glyph unicode="n" horiz-adv-x="972" d="M20 912q-2 7 -2 13q0 17 11 32q15 21 37 31t43 3t27 -37l50 -304q18 98 53 178t82 136t106 86t129 30q108 0 176 -66t109 -168t58 -225t21 -241q2 -67 2 -128q0 -45 -1 -87q-3 -97 -3 -145q0 -20 -19 -30t-41 -10t-41 11t-19 33q0 84 -4 188t-14 210t-27 206t-44 177 t-65 120q-33 38 -76 38q-6 0 -12 -1q-70 -10 -121 -67t-86 -143t-56 -190t-33 -207t-15 -193t-3 -148q0 -16 -18 -26t-40 -11h-5q-19 0 -37 7q-20 8 -24 30q-6 32 -9 120t-11 211t-26 270t-52 297z" />
<glyph unicode="o" horiz-adv-x="832" d="M26 506q10 98 43 192t87 167t127 119t163 46q100 0 172 -40t116 -106t63 -151q14 -65 14 -133q0 -22 -1 -44q-6 -102 -39 -201t-90 -177t-138 -127t-181 -49t-168 43t-109 114t-55 161q-8 52 -8 107q0 39 4 79zM154 359q8 -65 34 -117t69 -85t107 -37h13q57 0 106 31 q55 35 97 94t68 134t34 151q3 30 3 58q0 43 -7 84q-12 68 -42 119t-81 80q-42 24 -98 24q-11 0 -23 -1q-58 -4 -106 -40t-84 -92t-59 -126t-31 -142q-4 -35 -4 -69t4 -66z" />
<glyph unicode="p" horiz-adv-x="874" d="M16 62v6q0 26 16 46q13 16 39 16q10 0 21 -2q3 51 3 100q0 24 -1 48q-2 72 -4 148v36q0 149 30 258q34 122 90 199t128 113t146 36q94 0 180 -52t135 -145q47 -89 47 -209v-10q-2 -126 -84 -274q-42 -76 -100 -143t-127 -119t-147 -85t-158 -41q-2 -16 -3 -79t-2 -149 t-1 -184v-187t-1 -158t-1 -95q0 -28 -24 -41q-22 -12 -47 -12h-4q-27 1 -50 17t-21 50q2 26 3 86t4 139t5 170t4 175t3 155t1 113q-36 -4 -57 20t-23 54zM226 430l4 -306q62 4 123 34t117 77t104 108t82 127q54 106 55 194v5q0 85 -32 144q-33 61 -90 93q-46 26 -94 26 q-13 0 -25 -2q-48 -6 -94 -37t-81 -92t-55 -153q-15 -71 -15 -162q0 -27 1 -56z" />
<glyph unicode="q" horiz-adv-x="968" d="M28 260q-2 24 -2 50q0 66 15 141q21 103 65 204t108 189t145 146t175 77q31 6 64 6q64 0 132 -25q98 -36 140 -109t48 -164q1 -21 1 -42q0 -72 -15 -147q-20 -98 -45 -185t-46 -152q-18 -55 -18 -80q0 -5 1 -9q10 0 28 12t37 33t36 48t27 59q6 18 22 19t32 -9t26 -28 q6 -11 6 -23q0 -7 -2 -15q-8 -30 -32 -64t-53 -66t-54 -54t-37 -28q42 -80 79 -187t58 -218t24 -217v-24q0 -91 -20 -163q-23 -81 -78 -126q-45 -37 -116 -37q-16 0 -33 2q-68 6 -109 50t-61 113t-22 156v35q0 71 6 146q8 94 24 188t34 176t33 147t23 99q-58 -42 -119 -79 t-122 -61t-122 -32q-19 -2 -37 -2q-42 0 -84 12q-76 22 -115 86t-47 152zM166 241q16 -77 70 -99q29 -13 62 -13q24 0 51 7q63 16 128 53t126 88t109 103q32 94 50 188t18 172t-22 131t-72 69q-43 13 -84 13q-55 0 -106 -24q-88 -41 -156 -122t-113 -187t-61 -204 q-8 -49 -8 -92.5t8 -82.5zM672 -641q4 -69 22 -115t58 -54q12 -3 24 -3q34 0 55 29q27 38 37 107q6 41 6 89q0 34 -3 71q-7 91 -25 184t-45 180t-57 149q-8 -62 -22 -143t-26 -168t-20 -172q-5 -57 -5 -106q0 -25 1 -48z" />
<glyph unicode="r" horiz-adv-x="838" d="M30 976q2 34 22 49t44 14t45 -17t25 -46l4 -252q120 156 279 246t341 118h4q17 0 27 -16t10 -40q0 -29 -16 -54q-15 -24 -45 -30q-108 -24 -195 -61t-159 -91t-130 -129t-106 -175v-444q2 -28 -21 -42q-21 -13 -47 -13h-4q-28 1 -51 18t-19 53q10 116 13 227q2 67 2 133 q0 44 -1 89q-2 111 -8 225t-14 238z" />
<glyph unicode="s" horiz-adv-x="914" d="M20 271q-2 7 -2 14q0 12 6 23q108 94 188 172t146 159t126 173t126 216q8 16 20 32t25 24q6 4 13 4t14 -4q14 -8 30 -40q48 -76 90 -181t65 -219q22 -109 22 -218v-9q-1 -113 -38 -203t-116 -148t-209 -62h-11q-63 0 -113 22q-54 24 -97 63t-77 86t-64 91l-9 -7t-20 -15 t-20 -15l-9 -7q-14 -10 -32 -5t-33 20t-21 34zM272 360q10 -56 37 -99t63 -72t75 -44t71 -15q86 0 139 40t81 103t32 143q1 19 1 38q0 61 -10 122q-13 80 -39 153t-58 125q-34 -54 -77 -118t-93 -129t-106 -129t-116 -118z" />
<glyph unicode="t" horiz-adv-x="846" d="M16 1190v5q0 19 12 38q14 21 50 27l214 28l32 350q2 32 27 48t52 16t49 -15t18 -45l-36 -344l240 32q30 4 44 -12t16 -39t-7 -43t-29 -24l-280 -36q-4 -50 -13 -147t-16 -215t-8 -242v-15q0 -115 14 -209q15 -100 50 -162q33 -58 90 -58h7q32 2 60 20t51 48t39 68t24 82 q4 26 24 31t42 -4t37 -27q12 -14 12 -28q0 -4 -1 -8q-38 -140 -114 -224t-172 -86h-6q-102 0 -160 68q-60 70 -90 180t-35 246q-2 57 -2 112q0 78 4 153q7 129 17 237t12 162l-212 -22q-24 -4 -39 14t-17 40z" />
<glyph unicode="u" horiz-adv-x="700" d="M19 656v21q0 105 9 200q10 105 26 177q4 18 26 24t45 2t41 -18t12 -38q-16 -74 -25 -167t-9 -190t10 -190t34 -165t62 -116q36 -42 89 -42h5q44 0 80 46t63 119t46 167t26 192q4 62 4 123q0 35 -1 69q-4 94 -20 170q-4 20 14 33t42 15h8q20 0 38 -8q22 -10 28 -36 q12 -62 16 -163q1 -29 1 -59q0 -75 -7 -156q-10 -114 -33 -229t-64 -208t-101 -152t-142 -59q-92 0 -153 56t-99 147t-54 205t-17 230z" />
<glyph unicode="v" horiz-adv-x="744" d="M20 1014q-1 6 -1 12q0 27 16 43q19 19 45 19t48 -19t26 -55q12 -142 47 -288t77 -268t84 -206t68 -102q34 34 62 133t50 228t37 271t25 262q2 30 23 41q14 8 30 8q7 0 15 -2q24 -5 42 -26q12 -15 12 -35q0 -9 -2 -20q-18 -122 -34 -267t-37 -282t-55 -249t-88 -168 q-34 -34 -80 -35h-2q-45 0 -84 39q-32 32 -67 98t-69 153t-66 185t-57 195t-42 184t-23 151z" />
<glyph unicode="w" horiz-adv-x="1204" d="M46 821q2 67 2 75q0 20 20 32t44 14t43 -10t19 -40q-1 -35 -1 -79v-47q1 -74 6 -154t13 -158t20 -140t29 -101t39 -39q38 0 65 48t48 119t40 155t40 155t48 117q26 44 62 44h3q28 -2 44 -50t26 -119t19 -154t27 -153t47 -117q28 -45 77 -45h4q54 2 90 50t60 124t36 168 t17 182q4 75 4 140v25q-1 75 -3 117q-6 18 10 32t39 17q5 1 10 1q18 0 34 -9q21 -11 27 -41q12 -78 17 -179q2 -39 2 -78q0 -63 -5 -128q-8 -105 -30 -205t-64 -178t-106 -123q-59 -41 -139 -41h-15q-48 2 -89 30t-74 74t-58 106t-39 128q-10 -40 -33 -104t-58 -125 t-81 -104q-44 -41 -97 -41h-5q-68 2 -112 67t-70 160t-37 207t-14 210q-2 59 -2 106q0 32 1 59z" />
<glyph unicode="x" horiz-adv-x="836" d="M26 978q-3 10 -3 20q0 14 7 24q12 18 32 25q13 4 27 4q8 0 16 -1q23 -4 37 -20q8 -14 33 -52t62 -91t83 -118t94 -133q48 68 94 133t83 118t63 91t34 52q14 16 37 20q8 1 16 1q14 0 27 -4q20 -7 32 -25q7 -11 7 -24q0 -9 -3 -20l-310 -454q46 -66 90 -128t80 -114t61 -89 t35 -51q24 -22 21 -52t-22 -51t-46 -24h-4q-25 0 -47 33l-248 360l-246 -360q-22 -33 -47 -33h-4q-27 3 -46 24t-22 51t21 52q10 14 35 51t61 89t79 114t91 128z" />
<glyph unicode="y" horiz-adv-x="798" d="M47 455q-1 23 -1 46q0 84 9 168q11 107 34 205t55 168q10 24 36 30t51 -2t40 -27t3 -47q-34 -78 -56 -173t-32 -192q-8 -75 -8 -144q0 -21 1 -42q3 -89 19 -155q24 -94 65 -116q15 -8 33 -8q33 0 78 26q58 36 104 112t74 184t36 242q2 41 2 84q0 97 -12 204q-4 28 20 44 t53 18h7q25 0 46 -12q24 -14 24 -46q0 -110 3 -235t11 -254t21 -254t29 -235q14 -86 27 -186t18 -201q2 -39 2 -77q0 -61 -5 -121q-8 -97 -37 -176t-83 -135t-142 -76q-36 -9 -72 -9q-28 0 -56 6q-62 13 -112 46t-86 82t-52 107q-8 30 7 49t37 26t45 1t33 -26q14 -40 36 -75 t49 -57t62 -30q13 -3 26 -3q24 0 51 9q58 20 92 70t52 120t21 152q1 35 1 70q0 47 -2 94q-4 82 -13 159t-17 135q-4 20 -10 69t-12 103t-12 103t-10 71q-30 -64 -72 -122t-92 -101t-107 -65q-39 -15 -80 -15q-18 0 -37 3q-66 10 -108 69t-63 147t-24 195z" />
<glyph unicode="z" horiz-adv-x="730" d="M29 957q-1 6 -1 12q0 14 5 27q7 18 25 20q54 4 99 7t91 5t95 4t109 8q18 2 34 2q53 0 84 -21q40 -27 52 -73q6 -22 6 -45q0 -43 -20 -88q-30 -69 -82 -133q32 0 59 -1t47 -1q26 4 39 -14t14 -42t-10 -43t-35 -17l-222 4q-50 -52 -99 -101t-86 -95t-56 -88 q-12 -28 -13 -52q0 -13 4 -26q8 -28 44 -46t86 -27t108 -13t110 -5t91 -2t53 -5q18 -8 25 -26q5 -13 5 -26q0 -6 -1 -11q-3 -19 -15 -33t-32 -14q-56 4 -120 5t-129 5t-126 14t-108 31t-78 56t-35 91q-1 10 -1 20q0 40 13 78q16 48 45 94t68 91t81 87l-148 4q-28 8 -36 26 t-3 38t21 35t36 19q34 -4 102 -6t144 -2q46 46 81 95t51 91q10 36 -2 48q-14 16 -61 16t-109 -7t-130 -17t-124 -14q-20 2 -31 21t-14 40z" />
<glyph unicode="{" horiz-adv-x="846" d="M49 999q5 25 22 42t39 21q62 12 118 33t72 71q30 102 39 184t16 148t21 117t53 93t112 74t199 60q26 -2 42 -16t22 -32t1 -36t-23 -28q-110 -16 -172 -50t-92 -83t-38 -109t-13 -128t-15 -140t-44 -142q-16 -32 -32 -49t-34 -28t-40 -18t-48 -21q32 -44 68 -91t66 -97 t50 -102t22 -108q2 -66 5 -138t13 -141t30 -130t56 -105t92 -65t138 -9q16 -2 24 -20t7 -38t-10 -36t-27 -12q-104 -12 -176 11t-121 70t-77 115t-45 148t-25 165t-16 169q-6 68 -30 122t-55 95t-68 72t-71 55q-38 26 -49 54t-6 53z" />
<glyph unicode="|" horiz-adv-x="1350" d="M97 1267q23 97 127 155q54 30 105 26t96 -29t83 -65t69 -82t54 -78t37 -52q42 50 100 118t127 121t146 71t159 -32q84 -54 102 -149t-10 -211t-89 -245t-135 -249t-147 -222t-125 -166q-16 -20 -34 -26t-36 -4t-35 12t-31 24q-54 62 -136 161t-165 217t-154 246t-101 245 t-7 214zM223 1200q-11 -68 15 -156t81 -189t123 -201t142 -193t138 -167q56 50 121 135t126 187t112 210t77 204t22 169t-52 107q-50 34 -107 9t-113 -77t-103 -115t-75 -105q-6 -14 -23 -22t-37 -8t-36 6t-22 20q-12 18 -31 52t-43 73t-52 77t-59 64t-64 35t-65 -9 q-64 -38 -75 -106z" />
<glyph unicode="}" horiz-adv-x="826" d="M15 -82q-1 20 7 38t24 20q122 -16 188 36t98 142t38 200t10 210q2 56 22 108t50 102t65 97t69 91q-26 14 -48 21t-40 18t-35 28t-31 49q-34 70 -44 142t-15 140t-13 128t-38 109t-92 83t-172 50q-18 10 -23 28t1 36t22 32t42 16q126 -28 199 -60t112 -74t53 -93t21 -117 t16 -148t39 -184q16 -50 72 -71t118 -33q20 -4 38 -21t23 -42t-6 -53t-49 -54q-34 -24 -71 -55t-68 -72t-55 -95t-30 -122q-8 -82 -16 -168t-25 -166t-45 -148t-77 -116t-121 -70t-176 -10q-18 -4 -27 12t-10 36z" />
<glyph unicode="~" horiz-adv-x="860" d="M62 684q6 50 18 97t34 81t58 53t90 15q52 -4 94 -35t81 -66t77 -62t84 -23t59 42t19 104q-4 16 12 26t38 12t43 -8t27 -36q0 -140 -57 -200t-159 -56q-58 2 -101 32t-80 66t-74 64t-81 24q-24 -2 -35 -20t-15 -41t-4 -44t-4 -31q4 -16 -13 -26t-40 -12t-44 8t-27 36z" />
<glyph unicode="&#xa1;" horiz-adv-x="274" d="M68 1512q-6 28 14 50t49 31t59 1t42 -42q10 -26 -11 -49t-52 -33t-61 -2t-40 44zM74 -46l12 1338q4 26 23 38t41 12t42 -11t22 -31q-2 -18 -3 -81t-1 -155v-205v-230v-231v-207t-1 -159t-1 -86q-6 -30 -28 -41t-46 -6t-43 20t-17 35z" />
<glyph unicode="&#xa3;" horiz-adv-x="1174" d="M36 652q2 22 14 40t30 18h110q-2 66 -1 130t3 122q2 62 9 141t24 162t49 161t84 139t127 98t181 35q48 0 95 -22t89 -61t75 -94t51 -125q4 -18 -11 -36t-37 -27t-42 -5t-24 32q-8 44 -28 81t-47 65t-59 45t-64 19q-100 6 -166 -50t-106 -146t-56 -198t-16 -204v-262h456 q18 0 29 -18t12 -39t-8 -39t-29 -18q-34 2 -92 4t-123 2h-130h-115q0 -60 1 -113t3 -108t4 -117t4 -140q96 42 209 61t223 13t207 -36t159 -82q18 -16 17 -34t-12 -32t-29 -19t-34 5q-10 6 -42 21t-83 29t-120 24t-150 8t-175 -22t-194 -66q-22 -14 -41 -11t-34 15t-24 29 t-9 33q0 106 -3 248t-7 292q-20 0 -33 -1t-24 -3t-23 -3t-30 -3q-26 2 -36 21t-8 41z" />
<glyph unicode="&#xa8;" horiz-adv-x="522" d="M48 1162q-6 26 14 49t49 32t59 1t42 -42q10 -28 -11 -50t-52 -32t-62 -2t-39 44zM330 1170q-6 26 14 49t49 32t59 1t42 -42q10 -28 -11 -50t-52 -32t-62 -2t-39 44z" />
<glyph unicode="&#xa9;" horiz-adv-x="1362" d="M48 766q-4 162 38 323t127 288t211 203t290 70q170 -6 291 -90t195 -213t102 -288t10 -319q-16 -138 -65 -267t-132 -226t-198 -154t-263 -53q-152 4 -264 66t-187 162t-113 230t-42 268zM182 766q2 -112 31 -217t87 -187t147 -134t209 -58q118 -6 211 41t159 130 t105 193t49 230q12 134 -11 267t-82 240t-155 176t-230 73q-120 4 -216 -61t-164 -173t-105 -245t-35 -275zM338 800q10 104 43 204t86 180t122 129t149 49q70 0 108 -24t57 -70t26 -111t17 -145q-6 -26 -27 -36t-43 -8t-38 12t-12 26q-4 10 -6 50t-8 83t-19 77t-37 30 q-58 -10 -107 -51t-85 -101t-60 -134t-32 -150q-8 -68 -3 -132t24 -117t53 -91t84 -50q60 -16 110 5t89 56t66 75t43 64q14 18 33 16t34 -14t22 -30t-1 -34q-28 -50 -61 -98t-75 -85t-94 -60t-114 -23q-104 0 -174 43t-111 114t-55 163t-4 188z" />
<glyph unicode="&#xab;" d="M63 402q-9 44 33 94l408 322q18 8 34 -2t27 -26t14 -35t-7 -27l-390 -310q20 -12 80 -43t127 -66t127 -66t80 -45q18 -4 22 -23t-2 -39t-22 -34t-40 -4l-432 230q-50 30 -59 74zM379 428q-9 44 33 94l408 322q18 8 34 -2t27 -26t14 -35t-7 -27l-390 -310q20 -12 80 -43 t127 -66t127 -66t80 -45q18 -4 22 -23t-2 -39t-22 -34t-40 -4l-432 230q-50 30 -59 74z" />
<glyph unicode="&#xad;" horiz-adv-x="664" d="M64 676q2 22 14 40t30 18l460 2q18 0 29 -18t12 -39t-8 -39t-29 -18q-62 4 -115 6t-107 1t-112 -5t-130 -10q-26 2 -36 21t-8 41z" />
<glyph unicode="&#xaf;" horiz-adv-x="598" d="M24 1160q2 22 14 40t30 18l460 2q18 0 29 -18t12 -39t-8 -39t-29 -18q-62 4 -115 6t-107 1t-112 -5t-130 -10q-26 2 -36 21t-8 41z" />
<glyph unicode="&#xb1;" horiz-adv-x="802" d="M38 950q2 22 14 40t30 18h228v240q0 18 18 28t39 11t39 -8t18 -27q-4 -52 -6 -115t-2 -129l256 2q18 0 29 -18t12 -39t-8 -39t-29 -18q-114 6 -258 6q2 -64 5 -125t9 -119q-2 -28 -21 -38t-41 -7t-40 15t-18 30l-2 242q-122 -4 -228 -12q-26 2 -36 21t-8 41zM84 474 q2 22 14 40t30 18h546q18 0 29 -18t12 -39t-8 -39t-29 -18q-124 8 -265 8t-285 -14q-26 2 -36 21t-8 41z" />
<glyph unicode="&#xb4;" horiz-adv-x="278" d="M36 1160l104 174q8 12 26 11t36 -10t29 -25t5 -34l-102 -172q-10 -18 -28 -19t-36 10t-29 29t-5 36z" />
<glyph unicode="&#xb7;" horiz-adv-x="382" d="M90 698q-6 26 14 49t49 32t59 1t42 -42q10 -28 -11 -50t-52 -32t-62 -2t-39 44z" />
<glyph unicode="&#xb8;" horiz-adv-x="316" d="M50 -63q-6 35 4 83q4 20 21 27t35 6t33 -9t13 -20l-6 -54q72 -12 104 -53t32 -97q0 -46 -21 -70t-51 -35t-65 -13t-65 -2q-18 2 -25 18t-6 34t8 30t17 10q6 2 25 2t39 1t36 6t16 21q2 30 -26 45t-72 25q-40 10 -46 45z" />
<glyph unicode="&#xbb;" d="M64 175q4 19 22 23q20 14 80 45t127 66t127 66t80 43l-390 310q-10 8 -7 27t14 35t27 26t34 2l408 -322q42 -50 33 -94t-59 -74l-432 -230q-24 -10 -40 4t-22 34t-2 39zM394 163q4 19 22 23q20 14 80 45t127 66t127 66t80 43l-390 310q-10 8 -7 27t14 35t27 26t34 2 l408 -322q42 -50 33 -94t-59 -74l-432 -230q-24 -10 -40 4t-22 34t-2 39z" />
<glyph unicode="&#xbf;" horiz-adv-x="938" d="M42 392q-2 64 19 145t77 162t151 152t243 115l-4 190q-2 16 15 27t40 14t45 -6t32 -35l8 -186v-43t-5 -38t-19 -28t-40 -13q-70 -6 -147 -38t-141 -91t-106 -145t-42 -200q0 -84 29 -147t78 -108t112 -72t131 -35q88 -10 175 29t139 133q18 16 37 11t33 -21t19 -36 t-5 -32q-68 -116 -175 -165t-215 -41q-82 6 -167 36t-154 90t-114 153t-49 223zM498 1500q-10 28 11 50t52 32t62 2t39 -44q6 -26 -14 -49t-49 -32t-59 -1t-42 42z" />
<glyph unicode="&#xc0;" horiz-adv-x="1224" d="M24 525q2 151 31 308t82 310t127 276t168 205t204 98q84 12 145 -20t105 -89t71 -129t43 -138q24 -110 45 -234t39 -253t34 -254t31 -238t27 -205t24 -154q4 -16 -16 -28t-46 -17t-49 0t-25 27q-12 96 -28 230t-34 276t-38 275t-38 223q-62 -226 -123 -391t-118 -279 t-110 -185t-103 -109t-96 -49t-88 -7q-94 8 -152 85t-86 196t-26 270zM156 358q12 -110 48 -180t100 -78q56 -6 115 54t116 160t109 228t96 257t77 246t51 197q2 46 -7 102t-32 107t-61 88t-94 47q-80 12 -153 -43t-134 -155t-109 -232t-79 -273t-43 -278t0 -247zM594 1924 q-6 18 5 36t29 29t36 10t28 -19l102 -172q6 -18 -5 -34t-29 -25t-36 -10t-26 11z" />
<glyph unicode="&#xc1;" horiz-adv-x="1224" d="M24 525q2 151 31 308t82 310t127 276t168 205t204 98q84 12 145 -20t105 -89t71 -129t43 -138q24 -110 45 -234t39 -253t34 -254t31 -238t27 -205t24 -154q4 -16 -16 -28t-46 -17t-49 0t-25 27q-12 96 -28 230t-34 276t-38 275t-38 223q-62 -226 -123 -391t-118 -279 t-110 -185t-103 -109t-96 -49t-88 -7q-94 8 -152 85t-86 196t-26 270zM156 358q12 -110 48 -180t100 -78q56 -6 115 54t116 160t109 228t96 257t77 246t51 197q2 46 -7 102t-32 107t-61 88t-94 47q-80 12 -153 -43t-134 -155t-109 -232t-79 -273t-43 -278t0 -247zM616 1818 l104 174q8 12 26 11t36 -10t29 -25t5 -34l-102 -172q-10 -18 -28 -19t-36 10t-29 29t-5 36z" />
<glyph unicode="&#xc2;" horiz-adv-x="1224" d="M24 525q2 151 31 308t82 310t127 276t168 205t204 98q84 12 145 -20t105 -89t71 -129t43 -138q24 -110 45 -234t39 -253t34 -254t31 -238t27 -205t24 -154q4 -16 -16 -28t-46 -17t-49 0t-25 27q-12 96 -28 230t-34 276t-38 275t-38 223q-62 -226 -123 -391t-118 -279 t-110 -185t-103 -109t-96 -49t-88 -7q-94 8 -152 85t-86 196t-26 270zM156 358q12 -110 48 -180t100 -78q56 -6 115 54t116 160t109 228t96 257t77 246t51 197q2 46 -7 102t-32 107t-61 88t-94 47q-80 12 -153 -43t-134 -155t-109 -232t-79 -273t-43 -278t0 -247zM456 1779 q-12 17 0 41l76 128q34 46 79 50t91 -42l78 -142q6 -18 -5 -34t-29 -25t-36 -10t-26 11l-68 122l-64 -110q-6 -18 -26 -20t-39 6t-31 25z" />
<glyph unicode="&#xc3;" horiz-adv-x="1224" d="M24 525q2 151 31 308t82 310t127 276t168 205t204 98q84 12 145 -20t105 -89t71 -129t43 -138q24 -110 45 -234t39 -253t34 -254t31 -238t27 -205t24 -154q4 -16 -16 -28t-46 -17t-49 0t-25 27q-12 96 -28 230t-34 276t-38 275t-38 223q-62 -226 -123 -391t-118 -279 t-110 -185t-103 -109t-96 -49t-88 -7q-94 8 -152 85t-86 196t-26 270zM156 358q12 -110 48 -180t100 -78q56 -6 115 54t116 160t109 228t96 257t77 246t51 197q2 46 -7 102t-32 107t-61 88t-94 47q-80 12 -153 -43t-134 -155t-109 -232t-79 -273t-43 -278t0 -247zM288 1798 q6 50 18 97t34 81t58 53t90 15q52 -4 94 -35t81 -66t77 -62t84 -23t59 42t19 104q-4 16 12 26t38 12t43 -8t27 -36q0 -140 -57 -200t-159 -56q-58 2 -101 32t-80 66t-74 64t-81 24q-24 -2 -35 -20t-15 -41t-4 -44t-4 -31q4 -16 -13 -26t-40 -12t-44 8t-27 36z" />
<glyph unicode="&#xc4;" horiz-adv-x="1224" d="M24 525q2 151 31 308t82 310t127 276t168 205t204 98q84 12 145 -20t105 -89t71 -129t43 -138q24 -110 45 -234t39 -253t34 -254t31 -238t27 -205t24 -154q4 -16 -16 -28t-46 -17t-49 0t-25 27q-12 96 -28 230t-34 276t-38 275t-38 223q-62 -226 -123 -391t-118 -279 t-110 -185t-103 -109t-96 -49t-88 -7q-94 8 -152 85t-86 196t-26 270zM156 358q12 -110 48 -180t100 -78q56 -6 115 54t116 160t109 228t96 257t77 246t51 197q2 46 -7 102t-32 107t-61 88t-94 47q-80 12 -153 -43t-134 -155t-109 -232t-79 -273t-43 -278t0 -247zM454 1784 q-6 26 14 49t49 32t59 1t42 -42q10 -28 -11 -50t-52 -32t-62 -2t-39 44zM736 1792q-6 26 14 49t49 32t59 1t42 -42q10 -28 -11 -50t-52 -32t-62 -2t-39 44z" />
<glyph unicode="&#xc5;" horiz-adv-x="1224" d="M24 525q2 151 31 308t82 310t127 276t168 205t204 98q84 12 145 -20t105 -89t71 -129t43 -138q24 -110 45 -234t39 -253t34 -254t31 -238t27 -205t24 -154q4 -16 -16 -28t-46 -17t-49 0t-25 27q-12 96 -28 230t-34 276t-38 275t-38 223q-62 -226 -123 -391t-118 -279 t-110 -185t-103 -109t-96 -49t-88 -7q-94 8 -152 85t-86 196t-26 270zM156 358q12 -110 48 -180t100 -78q56 -6 115 54t116 160t109 228t96 257t77 246t51 197q2 46 -7 102t-32 107t-61 88t-94 47q-80 12 -153 -43t-134 -155t-109 -232t-79 -273t-43 -278t0 -247zM587 1856 q-7 32 2 62t34 52t69 26q62 6 98 -24t43 -72t-16 -83t-79 -55q-42 -10 -73 1t-51 36t-27 57zM665 1875q3 -15 17 -27t38 -8q18 2 26 17t6 30t-14 27t-34 8t-32 -18t-7 -29z" />
<glyph unicode="&#xc6;" horiz-adv-x="1682" d="M36 541q2 151 31 308t82 310t127 276t168 205t204 98q60 8 109 -7t87 -46t67 -75t51 -94q52 82 130 129t192 53q58 4 139 4h145q30 0 44 -16t14 -35t-14 -36t-40 -17q-68 -2 -137 -2t-153 -10q-112 -12 -174 -86t-93 -177t-39 -218t-10 -205q18 -2 67 10t112 29t130 35 t123 30q34 8 50 -3t16 -30t-13 -39t-37 -28q-10 -6 -44 -17t-81 -25t-100 -30t-100 -30t-82 -24t-45 -14q4 -54 4 -122t5 -141t19 -143t44 -125t80 -89t130 -36q30 0 78 7t99 18t97 22t76 19q16 6 32 -8t23 -35t3 -43t-30 -32q-40 -16 -102 -26t-124 -18t-112 -11t-62 -3 q-132 0 -209 69t-115 173t-48 225t-10 225q-80 -232 -154 -372t-142 -215t-129 -97t-115 -16q-94 8 -152 85t-86 196t-26 270zM168 374q12 -110 48 -180t100 -78q56 -6 116 55t118 164t112 235t97 266t74 259t45 213q-4 44 -16 93t-35 91t-58 72t-83 38q-80 12 -153 -43 t-134 -155t-109 -232t-79 -273t-43 -278t0 -247z" />
<glyph unicode="&#xc7;" horiz-adv-x="1034" d="M20 760q4 110 28 221t67 214t102 192t134 157t164 108t191 44q72 2 124 -27t85 -79t46 -116t5 -134q-6 -26 -27 -36t-44 -8t-40 12t-13 26q6 46 3 91t-18 79t-45 54t-78 18q-86 -4 -161 -42t-136 -100t-110 -145t-81 -177q-24 -70 -39 -145t-21 -150t-3 -146t13 -131 q14 -82 46 -162t83 -142t123 -97t166 -27q100 10 184 72t136 150q14 18 35 15t38 -17t25 -33t0 -35q-34 -62 -85 -114t-113 -89t-132 -55t-142 -12q-146 12 -246 80t-161 174t-85 239t-18 273zM526 -63q-6 35 4 83q4 20 21 27t35 6t33 -9t13 -20l-6 -54q72 -12 104 -53 t32 -97q0 -46 -21 -70t-51 -35t-65 -13t-65 -2q-18 2 -25 18t-6 34t8 30t17 10q6 2 25 2t39 1t36 6t16 21q2 30 -26 45t-72 25q-40 10 -46 45z" />
<glyph unicode="&#xc8;" horiz-adv-x="918" d="M13 777q-3 23 10 48t49 49q0 162 19 309t68 260t136 181t225 74q58 4 139 4h145q30 0 44 -16t14 -35t-14 -36t-40 -17q-68 -2 -137 -2t-153 -10q-112 -12 -174 -86t-93 -177t-39 -218t-10 -205q18 -2 67 10t112 29t130 35t123 30q34 8 50 -3t16 -30t-13 -39t-37 -28 q-10 -6 -44 -17t-81 -25t-100 -30t-100 -30t-82 -24t-45 -14q4 -54 4 -122t5 -141t19 -143t44 -125t80 -89t130 -36q30 0 78 7t99 18t97 22t76 19q16 6 32 -8t23 -35t3 -43t-30 -32q-40 -16 -102 -26t-124 -18t-112 -11t-62 -3q-90 0 -154 34t-107 91t-67 131t-36 153 t-15 159t-3 150q-26 6 -43 22t-20 39zM496 1924q-6 18 5 36t29 29t36 10t28 -19l102 -172q6 -18 -5 -34t-29 -25t-36 -10t-26 11z" />
<glyph unicode="&#xc9;" horiz-adv-x="918" d="M13 777q-3 23 10 48t49 49q0 162 19 309t68 260t136 181t225 74q58 4 139 4h145q30 0 44 -16t14 -35t-14 -36t-40 -17q-68 -2 -137 -2t-153 -10q-112 -12 -174 -86t-93 -177t-39 -218t-10 -205q18 -2 67 10t112 29t130 35t123 30q34 8 50 -3t16 -30t-13 -39t-37 -28 q-10 -6 -44 -17t-81 -25t-100 -30t-100 -30t-82 -24t-45 -14q4 -54 4 -122t5 -141t19 -143t44 -125t80 -89t130 -36q30 0 78 7t99 18t97 22t76 19q16 6 32 -8t23 -35t3 -43t-30 -32q-40 -16 -102 -26t-124 -18t-112 -11t-62 -3q-90 0 -154 34t-107 91t-67 131t-36 153 t-15 159t-3 150q-26 6 -43 22t-20 39zM548 1818l104 174q8 12 26 11t36 -10t29 -25t5 -34l-102 -172q-10 -18 -28 -19t-36 10t-29 29t-5 36z" />
<glyph unicode="&#xca;" horiz-adv-x="918" d="M13 777q-3 23 10 48t49 49q0 162 19 309t68 260t136 181t225 74q58 4 139 4h145q30 0 44 -16t14 -35t-14 -36t-40 -17q-68 -2 -137 -2t-153 -10q-112 -12 -174 -86t-93 -177t-39 -218t-10 -205q18 -2 67 10t112 29t130 35t123 30q34 8 50 -3t16 -30t-13 -39t-37 -28 q-10 -6 -44 -17t-81 -25t-100 -30t-100 -30t-82 -24t-45 -14q4 -54 4 -122t5 -141t19 -143t44 -125t80 -89t130 -36q30 0 78 7t99 18t97 22t76 19q16 6 32 -8t23 -35t3 -43t-30 -32q-40 -16 -102 -26t-124 -18t-112 -11t-62 -3q-90 0 -154 34t-107 91t-67 131t-36 153 t-15 159t-3 150q-26 6 -43 22t-20 39zM440 1775q-12 17 0 41l76 128q34 46 79 50t91 -42l78 -142q6 -18 -5 -34t-29 -25t-36 -10t-26 11l-68 122l-64 -110q-6 -18 -26 -20t-39 6t-31 25z" />
<glyph unicode="&#xcb;" horiz-adv-x="918" d="M13 777q-3 23 10 48t49 49q0 162 19 309t68 260t136 181t225 74q58 4 139 4h145q30 0 44 -16t14 -35t-14 -36t-40 -17q-68 -2 -137 -2t-153 -10q-112 -12 -174 -86t-93 -177t-39 -218t-10 -205q18 -2 67 10t112 29t130 35t123 30q34 8 50 -3t16 -30t-13 -39t-37 -28 q-10 -6 -44 -17t-81 -25t-100 -30t-100 -30t-82 -24t-45 -14q4 -54 4 -122t5 -141t19 -143t44 -125t80 -89t130 -36q30 0 78 7t99 18t97 22t76 19q16 6 32 -8t23 -35t3 -43t-30 -32q-40 -16 -102 -26t-124 -18t-112 -11t-62 -3q-90 0 -154 34t-107 91t-67 131t-36 153 t-15 159t-3 150q-26 6 -43 22t-20 39zM366 1812q-6 26 14 49t49 32t59 1t42 -42q10 -28 -11 -50t-52 -32t-62 -2t-39 44zM648 1820q-6 26 14 49t49 32t59 1t42 -42q10 -28 -11 -50t-52 -32t-62 -2t-39 44z" />
<glyph unicode="&#xcc;" horiz-adv-x="752" d="M9 1642q1 20 12 37t29 17q60 -6 136 -6t160 2t173 6t173 8q18 0 29 -18t12 -39t-8 -39t-29 -18l-272 -6l16 -1480l260 8q18 0 29 -18t12 -39t-8 -39t-29 -18q-62 4 -142 6t-167 2t-173 -4t-158 -10q-26 2 -37 19t-10 37t12 37t29 17l260 2l-12 1482l-250 -2q-26 2 -37 19 t-10 37zM276 1924q-6 18 5 36t29 29t36 10t28 -19l102 -172q6 -18 -5 -34t-29 -25t-36 -10t-26 11z" />
<glyph unicode="&#xcd;" horiz-adv-x="752" d="M9 1642q1 20 12 37t29 17q60 -6 136 -6t160 2t173 6t173 8q18 0 29 -18t12 -39t-8 -39t-29 -18l-272 -6l16 -1480l260 8q18 0 29 -18t12 -39t-8 -39t-29 -18q-62 4 -142 6t-167 2t-173 -4t-158 -10q-26 2 -37 19t-10 37t12 37t29 17l260 2l-12 1482l-250 -2q-26 2 -37 19 t-10 37zM276 1810l104 174q8 12 26 11t36 -10t29 -25t5 -34l-102 -172q-10 -18 -28 -19t-36 10t-29 29t-5 36z" />
<glyph unicode="&#xce;" horiz-adv-x="752" d="M9 1642q1 20 12 37t29 17q60 -6 136 -6t160 2t173 6t173 8q18 0 29 -18t12 -39t-8 -39t-29 -18l-272 -6l16 -1480l260 8q18 0 29 -18t12 -39t-8 -39t-29 -18q-62 4 -142 6t-167 2t-173 -4t-158 -10q-26 2 -37 19t-10 37t12 37t29 17l260 2l-12 1482l-250 -2q-26 2 -37 19 t-10 37zM220 1779q-12 17 0 41l76 128q34 46 79 50t91 -42l78 -142q6 -18 -5 -34t-29 -25t-36 -10t-26 11l-68 122l-64 -110q-6 -18 -26 -20t-39 6t-31 25z" />
<glyph unicode="&#xcf;" horiz-adv-x="752" d="M9 1642q1 20 12 37t29 17q60 -6 136 -6t160 2t173 6t173 8q18 0 29 -18t12 -39t-8 -39t-29 -18l-272 -6l16 -1480l260 8q18 0 29 -18t12 -39t-8 -39t-29 -18q-62 4 -142 6t-167 2t-173 -4t-158 -10q-26 2 -37 19t-10 37t12 37t29 17l260 2l-12 1482l-250 -2q-26 2 -37 19 t-10 37zM148 1812q-6 26 14 49t49 32t59 1t42 -42q10 -28 -11 -50t-52 -32t-62 -2t-39 44zM430 1820q-6 26 14 49t49 32t59 1t42 -42q10 -28 -11 -50t-52 -32t-62 -2t-39 44z" />
<glyph unicode="&#xd0;" horiz-adv-x="1150" d="M6 860q2 22 14 40t30 18l460 2q18 0 29 -18t12 -39t-8 -39t-29 -18q-62 4 -115 6t-107 1t-112 -5t-130 -10q-26 2 -36 21t-8 41zM20 1550q-6 32 27 50t77 30v72q0 18 19 29t41 12t41 -7t21 -28v-46q206 44 380 8t294 -150t173 -305t21 -455q-20 -162 -103 -297t-203 -230 t-266 -143t-292 -38l-2 -28q0 -16 -19 -25t-41 -11t-40 6t-16 24v58q-46 10 -81 29t-29 53q12 44 40 49t68 -1l-6 1294q-40 -4 -66 1t-38 49zM246 1530l10 -1342q44 -14 113 -8t147 33t157 77t147 123t115 171t61 222q10 94 3 197t-38 198t-87 176t-142 130t-207 59 t-279 -36z" />
<glyph unicode="&#xd1;" horiz-adv-x="1400" d="M33 185q3 115 10 271t17 335t18 343t14 295t6 191q12 40 42 54t64 10t65 -26t43 -54q20 -42 42 -128t47 -198t55 -240t66 -255t80 -245t97 -208t117 -144t140 -54q74 0 127 51t89 136t55 197t23 235t-5 249t-30 239t-52 205t-69 148q-26 26 -21 53t27 43t53 14t59 -34 q38 -52 69 -148t53 -220t32 -266t4 -283t-29 -271t-69 -233t-115 -167t-165 -72q-146 -12 -252 69t-191 261t-161 463t-162 673q-18 -266 -29 -509t-18 -437t-9 -325t-2 -171q-8 -22 -30 -34t-44 -12t-40 12t-20 36q-4 36 -1 151zM332 1802q6 50 18 97t34 81t58 53t90 15 q52 -4 94 -35t81 -66t77 -62t84 -23t59 42t19 104q-4 16 12 26t38 12t43 -8t27 -36q0 -140 -57 -200t-159 -56q-58 2 -101 32t-80 66t-74 64t-81 24q-24 -2 -35 -20t-15 -41t-4 -44t-4 -31q4 -16 -13 -26t-40 -12t-44 8t-27 36z" />
<glyph unicode="&#xd2;" horiz-adv-x="1060" d="M28 768q-4 116 9 231t42 220t74 195t107 155t139 101t171 32q138 -6 233 -96t151 -230t72 -314t-4 -346q-18 -144 -60 -277t-107 -233t-153 -160t-198 -56q-116 2 -203 69t-146 175t-91 247t-36 287zM158 734q6 -118 30 -228t67 -195t106 -137t145 -54q76 -4 141 46 t115 135t83 197t49 234q18 146 8 295t-51 269t-114 196t-179 80q-102 4 -180 -70t-129 -194t-74 -272t-17 -302zM430 1924q-6 18 5 36t29 29t36 10t28 -19l102 -172q6 -18 -5 -34t-29 -25t-36 -10t-26 11z" />
<glyph unicode="&#xd3;" horiz-adv-x="1060" d="M28 768q-4 116 9 231t42 220t74 195t107 155t139 101t171 32q138 -6 233 -96t151 -230t72 -314t-4 -346q-18 -144 -60 -277t-107 -233t-153 -160t-198 -56q-116 2 -203 69t-146 175t-91 247t-36 287zM158 734q6 -118 30 -228t67 -195t106 -137t145 -54q76 -4 141 46 t115 135t83 197t49 234q18 146 8 295t-51 269t-114 196t-179 80q-102 4 -180 -70t-129 -194t-74 -272t-17 -302zM430 1810l104 174q8 12 26 11t36 -10t29 -25t5 -34l-102 -172q-10 -18 -28 -19t-36 10t-29 29t-5 36z" />
<glyph unicode="&#xd4;" horiz-adv-x="1060" d="M28 768q-4 116 9 231t42 220t74 195t107 155t139 101t171 32q138 -6 233 -96t151 -230t72 -314t-4 -346q-18 -144 -60 -277t-107 -233t-153 -160t-198 -56q-116 2 -203 69t-146 175t-91 247t-36 287zM158 734q6 -118 30 -228t67 -195t106 -137t145 -54q76 -4 141 46 t115 135t83 197t49 234q18 146 8 295t-51 269t-114 196t-179 80q-102 4 -180 -70t-129 -194t-74 -272t-17 -302zM374 1779q-12 17 0 41l76 128q34 46 79 50t91 -42l78 -142q6 -18 -5 -34t-29 -25t-36 -10t-26 11l-68 122l-64 -110q-6 -18 -26 -20t-39 6t-31 25z" />
<glyph unicode="&#xd5;" horiz-adv-x="1060" d="M28 768q-4 116 9 231t42 220t74 195t107 155t139 101t171 32q138 -6 233 -96t151 -230t72 -314t-4 -346q-18 -144 -60 -277t-107 -233t-153 -160t-198 -56q-116 2 -203 69t-146 175t-91 247t-36 287zM158 734q6 -118 30 -228t67 -195t106 -137t145 -54q76 -4 141 46 t115 135t83 197t49 234q18 146 8 295t-51 269t-114 196t-179 80q-102 4 -180 -70t-129 -194t-74 -272t-17 -302zM162 1802q6 50 18 97t34 81t58 53t90 15q52 -4 94 -35t81 -66t77 -62t84 -23t59 42t19 104q-4 16 12 26t38 12t43 -8t27 -36q0 -140 -57 -200t-159 -56 q-58 2 -101 32t-80 66t-74 64t-81 24q-24 -2 -35 -20t-15 -41t-4 -44t-4 -31q4 -16 -13 -26t-40 -12t-44 8t-27 36z" />
<glyph unicode="&#xd6;" horiz-adv-x="1060" d="M28 768q-4 116 9 231t42 220t74 195t107 155t139 101t171 32q138 -6 233 -96t151 -230t72 -314t-4 -346q-18 -144 -60 -277t-107 -233t-153 -160t-198 -56q-116 2 -203 69t-146 175t-91 247t-36 287zM158 734q6 -118 30 -228t67 -195t106 -137t145 -54q76 -4 141 46 t115 135t83 197t49 234q18 146 8 295t-51 269t-114 196t-179 80q-102 4 -180 -70t-129 -194t-74 -272t-17 -302zM302 1812q-6 26 14 49t49 32t59 1t42 -42q10 -28 -11 -50t-52 -32t-62 -2t-39 44zM584 1820q-6 26 14 49t49 32t59 1t42 -42q10 -28 -11 -50t-52 -32t-62 -2 t-39 44z" />
<glyph unicode="&#xd7;" horiz-adv-x="766" d="M131 876q5 20 20 35t34 22t31 -7q36 -40 79 -86t89 -92l178 182q14 14 34 9t36 -20t22 -34t-8 -33q-42 -38 -89 -83t-97 -95q46 -44 91 -85t91 -77q18 -20 12 -41t-23 -35t-39 -18t-34 8l-174 170q-84 -86 -152 -170q-20 -16 -41 -10t-34 23t-17 39t8 34l160 160 l-170 170q-12 14 -7 34z" />
<glyph unicode="&#xd8;" horiz-adv-x="1060" d="M28 768q-4 116 9 231t42 220t74 195t107 155t139 101t171 32q138 -6 233 -96t151 -230t72 -314t-4 -346q-18 -144 -60 -277t-107 -233t-153 -160t-198 -56q-116 2 -203 69t-146 175t-91 247t-36 287zM58 74q22 46 65 131t100 193t123 234t134 255t133 253t119 229t94 184 t56 117q10 24 34 25t46 -12t34 -37t0 -48q-54 -102 -125 -236t-150 -283t-160 -302t-155 -296t-135 -266t-101 -209q-6 -12 -28 -11t-44 12t-36 28t-4 39zM158 734q6 -118 30 -228t67 -195t106 -137t145 -54q76 -4 141 46t115 135t83 197t49 234q18 146 8 295t-51 269 t-114 196t-179 80q-102 4 -180 -70t-129 -194t-74 -272t-17 -302z" />
<glyph unicode="&#xd9;" horiz-adv-x="914" d="M32 1023q0 127 7 243t20 217t29 175q4 18 26 24t46 2t42 -18t14 -38q-40 -200 -54 -421t2 -425q10 -140 33 -261t61 -211t90 -140t122 -50q50 0 92 48t74 128t56 188t40 228q18 128 25 263t5 260t-13 232t-31 181q-6 20 13 33t45 15t49 -8t27 -36q10 -66 18 -173t11 -236 t-2 -271t-23 -280t-44 -262t-70 -219t-109 -153t-159 -62q-104 -6 -179 57t-127 171t-83 251t-43 297q-10 124 -10 251zM358 1924q-6 18 5 36t29 29t36 10t28 -19l102 -172q6 -18 -5 -34t-29 -25t-36 -10t-26 11z" />
<glyph unicode="&#xda;" horiz-adv-x="914" d="M32 1023q0 127 7 243t20 217t29 175q4 18 26 24t46 2t42 -18t14 -38q-40 -200 -54 -421t2 -425q10 -140 33 -261t61 -211t90 -140t122 -50q50 0 92 48t74 128t56 188t40 228q18 128 25 263t5 260t-13 232t-31 181q-6 20 13 33t45 15t49 -8t27 -36q10 -66 18 -173t11 -236 t-2 -271t-23 -280t-44 -262t-70 -219t-109 -153t-159 -62q-104 -6 -179 57t-127 171t-83 251t-43 297q-10 124 -10 251zM358 1810l104 174q8 12 26 11t36 -10t29 -25t5 -34l-102 -172q-10 -18 -28 -19t-36 10t-29 29t-5 36z" />
<glyph unicode="&#xdb;" horiz-adv-x="914" d="M32 1023q0 127 7 243t20 217t29 175q4 18 26 24t46 2t42 -18t14 -38q-40 -200 -54 -421t2 -425q10 -140 33 -261t61 -211t90 -140t122 -50q50 0 92 48t74 128t56 188t40 228q18 128 25 263t5 260t-13 232t-31 181q-6 20 13 33t45 15t49 -8t27 -36q10 -66 18 -173t11 -236 t-2 -271t-23 -280t-44 -262t-70 -219t-109 -153t-159 -62q-104 -6 -179 57t-127 171t-83 251t-43 297q-10 124 -10 251zM302 1779q-12 17 0 41l76 128q34 46 79 50t91 -42l78 -142q6 -18 -5 -34t-29 -25t-36 -10t-26 11l-68 122l-64 -110q-6 -18 -26 -20t-39 6t-31 25z" />
<glyph unicode="&#xdc;" horiz-adv-x="914" d="M32 1023q0 127 7 243t20 217t29 175q4 18 26 24t46 2t42 -18t14 -38q-40 -200 -54 -421t2 -425q10 -140 33 -261t61 -211t90 -140t122 -50q50 0 92 48t74 128t56 188t40 228q18 128 25 263t5 260t-13 232t-31 181q-6 20 13 33t45 15t49 -8t27 -36q10 -66 18 -173t11 -236 t-2 -271t-23 -280t-44 -262t-70 -219t-109 -153t-159 -62q-104 -6 -179 57t-127 171t-83 251t-43 297q-10 124 -10 251zM230 1812q-6 26 14 49t49 32t59 1t42 -42q10 -28 -11 -50t-52 -32t-62 -2t-39 44zM512 1820q-6 26 14 49t49 32t59 1t42 -42q10 -28 -11 -50t-52 -32 t-62 -2t-39 44z" />
<glyph unicode="&#xdd;" d="M29 452q-17 216 7 520t80 676q4 24 26 38t46 13t43 -19t17 -58q-22 -122 -43 -278t-35 -321t-17 -323t11 -284t49 -204t99 -82q62 -4 122 38t112 111t97 154t79 167t56 151t30 107q4 22 7 83t5 142t3 172t1 172t1 143t3 84q2 26 22 39t44 12t43 -13t17 -36 q-4 -40 -5 -108t-1 -150t1 -173t2 -179t2 -166t1 -134q0 -86 1 -220t-3 -289t-16 -318t-40 -305q-24 -116 -67 -217t-106 -174t-145 -115t-184 -42q-66 0 -120 29t-95 71t-67 87t-34 79q-6 30 6 53t31 32t39 2t32 -35q8 -18 23 -51t41 -66t63 -57t89 -24q74 0 133 35t105 98 t79 147t53 182q26 126 38 254t17 248t4 226t-1 188q-20 -76 -71 -176t-123 -189t-159 -150t-181 -57q-120 4 -185 124t-82 336zM400 1810l104 174q8 12 26 11t36 -10t29 -25t5 -34l-102 -172q-10 -18 -28 -19t-36 10t-29 29t-5 36z" />
<glyph unicode="&#xde;" horiz-adv-x="892" d="M3 837q1 21 14 41t35 35t46 25l-16 494q4 22 21 39t38 23t41 -2t30 -36l4 -456q128 56 246 60t208 -44t141 -147t45 -245q-6 -110 -50 -211t-123 -184t-190 -142t-251 -85l6 -226q-4 -22 -21 -39t-38 -23t-41 2t-30 36l-2 236q-30 0 -46 18t-16 41t15 43t45 24l-14 670 q-22 -6 -35 -8t-21 0t-13 6t-11 12q-18 22 -17 43zM228 840l16 -706q104 18 194 64t156 113t103 153t39 186q2 114 -48 179t-125 87t-165 1t-170 -77z" />
<glyph unicode="&#xdf;" horiz-adv-x="942" d="M48 -8q6 96 8 243t2 327t-1 383t-1 411q0 30 9 91t44 122t106 107t195 44q62 0 118 -20t99 -57t71 -91t36 -122q10 -102 -27 -178t-98 -131t-132 -91t-129 -54q80 8 178 -18t185 -86t145 -156t56 -226q-2 -112 -45 -194t-120 -140t-185 -93t-240 -51q-20 -10 -29 6 t-10 39t6 45t21 28q114 8 203 40t151 81t94 112t32 135q0 94 -51 168t-128 123t-166 69t-167 6q-22 2 -35 31t-16 65t5 67t28 37q56 14 120 44t117 74t86 101t31 123q-4 96 -67 151t-159 55q-36 0 -75 -18t-71 -52t-51 -82t-19 -108l10 -1362q-4 -22 -26 -35t-47 -14t-44 11 t-17 40z" />
<glyph unicode="&#xe0;" horiz-adv-x="948" d="M34 313q-2 89 22 188t68 193q42 90 101 170t126 134t141 77t148 3q52 -10 71 -41t29 -83q26 -168 49 -287t45 -210t44 -162t50 -141q10 -24 0 -52t-30 -46t-43 -21t-37 21q-18 32 -33 69t-31 88t-36 119t-48 162q-24 -54 -52 -113t-62 -115q-36 -58 -77 -108t-89 -83 t-103 -44t-117 9q-70 40 -102 112t-34 161zM165 335q-1 -57 12 -102t43 -67q26 -20 56 -10t61 41t63 77t64 100q46 78 84 168t56 172t10 145t-54 85q-42 20 -89 -5t-93 -78t-88 -127t-72 -152q-24 -62 -38 -126t-15 -121zM494 1304q-6 18 5 36t29 29t36 10t28 -19l102 -172 q6 -18 -5 -34t-29 -25t-36 -10t-26 11z" />
<glyph unicode="&#xe1;" horiz-adv-x="948" d="M34 313q-2 89 22 188t68 193q42 90 101 170t126 134t141 77t148 3q52 -10 71 -41t29 -83q26 -168 49 -287t45 -210t44 -162t50 -141q10 -24 0 -52t-30 -46t-43 -21t-37 21q-18 32 -33 69t-31 88t-36 119t-48 162q-24 -54 -52 -113t-62 -115q-36 -58 -77 -108t-89 -83 t-103 -44t-117 9q-70 40 -102 112t-34 161zM165 335q-1 -57 12 -102t43 -67q26 -20 56 -10t61 41t63 77t64 100q46 78 84 168t56 172t10 145t-54 85q-42 20 -89 -5t-93 -78t-88 -127t-72 -152q-24 -62 -38 -126t-15 -121zM428 1180l104 174q8 12 26 11t36 -10t29 -25t5 -34 l-102 -172q-10 -18 -28 -19t-36 10t-29 29t-5 36z" />
<glyph unicode="&#xe2;" horiz-adv-x="948" d="M34 313q-2 89 22 188t68 193q42 90 101 170t126 134t141 77t148 3q52 -10 71 -41t29 -83q26 -168 49 -287t45 -210t44 -162t50 -141q10 -24 0 -52t-30 -46t-43 -21t-37 21q-18 32 -33 69t-31 88t-36 119t-48 162q-24 -54 -52 -113t-62 -115q-36 -58 -77 -108t-89 -83 t-103 -44t-117 9q-70 40 -102 112t-34 161zM165 335q-1 -57 12 -102t43 -67q26 -20 56 -10t61 41t63 77t64 100q46 78 84 168t56 172t10 145t-54 85q-42 20 -89 -5t-93 -78t-88 -127t-72 -152q-24 -62 -38 -126t-15 -121zM422 1159q-12 17 0 41l76 128q34 46 79 50t91 -42 l78 -142q6 -18 -5 -34t-29 -25t-36 -10t-26 11l-68 122l-64 -110q-6 -18 -26 -20t-39 6t-31 25z" />
<glyph unicode="&#xe3;" horiz-adv-x="948" d="M34 313q-2 89 22 188t68 193q42 90 101 170t126 134t141 77t148 3q52 -10 71 -41t29 -83q26 -168 49 -287t45 -210t44 -162t50 -141q10 -24 0 -52t-30 -46t-43 -21t-37 21q-18 32 -33 69t-31 88t-36 119t-48 162q-24 -54 -52 -113t-62 -115q-36 -58 -77 -108t-89 -83 t-103 -44t-117 9q-70 40 -102 112t-34 161zM156 1156q6 50 18 97t34 81t58 53t90 15q52 -4 94 -35t81 -66t77 -62t84 -23t59 42t19 104q-4 16 12 26t38 12t43 -8t27 -36q0 -140 -57 -200t-159 -56q-58 2 -101 32t-80 66t-74 64t-81 24q-24 -2 -35 -20t-15 -41t-4 -44t-4 -31 q4 -16 -13 -26t-40 -12t-44 8t-27 36zM165 335q-1 -57 12 -102t43 -67q26 -20 56 -10t61 41t63 77t64 100q46 78 84 168t56 172t10 145t-54 85q-42 20 -89 -5t-93 -78t-88 -127t-72 -152q-24 -62 -38 -126t-15 -121z" />
<glyph unicode="&#xe4;" horiz-adv-x="948" d="M34 313q-2 89 22 188t68 193q42 90 101 170t126 134t141 77t148 3q52 -10 71 -41t29 -83q26 -168 49 -287t45 -210t44 -162t50 -141q10 -24 0 -52t-30 -46t-43 -21t-37 21q-18 32 -33 69t-31 88t-36 119t-48 162q-24 -54 -52 -113t-62 -115q-36 -58 -77 -108t-89 -83 t-103 -44t-117 9q-70 40 -102 112t-34 161zM165 335q-1 -57 12 -102t43 -67q26 -20 56 -10t61 41t63 77t64 100q46 78 84 168t56 172t10 145t-54 85q-42 20 -89 -5t-93 -78t-88 -127t-72 -152q-24 -62 -38 -126t-15 -121zM344 1186q-6 26 14 49t49 32t59 1t42 -42 q10 -28 -11 -50t-52 -32t-62 -2t-39 44zM626 1194q-6 26 14 49t49 32t59 1t42 -42q10 -28 -11 -50t-52 -32t-62 -2t-39 44z" />
<glyph unicode="&#xe5;" horiz-adv-x="948" d="M34 313q-2 89 22 188t68 193q42 90 101 170t126 134t141 77t148 3q52 -10 71 -41t29 -83q26 -168 49 -287t45 -210t44 -162t50 -141q10 -24 0 -52t-30 -46t-43 -21t-37 21q-18 32 -33 69t-31 88t-36 119t-48 162q-24 -54 -52 -113t-62 -115q-36 -58 -77 -108t-89 -83 t-103 -44t-117 9q-70 40 -102 112t-34 161zM165 335q-1 -57 12 -102t43 -67q26 -20 56 -10t61 41t63 77t64 100q46 78 84 168t56 172t10 145t-54 85q-42 20 -89 -5t-93 -78t-88 -127t-72 -152q-24 -62 -38 -126t-15 -121zM455 1226q-7 32 2 62t34 52t69 26q62 6 98 -24 t43 -72t-16 -83t-79 -55q-42 -10 -73 1t-51 36t-27 57zM533 1245q3 -15 17 -27t38 -8q18 2 26 17t6 30t-14 27t-34 8t-32 -18t-7 -29z" />
<glyph unicode="&#xe6;" horiz-adv-x="1204" d="M44 285q-2 89 22 188t68 193q42 90 101 170t126 134t141 77t148 3q36 -8 56 -26t30 -46q40 52 99 77t143 15q70 -10 107 -47t48 -92t-1 -125t-38 -142q-26 -70 -61 -137t-75 -126t-81 -104t-77 -69q10 -60 42 -95t79 -51t104 -18t117 8q22 4 31 -12t7 -37t-16 -41 t-38 -26q-100 -22 -178 -8t-134 47t-91 77t-49 84q-8 0 -31 3t-39 17t-15 40t39 74q-2 12 -3 25t-1 27q-14 -28 -28 -53t-30 -51q-36 -58 -77 -108t-89 -83t-103 -44t-117 9q-70 40 -102 112t-34 161zM175 307q-1 -57 12 -102t43 -67q26 -20 59 -10t69 40t71 75t67 99 q46 78 81 169t48 174t2 146t-57 85q-42 20 -89 -5t-93 -78t-88 -127t-72 -152q-24 -62 -38 -126t-15 -121zM749 497q-1 -81 15 -127q28 12 57 46t57 80t52 102t40 110q14 46 22 89t8 77t-10 57t-32 29q-40 12 -71 -10t-55 -64t-41 -99t-27 -119q-14 -90 -15 -171z" />
<glyph unicode="&#xe7;" horiz-adv-x="736" d="M22 506q10 104 43 204t86 180t122 129t149 49q70 0 108 -24t57 -70t26 -111t17 -145q-6 -26 -27 -36t-43 -8t-38 12t-12 26q-4 10 -6 50t-8 83t-19 77t-37 30q-58 -10 -107 -51t-85 -101t-60 -134t-32 -150q-8 -68 -3 -132t24 -117t53 -91t84 -50q60 -16 110 5t89 56 t66 75t43 64q14 18 33 16t34 -14t22 -30t-1 -34q-28 -50 -61 -98t-75 -85t-94 -60t-114 -23q-104 0 -174 43t-111 114t-55 163t-4 188zM292 -65q-6 35 4 83q4 20 21 27t35 6t33 -9t13 -20l-6 -54q72 -12 104 -53t32 -97q0 -46 -21 -70t-51 -35t-65 -13t-65 -2q-18 2 -25 18 t-6 34t8 30t17 10q6 2 25 2t39 1t36 6t16 21q2 30 -26 45t-72 25q-40 10 -46 45z" />
<glyph unicode="&#xe8;" horiz-adv-x="688" d="M-64 156q-8 34 6 51t40 28t60 22t70 33q-6 74 -8 176t10 206q10 84 33 160t63 133t102 87t150 18q70 -10 107 -47t48 -92t-1 -125t-38 -142q-26 -70 -61 -137t-75 -126t-81 -104t-77 -69q10 -60 42 -95t79 -51t104 -18t117 8q22 4 31 -12t7 -37t-16 -41t-38 -26 q-100 -22 -178 -8t-134 47t-91 77t-49 84q-26 -8 -62 -18t-69 -15t-59 2t-32 31zM233 497q-1 -81 15 -127q28 12 57 46t57 80t52 102t40 110q14 46 22 89t8 77t-10 57t-32 29q-40 12 -71 -10t-55 -64t-41 -99t-27 -119q-14 -90 -15 -171zM302 1290q-6 18 5 36t29 29t36 10 t28 -19l102 -172q6 -18 -5 -34t-29 -25t-36 -10t-26 11z" />
<glyph unicode="&#xe9;" horiz-adv-x="688" d="M-64 156q-8 34 6 51t40 28t60 22t70 33q-6 74 -8 176t10 206q10 84 33 160t63 133t102 87t150 18q70 -10 107 -47t48 -92t-1 -125t-38 -142q-26 -70 -61 -137t-75 -126t-81 -104t-77 -69q10 -60 42 -95t79 -51t104 -18t117 8q22 4 31 -12t7 -37t-16 -41t-38 -26 q-100 -22 -178 -8t-134 47t-91 77t-49 84q-26 -8 -62 -18t-69 -15t-59 2t-32 31zM233 497q-1 -81 15 -127q28 12 57 46t57 80t52 102t40 110q14 46 22 89t8 77t-10 57t-32 29q-40 12 -71 -10t-55 -64t-41 -99t-27 -119q-14 -90 -15 -171zM356 1180l104 174q8 12 26 11 t36 -10t29 -25t5 -34l-102 -172q-10 -18 -28 -19t-36 10t-29 29t-5 36z" />
<glyph unicode="&#xea;" horiz-adv-x="688" d="M-64 156q-8 34 6 51t40 28t60 22t70 33q-6 74 -8 176t10 206q10 84 33 160t63 133t102 87t150 18q70 -10 107 -47t48 -92t-1 -125t-38 -142q-26 -70 -61 -137t-75 -126t-81 -104t-77 -69q10 -60 42 -95t79 -51t104 -18t117 8q22 4 31 -12t7 -37t-16 -41t-38 -26 q-100 -22 -178 -8t-134 47t-91 77t-49 84q-26 -8 -62 -18t-69 -15t-59 2t-32 31zM233 497q-1 -81 15 -127q28 12 57 46t57 80t52 102t40 110q14 46 22 89t8 77t-10 57t-32 29q-40 12 -71 -10t-55 -64t-41 -99t-27 -119q-14 -90 -15 -171zM254 1141q-12 17 0 41l76 128 q34 46 79 50t91 -42l78 -142q6 -18 -5 -34t-29 -25t-36 -10t-26 11l-68 122l-64 -110q-6 -18 -26 -20t-39 6t-31 25z" />
<glyph unicode="&#xeb;" horiz-adv-x="688" d="M-64 156q-8 34 6 51t40 28t60 22t70 33q-6 74 -8 176t10 206q10 84 33 160t63 133t102 87t150 18q70 -10 107 -47t48 -92t-1 -125t-38 -142q-26 -70 -61 -137t-75 -126t-81 -104t-77 -69q10 -60 42 -95t79 -51t104 -18t117 8q22 4 31 -12t7 -37t-16 -41t-38 -26 q-100 -22 -178 -8t-134 47t-91 77t-49 84q-26 -8 -62 -18t-69 -15t-59 2t-32 31zM198 1166q-6 26 14 49t49 32t59 1t42 -42q10 -28 -11 -50t-52 -32t-62 -2t-39 44zM233 497q-1 -81 15 -127q28 12 57 46t57 80t52 102t40 110q14 46 22 89t8 77t-10 57t-32 29q-40 12 -71 -10 t-55 -64t-41 -99t-27 -119q-14 -90 -15 -171zM480 1174q-6 26 14 49t49 32t59 1t42 -42q10 -28 -11 -50t-52 -32t-62 -2t-39 44z" />
<glyph unicode="&#xec;" horiz-adv-x="266" d="M48 1308q-6 18 5 36t29 29t36 10t28 -19l102 -172q6 -18 -5 -34t-29 -25t-36 -10t-26 11zM58 64l24 954q8 26 29 37t43 7t39 -21t15 -45q-2 -24 -3 -96t-1 -169v-206t1 -207t0 -173t-1 -103q2 -24 -21 -39t-52 -15t-52 17t-21 59z" />
<glyph unicode="&#xed;" horiz-adv-x="266" d="M46 1198l104 174q8 12 26 11t36 -10t29 -25t5 -34l-102 -172q-10 -18 -28 -19t-36 10t-29 29t-5 36zM58 64l24 954q8 26 29 37t43 7t39 -21t15 -45q-2 -24 -3 -96t-1 -169v-206t1 -207t0 -173t-1 -103q2 -24 -21 -39t-52 -15t-52 17t-21 59z" />
<glyph unicode="&#xee;" horiz-adv-x="266" d="M-20 1129q-12 17 0 41l76 128q34 46 79 50t91 -42l78 -142q6 -18 -5 -34t-29 -25t-36 -10t-26 11l-68 122l-64 -110q-6 -18 -26 -20t-39 6t-31 25zM58 64l24 954q8 26 29 37t43 7t39 -21t15 -45q-2 -24 -3 -96t-1 -169v-206t1 -207t0 -173t-1 -103q2 -24 -21 -39t-52 -15 t-52 17t-21 59z" />
<glyph unicode="&#xef;" horiz-adv-x="266" d="M-92 1162q-6 26 14 49t49 32t59 1t42 -42q10 -28 -11 -50t-52 -32t-62 -2t-39 44zM58 64l24 954q8 26 29 37t43 7t39 -21t15 -45q-2 -24 -3 -96t-1 -169v-206t1 -207t0 -173t-1 -103q2 -24 -21 -39t-52 -15t-52 17t-21 59zM190 1170q-6 26 14 49t49 32t59 1t42 -42 q10 -28 -11 -50t-52 -32t-62 -2t-39 44z" />
<glyph unicode="&#xf1;" horiz-adv-x="972" d="M20 912q-6 24 9 45t37 31t43 3t27 -37l50 -304q18 98 53 178t82 136t106 86t129 30q108 0 176 -66t109 -168t58 -225t21 -241t1 -215t-3 -145q0 -20 -19 -30t-41 -10t-41 11t-19 33q0 84 -4 188t-14 210t-27 206t-44 177t-65 120t-88 37q-70 -10 -121 -67t-86 -143 t-56 -190t-33 -207t-15 -193t-3 -148q0 -16 -18 -26t-40 -11t-42 7t-24 30q-6 32 -9 120t-11 211t-26 270t-52 297zM130 1186q6 50 18 97t34 81t58 53t90 15q52 -4 94 -35t81 -66t77 -62t84 -23t59 42t19 104q-4 16 12 26t38 12t43 -8t27 -36q0 -140 -57 -200t-159 -56 q-58 2 -101 32t-80 66t-74 64t-81 24q-24 -2 -35 -20t-15 -41t-4 -44t-4 -31q4 -16 -13 -26t-40 -12t-44 8t-27 36z" />
<glyph unicode="&#xf2;" horiz-adv-x="832" d="M26 506q10 98 43 192t87 167t127 119t163 46q100 0 172 -40t116 -106t63 -151t13 -177q-6 -102 -39 -201t-90 -177t-138 -127t-181 -49t-168 43t-109 114t-55 161t-4 186zM154 359q8 -65 34 -117t69 -85t107 -37t119 31t97 94t68 134t34 151q8 74 -4 142t-42 119t-81 80 t-121 23q-58 -4 -106 -40t-84 -92t-59 -126t-31 -142q-8 -70 0 -135zM316 1274q-6 18 5 36t29 29t36 10t28 -19l102 -172q6 -18 -5 -34t-29 -25t-36 -10t-26 11z" />
<glyph unicode="&#xf3;" horiz-adv-x="832" d="M26 506q10 98 43 192t87 167t127 119t163 46q100 0 172 -40t116 -106t63 -151t13 -177q-6 -102 -39 -201t-90 -177t-138 -127t-181 -49t-168 43t-109 114t-55 161t-4 186zM154 359q8 -65 34 -117t69 -85t107 -37t119 31t97 94t68 134t34 151q8 74 -4 142t-42 119t-81 80 t-121 23q-58 -4 -106 -40t-84 -92t-59 -126t-31 -142q-8 -70 0 -135zM316 1160l104 174q8 12 26 11t36 -10t29 -25t5 -34l-102 -172q-10 -18 -28 -19t-36 10t-29 29t-5 36z" />
<glyph unicode="&#xf4;" horiz-adv-x="832" d="M26 506q10 98 43 192t87 167t127 119t163 46q100 0 172 -40t116 -106t63 -151t13 -177q-6 -102 -39 -201t-90 -177t-138 -127t-181 -49t-168 43t-109 114t-55 161t-4 186zM154 359q8 -65 34 -117t69 -85t107 -37t119 31t97 94t68 134t34 151q8 74 -4 142t-42 119t-81 80 t-121 23q-58 -4 -106 -40t-84 -92t-59 -126t-31 -142q-8 -70 0 -135zM260 1129q-12 17 0 41l76 128q34 46 79 50t91 -42l78 -142q6 -18 -5 -34t-29 -25t-36 -10t-26 11l-68 122l-64 -110q-6 -18 -26 -20t-39 6t-31 25z" />
<glyph unicode="&#xf5;" horiz-adv-x="832" d="M26 506q10 98 43 192t87 167t127 119t163 46q100 0 172 -40t116 -106t63 -151t13 -177q-6 -102 -39 -201t-90 -177t-138 -127t-181 -49t-168 43t-109 114t-55 161t-4 186zM48 1152q6 50 18 97t34 81t58 53t90 15q52 -4 94 -35t81 -66t77 -62t84 -23t59 42t19 104 q-4 16 12 26t38 12t43 -8t27 -36q0 -140 -57 -200t-159 -56q-58 2 -101 32t-80 66t-74 64t-81 24q-24 -2 -35 -20t-15 -41t-4 -44t-4 -31q4 -16 -13 -26t-40 -12t-44 8t-27 36zM154 359q8 -65 34 -117t69 -85t107 -37t119 31t97 94t68 134t34 151q8 74 -4 142t-42 119 t-81 80t-121 23q-58 -4 -106 -40t-84 -92t-59 -126t-31 -142q-8 -70 0 -135z" />
<glyph unicode="&#xf6;" horiz-adv-x="832" d="M26 506q10 98 43 192t87 167t127 119t163 46q100 0 172 -40t116 -106t63 -151t13 -177q-6 -102 -39 -201t-90 -177t-138 -127t-181 -49t-168 43t-109 114t-55 161t-4 186zM154 359q8 -65 34 -117t69 -85t107 -37t119 31t97 94t68 134t34 151q8 74 -4 142t-42 119t-81 80 t-121 23q-58 -4 -106 -40t-84 -92t-59 -126t-31 -142q-8 -70 0 -135zM188 1162q-6 26 14 49t49 32t59 1t42 -42q10 -28 -11 -50t-52 -32t-62 -2t-39 44zM470 1170q-6 26 14 49t49 32t59 1t42 -42q10 -28 -11 -50t-52 -32t-62 -2t-39 44z" />
<glyph unicode="&#xf7;" horiz-adv-x="660" d="M52 676q2 22 14 40t30 18l460 2q18 0 29 -18t12 -39t-8 -39t-29 -18q-62 4 -115 6t-107 1t-112 -5t-130 -10q-26 2 -36 21t-8 41zM228 842q-6 26 14 49t49 32t59 1t42 -42q10 -28 -11 -50t-52 -32t-62 -2t-39 44zM244 478q-6 26 14 49t49 32t59 1t42 -42q10 -28 -11 -50 t-52 -32t-62 -2t-39 44z" />
<glyph unicode="&#xf8;" horiz-adv-x="832" d="M26 506q10 98 43 192t87 167t127 119t163 46q84 0 154 -32q8 16 15 31t13 27q10 24 34 25t46 -12t34 -37t0 -48q-10 -16 -18 -33t-16 -33q58 -68 83 -163t19 -199q-6 -102 -39 -201t-90 -177t-138 -127t-181 -49q-78 0 -134 24q-8 -16 -16 -34l-16 -36q-6 -12 -28 -11 t-44 12t-36 28t-4 39q16 34 40 80q-64 72 -87 179t-11 223zM154 494q-8 -72 1 -140t37 -120q40 76 85 160t92 168t91 165t80 151q-48 18 -106 16q-58 -4 -106 -40t-84 -92t-59 -126t-31 -142zM284 140q30 -16 80 -20q64 -4 119 31t97 94t68 134t34 151q8 72 -3 139t-41 119 q-100 -182 -187 -336t-167 -312z" />
<glyph unicode="&#xf9;" horiz-adv-x="700" d="M19 656q-1 116 9 221t26 177q4 18 26 24t45 2t41 -18t12 -38q-16 -74 -25 -167t-9 -190t10 -190t34 -165t62 -116t94 -42q44 0 80 46t63 119t46 167t26 192t3 192t-20 170q-4 20 14 33t42 15t46 -8t28 -36q12 -62 16 -163t-6 -215t-33 -229t-64 -208t-101 -152t-142 -59 q-92 0 -153 56t-99 147t-54 205t-17 230zM250 1274q-6 18 5 36t29 29t36 10t28 -19l102 -172q6 -18 -5 -34t-29 -25t-36 -10t-26 11z" />
<glyph unicode="&#xfa;" horiz-adv-x="700" d="M19 656q-1 116 9 221t26 177q4 18 26 24t45 2t41 -18t12 -38q-16 -74 -25 -167t-9 -190t10 -190t34 -165t62 -116t94 -42q44 0 80 46t63 119t46 167t26 192t3 192t-20 170q-4 20 14 33t42 15t46 -8t28 -36q12 -62 16 -163t-6 -215t-33 -229t-64 -208t-101 -152t-142 -59 q-92 0 -153 56t-99 147t-54 205t-17 230zM250 1160l104 174q8 12 26 11t36 -10t29 -25t5 -34l-102 -172q-10 -18 -28 -19t-36 10t-29 29t-5 36z" />
<glyph unicode="&#xfb;" horiz-adv-x="700" d="M19 656q-1 116 9 221t26 177q4 18 26 24t45 2t41 -18t12 -38q-16 -74 -25 -167t-9 -190t10 -190t34 -165t62 -116t94 -42q44 0 80 46t63 119t46 167t26 192t3 192t-20 170q-4 20 14 33t42 15t46 -8t28 -36q12 -62 16 -163t-6 -215t-33 -229t-64 -208t-101 -152t-142 -59 q-92 0 -153 56t-99 147t-54 205t-17 230zM194 1129q-12 17 0 41l76 128q34 46 79 50t91 -42l78 -142q6 -18 -5 -34t-29 -25t-36 -10t-26 11l-68 122l-64 -110q-6 -18 -26 -20t-39 6t-31 25z" />
<glyph unicode="&#xfc;" horiz-adv-x="700" d="M19 656q-1 116 9 221t26 177q4 18 26 24t45 2t41 -18t12 -38q-16 -74 -25 -167t-9 -190t10 -190t34 -165t62 -116t94 -42q44 0 80 46t63 119t46 167t26 192t3 192t-20 170q-4 20 14 33t42 15t46 -8t28 -36q12 -62 16 -163t-6 -215t-33 -229t-64 -208t-101 -152t-142 -59 q-92 0 -153 56t-99 147t-54 205t-17 230zM122 1162q-6 26 14 49t49 32t59 1t42 -42q10 -28 -11 -50t-52 -32t-62 -2t-39 44zM404 1170q-6 26 14 49t49 32t59 1t42 -42q10 -28 -11 -50t-52 -32t-62 -2t-39 44z" />
<glyph unicode="&#xfd;" horiz-adv-x="798" d="M47 455q-3 107 8 214t34 205t55 168q10 24 36 30t51 -2t40 -27t3 -47q-34 -78 -56 -173t-32 -192t-7 -186t19 -155q24 -94 65 -116t111 18q58 36 104 112t74 184t36 242t-10 288q-4 28 20 44t53 18t53 -12t24 -46q0 -110 3 -235t11 -254t21 -254t29 -235q14 -86 27 -186 t18 -201t-3 -198t-37 -176t-83 -135t-142 -76q-66 -16 -128 -3t-112 46t-86 82t-52 107q-8 30 7 49t37 26t45 1t33 -26q14 -40 36 -75t49 -57t62 -30t77 6q58 20 92 70t52 120t21 152t-1 164t-13 159t-17 135q-4 20 -10 69t-12 103t-12 103t-10 71q-30 -64 -72 -122 t-92 -101t-107 -65t-117 -12q-66 10 -108 69t-63 147t-24 195zM316 1184l104 174q8 12 26 11t36 -10t29 -25t5 -34l-102 -172q-10 -18 -28 -19t-36 10t-29 29t-5 36z" />
<glyph unicode="&#xfe;" horiz-adv-x="876" d="M-23 1111q1 21 14 41t35 35t46 25l-16 422q4 22 21 39t38 23t41 -2t30 -36l4 -384q128 56 246 60t208 -44t141 -147t45 -245q-6 -110 -50 -211t-123 -184t-190 -142t-251 -85l6 -226q-4 -22 -21 -39t-38 -23t-41 2t-30 36l-2 236q-30 0 -46 18t-16 41t15 43t45 24 l-14 670q-22 -6 -35 -8t-21 0t-13 6t-11 12q-18 22 -17 43zM202 1114l16 -706q104 18 194 64t156 113t103 153t39 186q2 114 -48 179t-125 87t-165 1t-170 -77z" />
<glyph unicode="&#xff;" horiz-adv-x="798" d="M47 455q-3 107 8 214t34 205t55 168q10 24 36 30t51 -2t40 -27t3 -47q-34 -78 -56 -173t-32 -192t-7 -186t19 -155q24 -94 65 -116t111 18q58 36 104 112t74 184t36 242t-10 288q-4 28 20 44t53 18t53 -12t24 -46q0 -110 3 -235t11 -254t21 -254t29 -235q14 -86 27 -186 t18 -201t-3 -198t-37 -176t-83 -135t-142 -76q-66 -16 -128 -3t-112 46t-86 82t-52 107q-8 30 7 49t37 26t45 1t33 -26q14 -40 36 -75t49 -57t62 -30t77 6q58 20 92 70t52 120t21 152t-1 164t-13 159t-17 135q-4 20 -10 69t-12 103t-12 103t-10 71q-30 -64 -72 -122 t-92 -101t-107 -65t-117 -12q-66 10 -108 69t-63 147t-24 195zM172 1162q-6 26 14 49t49 32t59 1t42 -42q10 -28 -11 -50t-52 -32t-62 -2t-39 44zM454 1170q-6 26 14 49t49 32t59 1t42 -42q10 -28 -11 -50t-52 -32t-62 -2t-39 44z" />
<glyph unicode="&#x152;" horiz-adv-x="1614" d="M28 768q-4 116 9 231t42 220t74 195t107 155t139 101t171 32q106 -6 185 -59t135 -143q52 84 131 134t197 56q58 4 139 4h145q30 0 44 -16t14 -35t-14 -36t-40 -17q-68 -2 -137 -2t-153 -10q-112 -12 -174 -86t-93 -177t-39 -218t-10 -205q18 -2 67 10t112 29t130 35 t123 30q34 8 50 -3t16 -30t-13 -39t-37 -28q-10 -6 -44 -17t-81 -25t-100 -30t-100 -30t-82 -24t-45 -14q4 -54 4 -122t5 -141t19 -143t44 -125t80 -89t130 -36q30 0 78 7t99 18t97 22t76 19q16 6 32 -8t23 -35t3 -43t-30 -32q-40 -16 -102 -26t-124 -18t-112 -11t-62 -3 q-120 0 -194 57t-114 147q-64 -96 -150 -151t-194 -53q-116 2 -203 69t-146 175t-91 247t-36 287zM158 734q6 -118 30 -228t67 -195t106 -137t145 -54q90 -4 164 65t126 185q-16 86 -19 174t-3 164q-26 6 -43 22t-20 39t10 48t49 49q0 136 13 259t45 227q-42 96 -109 156 t-161 64q-102 4 -180 -70t-129 -194t-74 -272t-17 -302z" />
<glyph unicode="&#x153;" horiz-adv-x="1192" d="M26 506q10 98 43 192t87 167t127 119t163 46q80 0 140 -25t106 -69q40 72 106 113t168 29q70 -10 108 -47t49 -93t-1 -125t-40 -141q-50 -126 -131 -241t-159 -207q10 -60 41 -88t76 -36t101 -3t116 15q22 4 31 -12t7 -38t-16 -42t-38 -24q-96 -18 -169 -12t-125 28 t-87 56t-53 74q-88 -84 -171 -112t-143 -28q-100 0 -168 43t-109 114t-55 161t-4 186zM154 359q8 -65 34 -118t69 -86t107 -35q66 -4 135 33t131 111q-16 86 -22 208t14 238q4 20 7 39t7 39q-30 52 -81 81t-121 25q-58 -4 -106 -40t-84 -92t-59 -126t-31 -142q-8 -70 0 -135 zM739 499q1 -87 17 -133q62 62 117 158t85 192q14 46 23 89t8 77t-11 57t-32 29q-40 12 -71 -10t-55 -64t-41 -99t-27 -119q-14 -90 -13 -177z" />
<glyph unicode="&#x178;" d="M29 452q-17 216 7 520t80 676q4 24 26 38t46 13t43 -19t17 -58q-22 -122 -43 -278t-35 -321t-17 -323t11 -284t49 -204t99 -82q62 -4 122 38t112 111t97 154t79 167t56 151t30 107q4 22 7 83t5 142t3 172t1 172t1 143t3 84q2 26 22 39t44 12t43 -13t17 -36 q-4 -40 -5 -108t-1 -150t1 -173t2 -179t2 -166t1 -134q0 -86 1 -220t-3 -289t-16 -318t-40 -305q-24 -116 -67 -217t-106 -174t-145 -115t-184 -42q-66 0 -120 29t-95 71t-67 87t-34 79q-6 30 6 53t31 32t39 2t32 -35q8 -18 23 -51t41 -66t63 -57t89 -24q74 0 133 35t105 98 t79 147t53 182q26 126 38 254t17 248t4 226t-1 188q-20 -76 -71 -176t-123 -189t-159 -150t-181 -57q-120 4 -185 124t-82 336zM272 1812q-6 26 14 49t49 32t59 1t42 -42q10 -28 -11 -50t-52 -32t-62 -2t-39 44zM554 1820q-6 26 14 49t49 32t59 1t42 -42q10 -28 -11 -50 t-52 -32t-62 -2t-39 44z" />
<glyph unicode="&#x2c6;" horiz-adv-x="402" d="M44 1129q-12 17 0 41l76 128q34 46 79 50t91 -42l78 -142q6 -18 -5 -34t-29 -25t-36 -10t-26 11l-68 122l-64 -110q-6 -18 -26 -20t-39 6t-31 25z" />
<glyph unicode="&#x2dc;" horiz-adv-x="818" d="M44 1152q6 50 18 97t34 81t58 53t90 15q52 -4 94 -35t81 -66t77 -62t84 -23t59 42t19 104q-4 16 12 26t38 12t43 -8t27 -36q0 -140 -57 -200t-159 -56q-58 2 -101 32t-80 66t-74 64t-81 24q-24 -2 -35 -20t-15 -41t-4 -44t-4 -31q4 -16 -13 -26t-40 -12t-44 8t-27 36z " />
<glyph unicode="&#x2000;" horiz-adv-x="1024" />
<glyph unicode="&#x2001;" horiz-adv-x="2048" />
<glyph unicode="&#x2002;" horiz-adv-x="1024" />
<glyph unicode="&#x2003;" horiz-adv-x="2048" />
<glyph unicode="&#x2004;" horiz-adv-x="682" />
<glyph unicode="&#x2005;" horiz-adv-x="512" />
<glyph unicode="&#x2006;" horiz-adv-x="341" />
<glyph unicode="&#x2007;" horiz-adv-x="341" />
<glyph unicode="&#x2008;" horiz-adv-x="256" />
<glyph unicode="&#x2009;" horiz-adv-x="409" />
<glyph unicode="&#x200a;" horiz-adv-x="113" />
<glyph unicode="&#x2010;" horiz-adv-x="664" d="M64 676q2 22 14 40t30 18l460 2q18 0 29 -18t12 -39t-8 -39t-29 -18q-62 4 -115 6t-107 1t-112 -5t-130 -10q-26 2 -36 21t-8 41z" />
<glyph unicode="&#x2011;" horiz-adv-x="664" d="M64 676q2 22 14 40t30 18l460 2q18 0 29 -18t12 -39t-8 -39t-29 -18q-62 4 -115 6t-107 1t-112 -5t-130 -10q-26 2 -36 21t-8 41z" />
<glyph unicode="&#x2012;" horiz-adv-x="664" d="M64 676q2 22 14 40t30 18l460 2q18 0 29 -18t12 -39t-8 -39t-29 -18q-62 4 -115 6t-107 1t-112 -5t-130 -10q-26 2 -36 21t-8 41z" />
<glyph unicode="&#x2013;" horiz-adv-x="664" d="M64 676q2 22 14 40t30 18l460 2q18 0 29 -18t12 -39t-8 -39t-29 -18q-62 4 -115 6t-107 1t-112 -5t-130 -10q-26 2 -36 21t-8 41z" />
<glyph unicode="&#x2014;" horiz-adv-x="818" d="M64 676q2 22 14 40t30 18l594 2q18 0 29 -18t12 -39t-8 -39t-29 -18q-62 4 -136 6t-153 1t-158 -5t-151 -10q-26 2 -36 21t-8 41z" />
<glyph unicode="&#x2018;" horiz-adv-x="298" d="M61 1128q1 46 13 86t26 68q16 22 38 26t41 -4t28 -24t-1 -34q-6 -20 -17 -47t-15 -59t6 -68t44 -76q12 -24 7 -44t-20 -31t-36 -11t-41 14q-42 54 -58 106t-15 98z" />
<glyph unicode="&#x2019;" horiz-adv-x="298" d="M63 1268q5 20 20 31t36 11t41 -14q42 -54 58 -106t15 -98t-13 -86t-26 -68q-16 -22 -38 -26t-41 4t-28 24t1 34q6 20 17 47t15 59t-6 68t-44 76q-12 24 -7 44z" />
<glyph unicode="&#x201a;" horiz-adv-x="298" d="M59 252q5 20 20 31t36 11t41 -14q42 -54 58 -106t15 -98t-13 -86t-26 -68q-16 -22 -38 -26t-41 4t-28 24t1 34q6 20 17 47t15 59t-6 68t-44 76q-12 24 -7 44z" />
<glyph unicode="&#x201c;" horiz-adv-x="490" d="M61 1128q1 46 13 86t26 68q16 22 38 26t41 -4t28 -24t-1 -34q-6 -20 -17 -47t-15 -59t6 -68t44 -76q12 -24 7 -44t-20 -31t-36 -11t-41 14q-42 54 -58 106t-15 98zM265 1142q1 46 13 86t26 68q16 22 38 26t41 -4t28 -24t-1 -34q-6 -20 -17 -47t-15 -59t6 -68t44 -76 q12 -24 7 -44t-20 -31t-36 -11t-41 14q-42 54 -58 106t-15 98z" />
<glyph unicode="&#x201d;" horiz-adv-x="490" d="M63 1268q5 20 20 31t36 11t41 -14q42 -54 58 -106t15 -98t-13 -86t-26 -68q-16 -22 -38 -26t-41 4t-28 24t1 34q6 20 17 47t15 59t-6 68t-44 76q-12 24 -7 44zM267 1282q5 20 20 31t36 11t41 -14q42 -54 58 -106t15 -98t-13 -86t-26 -68q-16 -22 -38 -26t-41 4t-28 24 t1 34q6 20 17 47t15 59t-6 68t-44 76q-12 24 -7 44z" />
<glyph unicode="&#x201e;" horiz-adv-x="490" d="M43 248q5 20 20 31t36 11t41 -14q42 -54 58 -106t15 -98t-13 -86t-26 -68q-16 -22 -38 -26t-41 4t-28 24t1 34q6 20 17 47t15 59t-6 68t-44 76q-12 24 -7 44zM247 262q5 20 20 31t36 11t41 -14q42 -54 58 -106t15 -98t-13 -86t-26 -68q-16 -22 -38 -26t-41 4t-28 24t1 34 q6 20 17 47t15 59t-6 68t-44 76q-12 24 -7 44z" />
<glyph unicode="&#x2022;" horiz-adv-x="440" d="M82 830q-4 40 32 60q20 10 36 3t30 -20t23 -28t15 -21q10 12 23 28t30 29t35 17t36 -8q30 -18 26 -58t-25 -84t-49 -86t-46 -64q-8 -10 -17 -7t-15 9q-18 22 -50 62t-56 84t-28 84z" />
<glyph unicode="&#x2026;" horiz-adv-x="858" d="M64 44q-6 26 14 49t49 32t59 1t42 -42q10 -28 -11 -50t-52 -32t-62 -2t-39 44zM350 44q-6 26 14 49t49 32t59 1t42 -42q10 -28 -11 -50t-52 -32t-62 -2t-39 44zM636 44q-6 26 14 49t49 32t59 1t42 -42q10 -28 -11 -50t-52 -32t-62 -2t-39 44z" />
<glyph unicode="&#x202f;" horiz-adv-x="409" />
<glyph unicode="&#x2039;" horiz-adv-x="676" d="M63 402q-9 44 33 94l408 322q18 8 34 -2t27 -26t14 -35t-7 -27l-390 -310q20 -12 80 -43t127 -66t127 -66t80 -45q18 -4 22 -23t-2 -39t-22 -34t-40 -4l-432 230q-50 30 -59 74z" />
<glyph unicode="&#x203a;" horiz-adv-x="716" d="M64 175q4 19 22 23q20 14 80 45t127 66t127 66t80 43l-390 310q-10 8 -7 27t14 35t27 26t34 2l408 -322q42 -50 33 -94t-59 -74l-432 -230q-24 -10 -40 4t-22 34t-2 39z" />
<glyph unicode="&#x205f;" horiz-adv-x="512" />
<glyph unicode="&#x20ac;" horiz-adv-x="1150" d="M32 878q2 22 14 41t30 19h80q26 144 84 278t143 239t196 170t243 71q72 2 124 -27t85 -79t46 -116t5 -134q-6 -26 -27 -36t-44 -8t-40 12t-13 26q6 46 3 91t-18 79t-45 54t-78 18q-86 -4 -161 -42t-136 -100t-110 -145t-81 -177q-32 -86 -46 -172l476 6q18 0 29 -18 t12 -41t-8 -41t-29 -18q-44 2 -102 3t-123 1t-134 -2t-135 -4q-2 -24 -3 -44t-1 -42l496 6q18 0 29 -18t12 -41t-8 -41t-29 -18q-44 2 -102 3t-124 1t-136 -2t-136 -4q4 -48 12 -86q14 -82 46 -162t83 -142t123 -97t166 -27q100 10 184 72t136 150q14 18 35 15t38 -17 t25 -33t0 -35q-34 -62 -85 -114t-113 -89t-132 -55t-142 -12q-128 10 -220 64t-154 139t-95 193t-41 228q-16 -2 -30 -2t-28 -2q-26 2 -36 22t-8 42t14 41t30 19h56q0 6 1 13t1 13q0 16 1 27t3 27q-16 -2 -32 -2t-32 -2q-26 2 -36 22t-8 42z" />
<glyph unicode="&#x25fc;" horiz-adv-x="1050" d="M0 0v1050h1050v-1050h-1050z" />
</font>
</defs>
</svg>
